<svg xmlns="http://www.w3.org/2000/svg" xmlns:xlink="http://www.w3.org/1999/xlink" xml:space="preserve" style="enable-background:new 0 0 500 500" viewBox="0 0 500 500"><path d="M432.827 407.879c61.725-89.99-30.962-102.146-34.837-140.102-3.874-37.956 45.636-59.744 13.698-119.129-31.938-59.386-100.368-25.842-131.26-39.077-30.891-13.235-20.245-49.961-49.117-69.829C202.439 19.874 126.614 59.61 126.614 59.61v348.27h306.213z" style="fill:#aeb68e"/><path d="M432.827 407.879c61.725-89.99-30.962-102.146-34.837-140.102-3.874-37.956 45.636-59.744 13.698-119.129-31.938-59.386-100.368-25.842-131.26-39.077-30.891-13.235-20.245-49.961-49.117-69.829C202.439 19.874 126.614 59.61 126.614 59.61v348.27h306.213z" style="opacity:.7;fill:#fff"/><path d="M126.65 407.879c-12.097 9.225-26.387 23.734-5.501 29.11 31.606 8.137 3.342 35.899 55.43 31.428 52.088-4.472 100.317-23.838 123.901-23.957 23.583-.119 79.521 5.776 111.299-10.109 23.149-11.572 21.902-21.781 19.518-26.472H126.65z" style="fill:#bfbfbf"/><path d="M473.871 407.879H130.956M124.65 408.869l-85.414 35.379M208.113 69.957h24.839a3.262 3.262 0 0 1 3.262 3.262v7.717a3.262 3.262 0 0 1-3.262 3.262h-37.555a3.262 3.262 0 0 1-3.262-3.262V73.22a3.262 3.262 0 0 1 3.262-3.262h2.512M201.887 69.957h2.94M201.022 101.883h-27.666a3.263 3.263 0 0 1-3.263-3.262v-7.717a3.263 3.263 0 0 1 3.263-3.263M176.635 87.641h34.276a3.262 3.262 0 0 1 3.262 3.263v7.717a3.262 3.262 0 0 1-3.262 3.262h-6.431M258.18 90.41a3.263 3.263 0 0 1 3.263 3.262v7.717a3.263 3.263 0 0 1-3.263 3.263h-33.809M220.625 104.652a3.262 3.262 0 0 1-3.262-3.263v-7.717a3.262 3.262 0 0 1 3.262-3.262h33.494M412.735 210.636h22.111c1.604 0 2.904 1.3 2.904 2.904v6.869c0 1.604-1.3 2.904-2.904 2.904h-33.431a2.904 2.904 0 0 1-2.904-2.904v-6.869c0-1.604 1.3-2.904 2.904-2.904h2.236M407.192 210.636h2.617M440.747 244.486c1.604 0 2.904 1.3 2.904 2.904v6.869c0 1.604-1.3 2.904-2.904 2.904H410.65M407.316 257.163a2.904 2.904 0 0 1-2.904-2.904v-6.869c0-1.604 1.3-2.904 2.904-2.904h29.816M384.31 225.739h28.078c1.604 0 2.904 1.3 2.904 2.904v6.869c0 1.604-1.3 2.904-2.904 2.904h-30.849M378.957 238.417a2.904 2.904 0 0 1-2.904-2.904v-6.869c0-1.604 1.3-2.904 2.904-2.904h2.685M457.369 237.977c0 1.604-1.3 2.904-2.904 2.904h-33.431a2.904 2.904 0 0 1-2.904-2.904M424.031 228.204h30.434c1.604 0 2.904 1.3 2.904 2.904v4.059M418.13 235.167v-4.059c0-1.604 1.3-2.904 2.904-2.904M126.614 407.879V63.706" style="fill:none;stroke:#263238;stroke-linecap:round;stroke-linejoin:round;stroke-miterlimit:10"/><path d="M99.764 110.287c9.586 0 17.356-5.636 17.356-12.589 0-5.92-5.634-10.882-13.224-12.227-.883-7.812-8.111-13.905-16.899-13.905-.469 0-.933.022-1.393.056-3.844-4.699-10.524-7.811-18.127-7.811-10.159 0-18.673 5.553-20.967 13.028-8.976 2.067-15.538 8.617-15.538 16.382 0 9.425 9.662 17.065 21.58 17.065h47.212z" style="fill:#aeb68e"/><path d="M99.764 110.287c9.586 0 17.356-5.636 17.356-12.589 0-5.92-5.634-10.882-13.224-12.227-.883-7.812-8.111-13.905-16.899-13.905-.469 0-.933.022-1.393.056-3.844-4.699-10.524-7.811-18.127-7.811-10.159 0-18.673 5.553-20.967 13.028-8.976 2.067-15.538 8.617-15.538 16.382 0 9.425 9.662 17.065 21.58 17.065h47.212z" style="opacity:.7;fill:#fff"/><path d="M61.26 64.064c-8.467 1.165-15.236 6.234-17.244 12.775M83.111 71.622c-3.844-4.699-10.524-7.811-18.127-7.811M97.27 110.287c9.586 0 17.356-5.636 17.356-12.589 0-5.92-5.634-10.882-13.224-12.227-.822-7.273-7.144-13.056-15.104-13.82M52.443 110.287h41.756M39.977 78.134c-6.838 2.862-11.498 8.543-11.498 15.087 0 9.425 9.662 17.065 21.58 17.065" style="fill:none;stroke:#263238;stroke-linecap:round;stroke-linejoin:round;stroke-miterlimit:10"/><path d="M105.789 157.567c6.071 0 10.993-3.57 10.993-7.973 0-3.749-3.568-6.893-8.376-7.744-.559-4.948-5.138-8.807-10.703-8.807-.297 0-.591.014-.882.035-2.435-2.976-6.665-4.947-11.481-4.947-6.434 0-11.827 3.517-13.28 8.252-5.685 1.309-9.841 5.458-9.841 10.376 0 5.969 6.119 10.809 13.668 10.809h29.902z" style="fill:#aeb68e"/><path d="M105.789 157.567c6.071 0 10.993-3.57 10.993-7.973 0-3.749-3.568-6.893-8.376-7.744-.559-4.948-5.138-8.807-10.703-8.807-.297 0-.591.014-.882.035-2.435-2.976-6.665-4.947-11.481-4.947-6.434 0-11.827 3.517-13.28 8.252-5.685 1.309-9.841 5.458-9.841 10.376 0 5.969 6.119 10.809 13.668 10.809h29.902z" style="opacity:.7;fill:#fff"/><path d="M81.402 128.291c-5.362.738-9.65 3.948-10.921 8.091M95.242 133.078c-2.435-2.976-6.665-4.947-11.481-4.947M104.209 157.567c6.071 0 10.993-3.57 10.993-7.973 0-3.749-3.568-6.893-8.376-7.744-.521-4.606-4.525-8.269-9.566-8.753M75.818 157.567h26.447M67.923 137.203c-4.331 1.813-7.282 5.411-7.282 9.556 0 5.969 6.119 10.809 13.668 10.809" style="fill:none;stroke:#263238;stroke-linecap:round;stroke-linejoin:round;stroke-miterlimit:10"/><path d="M30.926 306.772a3.733 3.733 0 0 1-.724-7.395l102.025-20.294a3.732 3.732 0 1 1 1.456 7.322L31.658 306.699c-.245.049-.49.073-.732.073z" style="fill:#263238"/><path d="M46.163 446.785a2.133 2.133 0 0 1-2.133-2.133V300.009a2.133 2.133 0 0 1 4.266 0v144.644a2.133 2.133 0 0 1-2.133 2.132zM71.038 437.474a2.133 2.133 0 0 1-2.133-2.133V295.06a2.133 2.133 0 0 1 4.266 0v140.281a2.132 2.132 0 0 1-2.133 2.133zM95.914 427.17a2.133 2.133 0 0 1-2.133-2.133V290.083a2.133 2.133 0 0 1 4.266 0v134.954a2.133 2.133 0 0 1-2.133 2.133zM120.79 416.866a2.133 2.133 0 0 1-2.133-2.133V285.165a2.133 2.133 0 0 1 4.266 0v129.569a2.133 2.133 0 0 1-2.133 2.132z" style="fill:#263238"/><path d="M204.23 242.177h3.503v173.041h-3.503zM288.569 284.483h3.503v130.734h-3.503zM161.563 328.121h3.502v87.097h-3.502zM246.624 242.177h3.502v173.041h-3.502z" style="fill:#fff;stroke:#263238;stroke-linecap:round;stroke-linejoin:round;stroke-miterlimit:10"/><path d="M250.066 243.243h-45.917a1.216 1.216 0 0 1-1.216-1.216v-1.479c0-.671.544-1.216 1.216-1.216h45.917c.672 0 1.216.544 1.216 1.216v1.479c0 .672-.544 1.216-1.216 1.216zM292.602 286.438h-88.453a1.215 1.215 0 0 1-1.216-1.216v-1.479c0-.672.544-1.216 1.216-1.216h88.453c.671 0 1.216.544 1.216 1.216v1.479c0 .672-.544 1.216-1.216 1.216zM250.066 372.829h-89.52a1.215 1.215 0 0 1-1.216-1.216v-1.479c0-.672.544-1.216 1.216-1.216h89.52c.672 0 1.216.544 1.216 1.216v1.479c0 .671-.544 1.216-1.216 1.216zM250.066 329.634h-89.52a1.215 1.215 0 0 1-1.216-1.216v-1.479c0-.672.544-1.216 1.216-1.216h89.52c.672 0 1.216.544 1.216 1.216v1.479c0 .671-.544 1.216-1.216 1.216z" style="fill:#aeb68e;stroke:#263238;stroke-linecap:round;stroke-linejoin:round;stroke-miterlimit:10"/><path d="m279.883 182.989-7.012-13.018s-4.62-9.939-8.959-12.038c-4.34-2.1-7.419-4.12-8.819-1.64 0 0-1.4 1.08-1.4 2.48 0 0-.98 1.54-.7 2.8 0 0-.381 1.26-.05 2.66 0 0 3.83 6.159 13.768 9.379l6.579 13.858 6.593-4.481z" style="fill:#fff;stroke:#263238;stroke-linecap:round;stroke-linejoin:round;stroke-miterlimit:10"/><path d="M260.039 161.945s-.187 1.12-1.12 1.027c-.933-.093-2.706-.653-4.386-2.986M259.012 163.438s-.14 1.446-1.306 1.446c-1.167 0-2.52-1.137-3.826-2.505M257.799 165.305s.84 1.167.373 1.726c-.467.56-1.583.28-3.406-1.26M259.012 166.051s2.473.84 3.406.933M259.246 157.046s-.653.48-1.96.263" style="fill:none;stroke:#263238;stroke-linecap:round;stroke-linejoin:round;stroke-miterlimit:10"/><path d="M311.878 154.697s-8.487 1.92-9.251 15.545c0 0-1.511-1.68-1.884 3.173l-12.132 18.851s-9.146-10.079-11.198-15.678c0 0-2.053 3.919-7.652 5.503 0 0 13.438 28.279 18.664 28.279 5.226 0 23.454-27.836 23.454-27.836s3.482-22.851-.001-27.837z" style="fill:#aeb68e;stroke:#263238;stroke-linecap:round;stroke-linejoin:round;stroke-miterlimit:10"/><defs><path id="a" d="m277.897 175.97 1.255 1.837s-2.917 5.601-10.181 6.209l-.269-2.071a1.568 1.568 0 0 1 .988-1.672 17.777 17.777 0 0 0 6.605-4.435 1.033 1.033 0 0 1 1.602.132z"/></defs><use xlink:href="#a" style="overflow:visible;fill:#aeb68e"/><clipPath id="b"><use xlink:href="#a" style="overflow:visible"/></clipPath><path d="m277.897 175.97 1.255 1.837s-2.917 5.601-10.181 6.209l-.269-2.071a1.568 1.568 0 0 1 .988-1.672 17.777 17.777 0 0 0 6.605-4.435 1.033 1.033 0 0 1 1.602.132z" style="opacity:.5;clip-path:url(#b);fill:#fff"/><use xlink:href="#a" style="overflow:visible;fill:none;stroke:#263238;stroke-linecap:round;stroke-linejoin:round;stroke-miterlimit:10"/><path d="M302.499 172.33a35.873 35.873 0 0 0 1.311 7.45M289.078 200.851s-.98-1.96-.84-6.719" style="fill:none;stroke:#263238;stroke-linecap:round;stroke-linejoin:round;stroke-miterlimit:10"/><path d="m335.328 397.315.77 7.419s5.054 12.668 1.61 12.668h-32.616v-6.439s15.118-4.334 16.798-6.926l-.73-4.541 14.168-2.181z" style="fill:#fff;stroke:#263238;stroke-linecap:round;stroke-linejoin:round;stroke-miterlimit:10"/><path d="M314.844 418.258s-.492-6.55-2.639-10.203c0 0-12.644 1.369-12.644 10.203h15.283z" style="fill:#aeb68e;stroke:#263238;stroke-linecap:round;stroke-linejoin:round;stroke-miterlimit:10"/><path d="M299.796 419.783h39.708a1.19 1.19 0 0 0 1.19-1.19h0a1.19 1.19 0 0 0-1.19-1.19h-39.708a1.19 1.19 0 0 0-1.19 1.19h0c0 .657.533 1.19 1.19 1.19z" style="fill:#aeb68e;stroke:#263238;stroke-linecap:round;stroke-linejoin:round;stroke-miterlimit:10"/><defs><path id="c" d="M306.072 230.154s-6.89 16.051-3.445 39.568c0 0-1.318 17.159 6.243 55.053 0 0-.951 4.911 1.205 6.285l9.794 70.891s10.071 1.414 16.615-2.276c0 0-2.571-47.397-8.932-69.638 0 0 2.233-4.059-1.042-5.723 0 0 5.487-38.355 4.563-50.953 0 0 10.729-19.416 9.484-38.276l-34.485-4.931z"/></defs><use xlink:href="#c" style="overflow:visible;opacity:.7;fill:#fff"/><clipPath id="d"><use xlink:href="#c" style="overflow:visible;opacity:.7"/></clipPath><path d="M325.25 267.797s-3.763.625-9.301-2.645-8.337-4.299-8.477-2.665c-.14 1.635 8.038 8.634 11.578 11.153 3.54 2.52.99 42.368.99 49.554s-4.293 4.899-4.091 7.419c.202 2.52 4.091-.617 7.061 6.02 8.445 18.871 11.594 50.226 14.393 57.505 2.8 7.279-.825-46.167-.825-46.167l-9.527-72.79-1.801-7.384z" style="opacity:.2;clip-path:url(#d)"/><path d="M306.072 230.154s-6.89 16.051-3.445 39.568c0 0-1.318 17.159 6.243 55.053 0 0-.951 4.911 1.205 6.285l9.794 70.891s10.071 1.414 16.615-2.276c0 0-2.571-47.397-8.932-69.638 0 0 2.233-4.059-1.042-5.723 0 0 5.487-38.355 4.563-50.953 0 0 10.729-19.416 9.484-38.276l-34.485-4.931z" style="fill:#bfbfbf;stroke:#263238;stroke-miterlimit:10"/><path d="M307.472 259.643s2.167 5.178 11.578 8.154M316.388 261.256c.553.879 1.21 1.714 1.987 2.464M313.426 249.285s-.178 3.764 1.095 7.839M320.04 330.381s-3.516 1.307-8.182-1.12" style="fill:none;stroke:#263238;stroke-linecap:round;stroke-linejoin:round;stroke-miterlimit:10"/><path d="m362.345 393.466 2.138 6.03s6.601 6.314 5.75 10.501c-.851 4.187-10.929 6.75-16.527 6.75-5.599 0-13.43.379-13.43.379l-.849-6.442s12.039-4.388 12.318-7.699l-2.1-6.509 12.7-3.01z" style="fill:#fff;stroke:#263238;stroke-linecap:round;stroke-linejoin:round;stroke-miterlimit:10"/><defs><path id="e" d="M318.95 236.686s-.161 23.619 4.812 32.237c0 0-1.405 53.884-.119 58.864 1.286 4.981 25.543 71.709 25.543 71.709s9.406 1.44 14.922-3.835c0 0-11.002-47.269-18.001-66.586 0 0 2.52-.56.56-4.199 0 0 7.687-29.395 11.891-50.454 1.224-6.133 3.178-11.559 3.29-15.345.497-16.79-5.102-25.189-5.102-25.189l-37.796 2.798z"/></defs><use xlink:href="#e" style="overflow:visible;fill:#bfbfbf"/><clipPath id="f"><use xlink:href="#e" style="overflow:visible"/></clipPath><g style="clip-path:url(#f)"><defs><path id="g" d="M318.95 236.686s-.161 23.619 4.812 32.237c0 0-1.405 53.884-.119 58.864 1.286 4.981 25.543 71.709 25.543 71.709s9.406 1.44 14.922-3.835c0 0-11.002-47.269-18.001-66.586 0 0 2.52-.56.56-4.199 0 0 14.684-49.01 15.181-65.799s-5.102-25.189-5.102-25.189l-37.796 2.798z"/></defs><use xlink:href="#g" style="overflow:visible;opacity:.7;fill:#bfbfbf"/><clipPath id="h"><use xlink:href="#g" style="overflow:visible;opacity:.7"/></clipPath><path d="M361.868 247.605s6.355 12.038-23.329 16.223c-19.721 2.78 13.447 6.174 13.727 14.293.28 8.119-9.441 47.75-17.078 49.833-7.637 2.083 6.558 1.12 10.558 9.239s20.306 60.747 11.593 63.549c-8.713 2.802 23.203 1.475 23.203 1.475l4.199-8.079-3.919-116.017-5.879-20.997-13.075-9.519z" style="opacity:.2;clip-path:url(#h)"/><use xlink:href="#g" style="overflow:visible;opacity:.7;fill:none;stroke:#263238;stroke-miterlimit:10"/></g><use xlink:href="#e" style="overflow:visible;fill:none;stroke:#263238;stroke-miterlimit:10"/><path d="M338.195 262.508c-4.322 1.616-11.293 2.376-11.141 4.341.219 2.843 9.534-1.886 11.774.913M341.529 259.643c0 .758-.517 1.385-1.355 1.922M357.954 394.138l.471 1.522M338.73 331.454c3.847 12.943 15.066 49.245 18.61 60.698M337.708 327.954c-2.163-7.69 7.804-46.53 10.67-57.376M342.373 246.485s-.578 15.398 6.757 21.277" style="fill:none;stroke:#263238;stroke-linecap:round;stroke-linejoin:round;stroke-miterlimit:10"/><path d="M345.884 418.258s-.492-6.55-2.639-10.203c0 0-12.644 1.369-12.644 10.203h15.283z" style="fill:#aeb68e;stroke:#263238;stroke-linecap:round;stroke-linejoin:round;stroke-miterlimit:10"/><path d="m330.836 419.783 39.708-1.12a1.19 1.19 0 0 0 1.19-1.19h0a1.19 1.19 0 0 0-1.19-1.19l-39.708 1.12a1.19 1.19 0 0 0-1.19 1.19h0c0 .657.533 1.19 1.19 1.19z" style="fill:#aeb68e;stroke:#263238;stroke-linecap:round;stroke-linejoin:round;stroke-miterlimit:10"/><path d="M360.875 401.865s1.651 2.401 2.869 3.431c1.82 1.538 0 4.198 0 4.198" style="fill:none;stroke:#263238;stroke-linecap:round;stroke-linejoin:round;stroke-miterlimit:10"/><path d="M309.439 100.541s19.953-9.009 27.468 15.09c5.683 18.226 12.843 11.769 15.374 23.764 2.384 11.297-13.145 16.36-18.217 16.551-5.072.19-14.104.419-17.024 2.466-2.92 2.047-14.274 4.657-13.903-3.096.437-9.144-.37-13.588-4.339-23.416-4.453-11.028-4.809-31.849 10.641-31.359z" style="fill:#263238;stroke:#263238;stroke-linecap:round;stroke-linejoin:round;stroke-miterlimit:10"/><path d="M354.123 239.859c3.779-.216 8.586.373 6.533-15.305-2.053-15.678.384-32.663 2.525-48.34 2.141-15.678 3.448-30.236-8.871-30.796-12.318-.56-44.981 4.853-47.967 15.305-1.122 3.927-.979 8.274-.503 13.331.447 4.745-1.444 10.114-1.177 16.345.206 4.803 2.763 10.117 2.053 16.052-2.613 21.837-8.772 25.01 2.24 30.236 10.226 4.853 11.571 5.094 45.167 3.172z" style="fill:#aeb68e;stroke:#263238;stroke-linecap:round;stroke-linejoin:round;stroke-miterlimit:10"/><defs><path id="i" d="M317.101 152.797c-1.176 1.435-1.244 6.198 5.979 6.03 7.223-.168 15.327-12.224 15.327-12.224s-4.686.451-7.541-6.268c-1.247-2.933-4.031-12.094-4.031-12.094l-11.047 11.927 3.924 10.771c-.001-.001-2.138 1.28-2.611 1.858z"/></defs><use xlink:href="#i" style="overflow:visible;fill:#fff"/><clipPath id="j"><use xlink:href="#i" style="overflow:visible"/></clipPath><path d="M317.315 149.355s8.26-5.115 9.376-13.556c1.116-8.441.312-8.651.312-8.651l-3.885 8.82-5.162 5.532-2.695 4.44 2.054 3.415z" style="clip-path:url(#j);fill:#263238"/><use xlink:href="#i" style="overflow:visible;fill:none;stroke:#263238;stroke-linecap:round;stroke-linejoin:round;stroke-miterlimit:10"/><path d="M300.63 112.114s-2.184 10.247-.42 13.606c1.764 3.36-.152 7.064 2.945 11.436 3.315 4.679 8.327 10.676 12.633 9.659 5.631-1.33 10.523-7.992 10.904-11.016.381-3.024.039-5.8.039-5.8s1.196.247 2.54-1.008 3.108-6.37 0-8.058c-2.731-1.483-3.832 1.68-3.832 1.68l-7.843-11.255-16.966.756z" style="fill:#fff;stroke:#263238;stroke-linecap:round;stroke-linejoin:round;stroke-miterlimit:10"/><path d="M306.766 133.497c.474 1.037-.898 2.995-.289 3.727.61.732 1.867.173 1.966.968" style="fill:#fff;stroke:#263238;stroke-linecap:round;stroke-linejoin:round;stroke-miterlimit:10"/><path d="M310.397 140.622s2.788.529 5.128-2.293" style="fill:none;stroke:#263238;stroke-linecap:round;stroke-linejoin:round;stroke-miterlimit:10"/><path d="M312.46 129.176c.275.926.152 1.779-.275 1.906-.427.127-.996-.521-1.272-1.447-.275-.926-.152-1.779.275-1.906.427-.126.997.521 1.272 1.447zM304.157 130.798c.261.88.144 1.69-.262 1.811s-.947-.494-1.208-1.374c-.261-.88-.144-1.69.262-1.811.405-.12.946.495 1.208 1.374z" style="fill:#263238"/><path d="M300.458 126.987s.979-2.183 3.353-.011M308.13 126.014s2.999-4.053 6.173-.702" style="fill:none;stroke:#263238;stroke-linecap:round;stroke-linejoin:round;stroke-miterlimit:10"/><defs><path id="k" d="M336.227 146.954s-9.634 12.042-13.834 11.342c-4.199-.7-3.109-7.046-3.109-7.046s-.621-1.047-3.445 1.39c0 0-1.891 5.937-1.098 9.996 0 0 .08-2.338 2.119-3.207 1.203-.513 2.699.215 4.413.268 1.671.051 5.49-.671 6.825-.182 2.357.861 2.834 3.122 2.834 3.122s5.949-3.793 9.624-16.104c0-.001-.574-2.102-4.329.421z"/></defs><use xlink:href="#k" style="overflow:visible;fill:#aeb68e"/><clipPath id="l"><use xlink:href="#k" style="overflow:visible"/></clipPath><path d="M336.227 146.954s-9.634 12.042-13.834 11.342c-4.199-.7-3.109-7.046-3.109-7.046s-.621-1.047-3.445 1.39c0 0-1.891 5.937-1.098 9.996 0 0 .08-2.338 2.119-3.207 1.203-.513 2.699.215 4.413.268 1.671.051 5.49-.671 6.825-.182 2.357.861 2.834 3.122 2.834 3.122s5.949-3.793 9.624-16.104c0-.001-.574-2.102-4.329.421z" style="opacity:.7;clip-path:url(#l);fill:#fff"/><use xlink:href="#k" style="overflow:visible;fill:none;stroke:#263238;stroke-linecap:round;stroke-linejoin:round;stroke-miterlimit:10"/><path d="M300.897 107.841s-3.381 8.378-2.352 13.081c1.029 4.703 6.763-2.499 14.846-.735 0 0-.547-7.055 1.416-7.202 0 0-.389 8.378 5.638 9.848 6.026 1.47 5.049-.576 5.049-.576l-1.352-14.122-6.93-4.703h-7.655l-8.66 4.409z" style="fill:#263238;stroke:#263238;stroke-linecap:round;stroke-linejoin:round;stroke-miterlimit:10"/><defs><path id="m" d="M251.318 171.309h24.81a5.956 5.956 0 0 1 5.708 4.254l1.344 4.504c.26.873.317 1.795.165 2.693l-3.193 18.933a5.956 5.956 0 0 1-5.874 4.966h-21.111a5.956 5.956 0 0 1-5.874-4.966L244.1 182.76a5.955 5.955 0 0 1 .165-2.693l1.343-4.504a5.959 5.959 0 0 1 5.71-4.254z"/></defs><use xlink:href="#m" style="overflow:visible;fill:#aeb68e"/><clipPath id="n"><use xlink:href="#m" style="overflow:visible"/></clipPath><g style="clip-path:url(#n)"><defs><path id="o" d="M251.318 171.309h24.81a5.956 5.956 0 0 1 5.708 4.254l1.344 4.504c.26.873.317 1.795.165 2.693l-3.193 18.933a5.956 5.956 0 0 1-5.874 4.966h-21.111a5.956 5.956 0 0 1-5.874-4.966L244.1 182.76a5.955 5.955 0 0 1 .165-2.693l1.343-4.504a5.959 5.959 0 0 1 5.71-4.254z"/></defs><use xlink:href="#o" style="overflow:visible;opacity:.7;fill:#fff"/><clipPath id="p"><use xlink:href="#o" style="overflow:visible;opacity:.7"/></clipPath><path d="M250.16 203.105h21.111a5.957 5.957 0 0 0 5.874-4.966l3.193-18.933a5.942 5.942 0 0 0-.166-2.693l-1.343-4.504c-.01-.034-.027-.064-.038-.098a5.948 5.948 0 0 1 3.127 3.652l1.343 4.504c.261.873.317 1.795.166 2.693l-3.193 18.933a5.956 5.956 0 0 1-5.874 4.966h-21.111a5.945 5.945 0 0 1-5.663-4.164 5.89 5.89 0 0 0 2.574.61z" style="opacity:.2;clip-path:url(#p)"/></g><use xlink:href="#m" style="overflow:visible;fill:none;stroke:#263238;stroke-linecap:round;stroke-linejoin:round;stroke-miterlimit:10"/><defs><path id="q" d="m271.104 203.018 1.005.58a2.343 2.343 0 0 0 3.201-.858l8.866-15.356-5.063-2.923-8.866 15.357a2.341 2.341 0 0 0 .857 3.2z"/></defs><use xlink:href="#q" style="overflow:visible;fill:#aeb68e"/><clipPath id="r"><use xlink:href="#q" style="overflow:visible"/></clipPath><path d="m271.104 203.018 1.005.58a2.343 2.343 0 0 0 3.201-.858l8.866-15.356-5.063-2.923-8.866 15.357a2.341 2.341 0 0 0 .857 3.2z" style="opacity:.5;clip-path:url(#r);fill:#fff"/><use xlink:href="#q" style="overflow:visible;fill:none;stroke:#263238;stroke-linecap:round;stroke-linejoin:round;stroke-miterlimit:10"/><defs><path id="s" d="M258.36 171.308h3.36v-13.564c0-.754.613-1.367 1.367-1.367h1.436c.754 0 1.367.613 1.367 1.367v13.564h3.36v-13.564a4.733 4.733 0 0 0-4.727-4.727h-1.436a4.733 4.733 0 0 0-4.727 4.727v13.564z"/></defs><use xlink:href="#s" style="overflow:visible;fill:#aeb68e"/><clipPath id="t"><use xlink:href="#s" style="overflow:visible"/></clipPath><g style="opacity:.4;clip-path:url(#t)"><path d="M258.36 171.308h3.36v-13.564c0-.754.613-1.367 1.367-1.367h1.436c.754 0 1.367.613 1.367 1.367v13.564h3.36v-13.564a4.733 4.733 0 0 0-4.727-4.727h-1.436a4.733 4.733 0 0 0-4.727 4.727v13.564z" style="fill:#fff"/></g><use xlink:href="#s" style="overflow:visible;fill:none;stroke:#263238;stroke-linecap:round;stroke-linejoin:round;stroke-miterlimit:10"/><path d="M264.332 159.192s-3.499-.56-4.759-.84c-1.26-.28-4.139-1.63-4.479-.7-.56 1.531 2.94 2.66 5.319 3.5 2.38.84.774 4.619 4.359 6.299" style="fill:#fff;stroke:#263238;stroke-linecap:round;stroke-linejoin:round;stroke-miterlimit:10"/><defs><path id="u" d="M277.963 180.821c-1.585 2.745-2.324 9.165.421 10.749 2.745 1.585 7.935-2.265 9.52-5.01a5.74 5.74 0 0 0-9.941-5.739z"/></defs><use xlink:href="#u" style="overflow:visible;fill:#aeb68e"/><clipPath id="v"><use xlink:href="#u" style="overflow:visible"/></clipPath><path d="M277.963 180.821c-1.585 2.745-2.324 9.165.421 10.749 2.745 1.585 7.935-2.265 9.52-5.01a5.74 5.74 0 0 0-9.941-5.739z" style="opacity:.5;clip-path:url(#v);fill:#fff"/><use xlink:href="#u" style="overflow:visible;fill:none;stroke:#263238;stroke-linecap:round;stroke-linejoin:round;stroke-miterlimit:10"/><path d="M277.963 180.821a5.74 5.74 0 1 0 9.941 5.739 5.74 5.74 0 0 0-9.941-5.739z" style="fill:#fff;stroke:#263238;stroke-linecap:round;stroke-linejoin:round;stroke-miterlimit:10"/><path d="M282.326 180.496a.607.607 0 1 0 1.215 0 .607.607 0 0 0-1.215 0zM284.659 182.093a.607.607 0 1 0 1.215 0 .607.607 0 0 0-1.215 0zM284.659 185.287a.607.607 0 1 0 1.215 0 .607.607 0 0 0-1.215 0zM279.993 182.093a.607.607 0 1 0 1.215 0 .607.607 0 0 0-1.215 0zM279.993 185.287a.607.607 0 1 0 1.215 0 .607.607 0 0 0-1.215 0zM282.326 183.69a.607.607 0 1 0 1.215 0 .607.607 0 0 0-1.215 0zM282.326 186.884a.607.607 0 1 0 1.215 0 .607.607 0 0 0-1.215 0z" style="fill:#fff;stroke:#263238;stroke-linecap:round;stroke-linejoin:round;stroke-miterlimit:10"/><path d="M319.041 122.314c2.707 7.592 5.287 8.327 5.287 8.327 2.054 1.42 3.63-4.267 4.326-9.967.696-5.701-10.38-.512-9.613 1.64z" style="fill:#263238;stroke:#263238;stroke-linecap:round;stroke-linejoin:round;stroke-miterlimit:10"/><path d="M310.638 217.65s-2.945 7.278 30.213 9.145" style="fill:none;stroke:#263238;stroke-linecap:round;stroke-linejoin:round;stroke-miterlimit:10"/><path d="m317.541 201.061-17.96-1.599s-6.133-3.395-10.864-3.833c-4.731-.438-7.176-3.683-8.023-2.215-.414.718.568 3.098 4.534 4.288 4.018 1.205.976 1.87-.747 1.76-1.723-.11-9.217.641-9.519 2.037-.302 1.396.876 1.577 3.154 1.227 2.278-.35 6.631-.35 6.631-.35s-2.154 1.727-4.086 2.09c-1.932.363-6.312 1.064-6.137 2.203.175 1.139 1.415 1.227 2.065 1.227 0 0-.05 1.314 1.614 1.489 0 0 .175 1.226 2.19 1.226s5.519.876 8.586.526c3.066-.351 9.987-2.628 9.987-2.628l18.107 3.169.468-10.617z" style="fill:#fff;stroke:#263238;stroke-linecap:round;stroke-linejoin:round;stroke-miterlimit:10"/><path d="M277.67 207.43s4.409-.351 6.649-.771c2.24-.419 2.1-1.259 3.22-1.189M279.419 209.04s4.572-.045 5.599 0c1.027.046 2.52-.35 2.52-.35M286.932 202.356s.84 1.295 2.147 1.295" style="fill:none;stroke:#263238;stroke-linecap:round;stroke-linejoin:round;stroke-miterlimit:10"/><path d="M357.474 146.537c4.696-.171 9.732 3.785 8.78 16.986-1.493 20.717-8.399 54.313-14.745 54.126-6.346-.187-36.768-5.251-36.768-5.251s1.866-6.321 1.493-11.92l24.45.747s0-1.68 4.106-.56c0 0-.187-4.106.56-11.385.747-7.279-.747-14.185 1.493-19.038 0 0-1.913-.993-.373-6.532" style="fill:#aeb68e;stroke:#263238;stroke-linecap:round;stroke-linejoin:round;stroke-miterlimit:10"/><defs><path id="w" d="m317.361 199.801-3.066.2a1.213 1.213 0 0 0-1.139 1.248c.047 1.602-.075 4.889-1.254 10.099a1.224 1.224 0 0 0 .91 1.468l3.01.701c-.001.001 2.589-4.407 1.539-13.716z"/></defs><use xlink:href="#w" style="overflow:visible;fill:#aeb68e"/><clipPath id="x"><use xlink:href="#w" style="overflow:visible"/></clipPath><path d="m317.361 199.801-3.066.2a1.213 1.213 0 0 0-1.139 1.248c.047 1.602-.075 4.889-1.254 10.099a1.224 1.224 0 0 0 .91 1.468l3.01.701c-.001.001 2.589-4.407 1.539-13.716z" style="opacity:.5;clip-path:url(#x);fill:#fff"/><use xlink:href="#w" style="overflow:visible;fill:none;stroke:#263238;stroke-linecap:round;stroke-linejoin:round;stroke-miterlimit:10"/><path d="M350.113 207.811s-2.1-2.729-5.879-4.689M348.156 167.316c.695-1.237 1.784-3.951 3.914-6.359M350.49 153.017a25.215 25.215 0 0 0-3.79 8.274M357.474 146.537c-3.013.93-3.736 2.06-6.022 4.906M343.119 162.138c-.671 3.201.368 6.709 2.674 9.028M324.858 177.932c-1.85 4.396-1.813 9.549.1 13.918" style="fill:none;stroke:#263238;stroke-linecap:round;stroke-linejoin:round;stroke-miterlimit:10"/><defs><path id="y" d="M398.988 324.871s.984-4.599-1.91-6.933-3.742-3.878-3.742-3.878-1.803 6.981 5.652 10.811z"/></defs><use xlink:href="#y" style="overflow:visible;fill:#aeb68e"/><clipPath id="z"><use xlink:href="#y" style="overflow:visible"/></clipPath><path d="M398.988 324.871s.984-4.599-1.91-6.933-3.742-3.878-3.742-3.878-1.803 6.981 5.652 10.811z" style="opacity:.2;clip-path:url(#z)"/><path d="M398.552 323.623c-.354-1.256-1.493-4.532-4.44-7.83" style="fill:none;stroke:#263238;stroke-width:.75;stroke-linecap:round;stroke-linejoin:round;stroke-miterlimit:10"/><defs><path id="A" d="M402.187 295.664s.984-4.599-1.91-6.933c-2.893-2.334-3.742-3.878-3.742-3.878s-1.804 6.981 5.652 10.811z"/></defs><use xlink:href="#A" style="overflow:visible;fill:#aeb68e"/><clipPath id="B"><use xlink:href="#A" style="overflow:visible"/></clipPath><path d="M402.187 295.664s.984-4.599-1.91-6.933c-2.893-2.334-3.742-3.878-3.742-3.878s-1.804 6.981 5.652 10.811z" style="opacity:.2;clip-path:url(#B)"/><path d="M401.75 294.416c-.354-1.256-1.493-4.532-4.439-7.83" style="fill:none;stroke:#263238;stroke-width:.75;stroke-linecap:round;stroke-linejoin:round;stroke-miterlimit:10"/><defs><path id="C" d="M396.667 358.586s.984-4.599-1.909-6.933c-2.894-2.334-3.742-3.878-3.742-3.878s-1.805 6.981 5.651 10.811z"/></defs><use xlink:href="#C" style="overflow:visible;fill:#aeb68e"/><clipPath id="D"><use xlink:href="#C" style="overflow:visible"/></clipPath><path d="M396.667 358.586s.984-4.599-1.909-6.933c-2.894-2.334-3.742-3.878-3.742-3.878s-1.805 6.981 5.651 10.811z" style="opacity:.2;clip-path:url(#D)"/><use xlink:href="#C" style="overflow:visible;fill:none;stroke:#263238;stroke-width:.75;stroke-linecap:round;stroke-linejoin:round;stroke-miterlimit:10"/><path d="M396.23 357.338c-.354-1.256-1.493-4.533-4.439-7.83" style="fill:none;stroke:#263238;stroke-width:.75;stroke-linecap:round;stroke-linejoin:round;stroke-miterlimit:10"/><defs><path id="E" d="M402.343 362.915s3.549-3.086 2.638-6.69c-.911-3.604-.662-5.349-.662-5.349s-5.636 4.499-1.976 12.039z"/></defs><use xlink:href="#E" style="overflow:visible;fill:#aeb68e"/><clipPath id="F"><use xlink:href="#E" style="overflow:visible"/></clipPath><path d="M402.343 362.915s3.549-3.086 2.638-6.69c-.911-3.604-.662-5.349-.662-5.349s-5.636 4.499-1.976 12.039z" style="opacity:.2;clip-path:url(#F)"/><path d="M402.744 361.656c.472-1.217 1.529-4.521 1.155-8.927" style="fill:none;stroke:#263238;stroke-width:.75;stroke-linecap:round;stroke-linejoin:round;stroke-miterlimit:10"/><defs><path id="G" d="M396.76 367.951s4.117-2.274 7.189-.18 4.796 2.459 4.796 2.459-6.16 3.748-11.985-2.279z"/></defs><use xlink:href="#G" style="overflow:visible;fill:#aeb68e"/><clipPath id="H"><use xlink:href="#G" style="overflow:visible"/></clipPath><path d="M396.76 367.951s4.117-2.274 7.189-.18 4.796 2.459 4.796 2.459-6.16 3.748-11.985-2.279z" style="opacity:.2;clip-path:url(#H)"/><path d="M398.081 368.008c1.304-.025 4.771.117 8.78 1.981" style="fill:none;stroke:#263238;stroke-width:.75;stroke-linecap:round;stroke-linejoin:round;stroke-miterlimit:10"/><defs><path id="I" d="M386.107 369.134s.984-4.599-1.91-6.933c-2.894-2.334-3.742-3.878-3.742-3.878s-1.803 6.981 5.652 10.811z"/></defs><use xlink:href="#I" style="overflow:visible;fill:#aeb68e"/><clipPath id="J"><use xlink:href="#I" style="overflow:visible"/></clipPath><path d="M386.107 369.134s.984-4.599-1.91-6.933c-2.894-2.334-3.742-3.878-3.742-3.878s-1.803 6.981 5.652 10.811z" style="opacity:.2;clip-path:url(#J)"/><path d="M385.671 367.886c-.354-1.256-1.493-4.532-4.439-7.83" style="fill:none;stroke:#263238;stroke-width:.75;stroke-linecap:round;stroke-linejoin:round;stroke-miterlimit:10"/><defs><path id="K" d="M392.254 382.512s.984-4.599-1.909-6.933c-2.893-2.334-3.742-3.878-3.742-3.878s-1.804 6.981 5.651 10.811z"/></defs><use xlink:href="#K" style="overflow:visible;fill:#aeb68e"/><clipPath id="L"><use xlink:href="#K" style="overflow:visible"/></clipPath><path d="M392.254 382.512s.984-4.599-1.909-6.933c-2.893-2.334-3.742-3.878-3.742-3.878s-1.804 6.981 5.651 10.811z" style="opacity:.2;clip-path:url(#L)"/><path d="M391.818 381.264c-.354-1.256-1.493-4.532-4.439-7.83" style="fill:none;stroke:#263238;stroke-width:.75;stroke-linecap:round;stroke-linejoin:round;stroke-miterlimit:10"/><defs><path id="M" d="M397.774 349.541s-.984-4.599 1.91-6.933c2.894-2.334 3.742-3.878 3.742-3.878s1.803 6.981-5.652 10.811z"/></defs><use xlink:href="#M" style="overflow:visible;fill:#aeb68e"/><clipPath id="N"><use xlink:href="#M" style="overflow:visible"/></clipPath><path d="M397.774 349.541s-.984-4.599 1.91-6.933c2.894-2.334 3.742-3.878 3.742-3.878s1.803 6.981-5.652 10.811z" style="opacity:.2;clip-path:url(#N)"/><path d="M398.21 348.293c.354-1.256 1.493-4.532 4.44-7.83" style="fill:none;stroke:#263238;stroke-width:.75;stroke-linecap:round;stroke-linejoin:round;stroke-miterlimit:10"/><defs><path id="O" d="M400.967 312.254s-.984-4.599 1.91-6.933c2.894-2.334 3.742-3.878 3.742-3.878s1.804 6.981-5.652 10.811z"/></defs><use xlink:href="#O" style="overflow:visible;fill:#aeb68e"/><clipPath id="P"><use xlink:href="#O" style="overflow:visible"/></clipPath><path d="M400.967 312.254s-.984-4.599 1.91-6.933c2.894-2.334 3.742-3.878 3.742-3.878s1.804 6.981-5.652 10.811z" style="opacity:.2;clip-path:url(#P)"/><path d="M401.404 311.006c.354-1.256 1.493-4.533 4.44-7.83" style="fill:none;stroke:#263238;stroke-width:.75;stroke-linecap:round;stroke-linejoin:round;stroke-miterlimit:10"/><defs><path id="Q" d="M401.02 319.47s2.348-4.075 6.06-3.872c3.712.203 5.376-.376 5.376-.376s-3.333 6.394-11.436 4.248z"/></defs><use xlink:href="#Q" style="overflow:visible;fill:#aeb68e"/><clipPath id="R"><use xlink:href="#Q" style="overflow:visible"/></clipPath><path d="M401.02 319.47s2.348-4.075 6.06-3.872c3.712.203 5.376-.376 5.376-.376s-3.333 6.394-11.436 4.248z" style="opacity:.2;clip-path:url(#R)"/><path d="M402.18 318.835c1.104-.696 4.143-2.367 8.54-2.845" style="fill:none;stroke:#263238;stroke-width:.75;stroke-linecap:round;stroke-linejoin:round;stroke-miterlimit:10"/><path d="M389.951 390.914s6.272-16.179 7.527-41.603c1.254-25.424 6.272-60.497 6.272-60.497" style="fill:none;stroke:#263238;stroke-linecap:round;stroke-linejoin:round;stroke-miterlimit:10"/><path d="M418.386 306.848s-13.696 3.027-18.765 15.887M380.752 322.735s14.991 2.581 17.322 17.129M418.386 358.957s-15.979-2.72-23.461 12.676M393.826 377.106s-8.474-11.446-18.928-14.561" style="fill:none;stroke:#263238;stroke-width:.75;stroke-linecap:round;stroke-linejoin:round;stroke-miterlimit:10"/><path d="M411.74 303.956c.381 1.422 2.888 6.168 4.31 5.787 1.422-.381 1.22-5.745.839-7.167a2.666 2.666 0 0 0-5.149 1.38z" style="fill:#fff;stroke:#263238;stroke-width:.75;stroke-linecap:round;stroke-linejoin:round;stroke-miterlimit:10"/><path d="M419.442 312.103c-.381-1.422-2.888-6.168-4.31-5.787-1.422.381-1.22 5.745-.839 7.167a2.666 2.666 0 0 0 5.149-1.38z" style="fill:#fff;stroke:#263238;stroke-width:.75;stroke-linecap:round;stroke-linejoin:round;stroke-miterlimit:10"/><path d="M411.517 311.881c1.422-.381 6.168-2.888 5.787-4.31-.381-1.422-5.745-1.22-7.167-.839a2.666 2.666 0 0 0 1.38 5.149z" style="fill:#fff;stroke:#263238;stroke-width:.75;stroke-linecap:round;stroke-linejoin:round;stroke-miterlimit:10"/><path d="M419.664 304.179c-1.422.381-6.168 2.888-5.787 4.31.381 1.422 5.745 1.22 7.167.839a2.666 2.666 0 0 0-1.38-5.149z" style="fill:#fff;stroke:#263238;stroke-width:.75;stroke-linecap:round;stroke-linejoin:round;stroke-miterlimit:10"/><path d="M412.541 308.847a3.156 3.156 0 1 0 6.098-1.634 3.156 3.156 0 1 0-6.098 1.634z" style="fill:#aeb68e"/><path d="M389.974 327.227c.381 1.422 2.888 6.168 4.31 5.787 1.422-.381 1.22-5.745.839-7.167a2.666 2.666 0 0 0-5.149 1.38z" style="fill:#fff;stroke:#263238;stroke-width:.75;stroke-linecap:round;stroke-linejoin:round;stroke-miterlimit:10"/><path d="M397.677 335.373c-.381-1.422-2.888-6.168-4.31-5.787-1.422.381-1.22 5.745-.839 7.167a2.666 2.666 0 0 0 5.149-1.38z" style="fill:#fff;stroke:#263238;stroke-width:.75;stroke-linecap:round;stroke-linejoin:round;stroke-miterlimit:10"/><path d="M389.752 335.151c1.422-.381 6.168-2.888 5.787-4.31-.381-1.422-5.745-1.22-7.167-.839a2.666 2.666 0 0 0 1.38 5.149z" style="fill:#fff;stroke:#263238;stroke-width:.75;stroke-linecap:round;stroke-linejoin:round;stroke-miterlimit:10"/><path d="M397.899 327.449c-1.422.381-6.168 2.888-5.787 4.31.381 1.422 5.745 1.22 7.167.839a2.666 2.666 0 0 0-1.38-5.149z" style="fill:#fff;stroke:#263238;stroke-width:.75;stroke-linecap:round;stroke-linejoin:round;stroke-miterlimit:10"/><path d="M390.776 332.117a3.156 3.156 0 1 0 6.098-1.634 3.156 3.156 0 1 0-6.098 1.634z" style="fill:#aeb68e"/><path d="M371.047 358.472c.381 1.422 2.888 6.168 4.31 5.787 1.422-.381 1.22-5.745.839-7.167a2.666 2.666 0 0 0-5.149 1.38z" style="fill:#fff;stroke:#263238;stroke-width:.75;stroke-linecap:round;stroke-linejoin:round;stroke-miterlimit:10"/><path d="M378.749 366.619c-.381-1.422-2.888-6.168-4.31-5.787-1.422.381-1.22 5.745-.839 7.167a2.666 2.666 0 0 0 5.149-1.38z" style="fill:#fff;stroke:#263238;stroke-width:.75;stroke-linecap:round;stroke-linejoin:round;stroke-miterlimit:10"/><path d="M370.824 366.396c1.422-.381 6.168-2.888 5.787-4.31-.381-1.422-5.745-1.22-7.167-.839a2.666 2.666 0 0 0 1.38 5.149z" style="fill:#fff;stroke:#263238;stroke-width:.75;stroke-linecap:round;stroke-linejoin:round;stroke-miterlimit:10"/><path d="M378.971 358.694c-1.422.381-6.168 2.888-5.787 4.31.381 1.422 5.745 1.22 7.167.839a2.666 2.666 0 0 0-1.38-5.149z" style="fill:#fff;stroke:#263238;stroke-width:.75;stroke-linecap:round;stroke-linejoin:round;stroke-miterlimit:10"/><path d="M371.848 363.362a3.156 3.156 0 1 0 6.098-1.634 3.156 3.156 0 1 0-6.098 1.634z" style="fill:#aeb68e"/><path d="M402.804 283.027c.381 1.422 2.888 6.168 4.31 5.787 1.422-.381 1.22-5.745.839-7.167a2.666 2.666 0 0 0-5.149 1.38z" style="fill:#fff;stroke:#263238;stroke-width:.75;stroke-linecap:round;stroke-linejoin:round;stroke-miterlimit:10"/><path d="M410.507 291.174c-.381-1.422-2.888-6.168-4.31-5.787-1.422.381-1.22 5.745-.839 7.167a2.666 2.666 0 0 0 5.149-1.38z" style="fill:#fff;stroke:#263238;stroke-width:.75;stroke-linecap:round;stroke-linejoin:round;stroke-miterlimit:10"/><path d="M402.582 290.951c1.422-.381 6.168-2.888 5.787-4.31-.381-1.422-5.745-1.22-7.167-.839a2.666 2.666 0 0 0 1.38 5.149z" style="fill:#fff;stroke:#263238;stroke-width:.75;stroke-linecap:round;stroke-linejoin:round;stroke-miterlimit:10"/><path d="M410.729 283.249c-1.422.381-6.168 2.888-5.787 4.31.381 1.422 5.745 1.22 7.167.839a2.666 2.666 0 0 0-1.38-5.149z" style="fill:#fff;stroke:#263238;stroke-width:.75;stroke-linecap:round;stroke-linejoin:round;stroke-miterlimit:10"/><path d="M403.606 287.917a3.156 3.156 0 1 0 6.098-1.634 3.156 3.156 0 1 0-6.098 1.634z" style="fill:#aeb68e"/><path d="M393.917 297.319c.381 1.422 2.888 6.168 4.31 5.787 1.422-.381 1.22-5.745.839-7.167a2.666 2.666 0 0 0-5.149 1.38z" style="fill:#fff;stroke:#263238;stroke-width:.75;stroke-linecap:round;stroke-linejoin:round;stroke-miterlimit:10"/><path d="M401.619 305.466c-.381-1.422-2.888-6.168-4.31-5.787-1.422.381-1.22 5.745-.839 7.167a2.666 2.666 0 0 0 5.149-1.38z" style="fill:#fff;stroke:#263238;stroke-width:.75;stroke-linecap:round;stroke-linejoin:round;stroke-miterlimit:10"/><path d="M393.695 305.244c1.422-.381 6.168-2.888 5.787-4.31-.381-1.422-5.745-1.22-7.167-.839a2.666 2.666 0 0 0 1.38 5.149z" style="fill:#fff;stroke:#263238;stroke-width:.75;stroke-linecap:round;stroke-linejoin:round;stroke-miterlimit:10"/><path d="M401.841 297.542c-1.422.381-6.168 2.888-5.787 4.31.381 1.422 5.745 1.22 7.167.839a2.666 2.666 0 0 0-1.38-5.149z" style="fill:#fff;stroke:#263238;stroke-width:.75;stroke-linecap:round;stroke-linejoin:round;stroke-miterlimit:10"/><path d="M394.719 302.21a3.156 3.156 0 1 0 6.098-1.634 3.157 3.157 0 1 0-6.098 1.634z" style="fill:#aeb68e"/><path d="M414.535 354.4c.381 1.422 2.888 6.168 4.31 5.787s1.22-5.745.839-7.167a2.666 2.666 0 0 0-5.149 1.38z" style="fill:#fff;stroke:#263238;stroke-width:.75;stroke-linecap:round;stroke-linejoin:round;stroke-miterlimit:10"/><path d="M422.237 362.547c-.381-1.422-2.888-6.168-4.31-5.787-1.422.381-1.22 5.745-.839 7.167a2.666 2.666 0 0 0 5.149-1.38z" style="fill:#fff;stroke:#263238;stroke-width:.75;stroke-linecap:round;stroke-linejoin:round;stroke-miterlimit:10"/><path d="M414.313 362.325c1.422-.381 6.168-2.888 5.787-4.31-.381-1.422-5.745-1.22-7.167-.839a2.666 2.666 0 0 0 1.38 5.149z" style="fill:#fff;stroke:#263238;stroke-width:.75;stroke-linecap:round;stroke-linejoin:round;stroke-miterlimit:10"/><path d="M422.459 354.622c-1.422.381-6.168 2.888-5.787 4.31.381 1.422 5.745 1.22 7.167.839a2.666 2.666 0 0 0-1.38-5.149z" style="fill:#fff;stroke:#263238;stroke-width:.75;stroke-linecap:round;stroke-linejoin:round;stroke-miterlimit:10"/><path d="M415.337 359.291a3.156 3.156 0 1 0 6.098-1.635 3.156 3.156 0 1 0-6.098 1.635z" style="fill:#aeb68e"/><path d="M376.568 317.927c.381 1.422 2.888 6.168 4.31 5.787 1.422-.381 1.22-5.745.839-7.167a2.666 2.666 0 0 0-5.149 1.38z" style="fill:#fff;stroke:#263238;stroke-width:.75;stroke-linecap:round;stroke-linejoin:round;stroke-miterlimit:10"/><path d="M384.27 326.073c-.381-1.422-2.888-6.168-4.31-5.787-1.422.381-1.22 5.745-.839 7.167a2.666 2.666 0 0 0 5.149-1.38z" style="fill:#fff;stroke:#263238;stroke-width:.75;stroke-linecap:round;stroke-linejoin:round;stroke-miterlimit:10"/><path d="M376.346 325.851c1.422-.381 6.168-2.888 5.787-4.31-.381-1.422-5.745-1.22-7.167-.839a2.666 2.666 0 0 0 1.38 5.149z" style="fill:#fff;stroke:#263238;stroke-width:.75;stroke-linecap:round;stroke-linejoin:round;stroke-miterlimit:10"/><path d="M384.492 318.149c-1.422.381-6.168 2.888-5.787 4.31.381 1.422 5.745 1.22 7.167.839a2.666 2.666 0 0 0-1.38-5.149z" style="fill:#fff;stroke:#263238;stroke-width:.75;stroke-linecap:round;stroke-linejoin:round;stroke-miterlimit:10"/><path d="M377.37 322.817a3.156 3.156 0 1 0 6.098-1.634 3.156 3.156 0 1 0-6.098 1.634z" style="fill:#aeb68e"/><defs><path id="S" d="M376.342 357.597s-2.229-4.142-.102-7.19c2.127-3.049 2.511-4.769 2.511-4.769s3.681 6.201-2.409 11.959z"/></defs><use xlink:href="#S" style="overflow:visible;fill:#aeb68e"/><clipPath id="T"><use xlink:href="#S" style="overflow:visible"/></clipPath><path d="M376.342 357.597s-2.229-4.142-.102-7.19c2.127-3.049 2.511-4.769 2.511-4.769s3.681 6.201-2.409 11.959z" style="opacity:.2;clip-path:url(#T)"/><path d="M376.413 356.277c-.011-1.305.169-4.769 2.077-8.758" style="fill:none;stroke:#263238;stroke-width:.75;stroke-linecap:round;stroke-linejoin:round;stroke-miterlimit:10"/><defs><path id="U" d="M365.118 330.444s-2.229-4.142-.102-7.19c2.127-3.049 2.511-4.769 2.511-4.769s3.681 6.2-2.409 11.959z"/></defs><use xlink:href="#U" style="overflow:visible;fill:#aeb68e"/><clipPath id="V"><use xlink:href="#U" style="overflow:visible"/></clipPath><path d="M365.118 330.444s-2.229-4.142-.102-7.19c2.127-3.049 2.511-4.769 2.511-4.769s3.681 6.2-2.409 11.959z" style="opacity:.2;clip-path:url(#V)"/><path d="M365.189 329.124c-.011-1.305.169-4.769 2.077-8.758" style="fill:none;stroke:#263238;stroke-width:.75;stroke-linecap:round;stroke-linejoin:round;stroke-miterlimit:10"/><defs><path id="W" d="M387.983 389.324s-2.229-4.142-.102-7.19c2.127-3.049 2.511-4.769 2.511-4.769s3.681 6.2-2.409 11.959z"/></defs><use xlink:href="#W" style="overflow:visible;fill:#aeb68e"/><clipPath id="X"><use xlink:href="#W" style="overflow:visible"/></clipPath><path d="M387.983 389.324s-2.229-4.142-.102-7.19c2.127-3.049 2.511-4.769 2.511-4.769s3.681 6.2-2.409 11.959z" style="opacity:.2;clip-path:url(#X)"/><path d="M388.054 388.004c-.011-1.305.169-4.769 2.077-8.758" style="fill:none;stroke:#263238;stroke-width:.75;stroke-linecap:round;stroke-linejoin:round;stroke-miterlimit:10"/><defs><path id="Y" d="M384.395 380.947s-.339-4.691-3.769-6.124c-3.43-1.433-4.676-2.679-4.676-2.679s.217 7.207 8.445 8.803z"/></defs><use xlink:href="#Y" style="overflow:visible;fill:#aeb68e"/><clipPath id="Z"><use xlink:href="#Y" style="overflow:visible"/></clipPath><path d="M384.395 380.947s-.339-4.691-3.769-6.124c-3.43-1.433-4.676-2.679-4.676-2.679s.217 7.207 8.445 8.803z" style="opacity:.2;clip-path:url(#Z)"/><use xlink:href="#Y" style="overflow:visible;fill:none;stroke:#263238;stroke-width:.75;stroke-linecap:round;stroke-linejoin:round;stroke-miterlimit:10"/><path d="M383.627 379.871c-.69-1.107-2.699-3.935-6.449-6.28" style="fill:none;stroke:#263238;stroke-width:.75;stroke-linecap:round;stroke-linejoin:round;stroke-miterlimit:10"/><defs><path id="aa" d="M370.92 346.034s-.339-4.691-3.769-6.124c-3.43-1.433-4.676-2.679-4.676-2.679s.217 7.207 8.445 8.803z"/></defs><use xlink:href="#aa" style="overflow:visible;fill:#aeb68e"/><clipPath id="ab"><use xlink:href="#aa" style="overflow:visible"/></clipPath><path d="M370.92 346.034s-.339-4.691-3.769-6.124c-3.43-1.433-4.676-2.679-4.676-2.679s.217 7.207 8.445 8.803z" style="opacity:.2;clip-path:url(#ab)"/><path d="M370.152 344.957c-.69-1.107-2.699-3.935-6.449-6.28" style="fill:none;stroke:#263238;stroke-width:.75;stroke-linecap:round;stroke-linejoin:round;stroke-miterlimit:10"/><defs><path id="ac" d="M372.883 352.978s-3.392-3.258-6.9-2.027c-3.507 1.231-5.267 1.14-5.267 1.14s4.986 5.21 12.167.887z"/></defs><use xlink:href="#ac" style="overflow:visible;fill:#aeb68e"/><clipPath id="ad"><use xlink:href="#ac" style="overflow:visible"/></clipPath><path d="M372.883 352.978s-3.392-3.258-6.9-2.027c-3.507 1.231-5.267 1.14-5.267 1.14s4.986 5.21 12.167.887z" style="opacity:.2;clip-path:url(#ad)"/><path d="M371.592 352.693c-1.254-.361-4.639-1.117-8.994-.348" style="fill:none;stroke:#263238;stroke-width:.75;stroke-linecap:round;stroke-linejoin:round;stroke-miterlimit:10"/><path d="M390.111 394.611a174.885 174.885 0 0 1-5.496-13.966c-8.302-24.063-22.911-56.341-22.911-56.341" style="fill:none;stroke:#263238;stroke-linecap:round;stroke-linejoin:round;stroke-miterlimit:10"/><path d="M352.685 345.706s13.996-.917 22.454 10.017M393.258 350.456s-13.675 6.664-11.852 21.284" style="fill:none;stroke:#263238;stroke-width:.75;stroke-linecap:round;stroke-linejoin:round;stroke-miterlimit:10"/><path d="M358.26 341.074c.031 1.472-1.052 6.729-2.523 6.76-1.472.031-2.775-5.176-2.807-6.648a2.665 2.665 0 1 1 5.33-.112z" style="fill:#fff;stroke:#263238;stroke-width:.75;stroke-linecap:round;stroke-linejoin:round;stroke-miterlimit:10"/><path d="M353.138 351.047c-.031-1.472 1.052-6.729 2.523-6.76 1.472-.031 2.776 5.176 2.807 6.648a2.665 2.665 0 1 1-5.33.112z" style="fill:#fff;stroke:#263238;stroke-width:.75;stroke-linecap:round;stroke-linejoin:round;stroke-miterlimit:10"/><path d="M360.685 348.621c-1.472.031-6.729-1.052-6.76-2.523-.031-1.472 5.176-2.776 6.648-2.807a2.665 2.665 0 1 1 .112 5.33z" style="fill:#fff;stroke:#263238;stroke-width:.75;stroke-linecap:round;stroke-linejoin:round;stroke-miterlimit:10"/><path d="M350.712 343.499c1.472-.031 6.729 1.052 6.76 2.523.031 1.472-5.176 2.776-6.648 2.807a2.665 2.665 0 1 1-.112-5.33z" style="fill:#fff;stroke:#263238;stroke-width:.75;stroke-linecap:round;stroke-linejoin:round;stroke-miterlimit:10"/><path d="M358.855 345.994a3.157 3.157 0 1 1-6.312.134 3.157 3.157 0 0 1 6.312-.134z" style="fill:#aeb68e"/><path d="M360.997 318.482c.031 1.472-1.052 6.729-2.523 6.76-1.472.031-2.776-5.176-2.807-6.648a2.665 2.665 0 1 1 5.33-.112z" style="fill:#fff;stroke:#263238;stroke-width:.75;stroke-linecap:round;stroke-linejoin:round;stroke-miterlimit:10"/><path d="M355.875 328.455c-.031-1.472 1.052-6.729 2.523-6.76 1.472-.031 2.776 5.176 2.807 6.648a2.665 2.665 0 1 1-5.33.112z" style="fill:#fff;stroke:#263238;stroke-width:.75;stroke-linecap:round;stroke-linejoin:round;stroke-miterlimit:10"/><path d="M363.423 326.03c-1.472.031-6.729-1.052-6.76-2.523-.031-1.472 5.176-2.776 6.648-2.807a2.665 2.665 0 1 1 .112 5.33z" style="fill:#fff;stroke:#263238;stroke-width:.75;stroke-linecap:round;stroke-linejoin:round;stroke-miterlimit:10"/><path d="M353.45 320.908c1.472-.031 6.729 1.052 6.76 2.523.031 1.472-5.176 2.776-6.648 2.807a2.665 2.665 0 1 1-.112-5.33z" style="fill:#fff;stroke:#263238;stroke-width:.75;stroke-linecap:round;stroke-linejoin:round;stroke-miterlimit:10"/><path d="M361.593 323.402a3.158 3.158 0 1 1-6.314.132 3.158 3.158 0 0 1 6.314-.132z" style="fill:#aeb68e"/><path d="M395.933 344.671c.031 1.472-1.052 6.729-2.523 6.76-1.472.031-2.776-5.176-2.807-6.648a2.665 2.665 0 1 1 5.33-.112z" style="fill:#fff;stroke:#263238;stroke-width:.75;stroke-linecap:round;stroke-linejoin:round;stroke-miterlimit:10"/><path d="M390.811 354.643c-.031-1.472 1.052-6.729 2.523-6.76 1.472-.031 2.776 5.176 2.807 6.648a2.665 2.665 0 1 1-5.33.112z" style="fill:#fff;stroke:#263238;stroke-width:.75;stroke-linecap:round;stroke-linejoin:round;stroke-miterlimit:10"/><path d="M398.358 352.218c-1.472.031-6.729-1.052-6.76-2.523-.031-1.472 5.176-2.776 6.648-2.807a2.665 2.665 0 1 1 .112 5.33z" style="fill:#fff;stroke:#263238;stroke-width:.75;stroke-linecap:round;stroke-linejoin:round;stroke-miterlimit:10"/><path d="M388.386 347.096c1.472-.031 6.729 1.052 6.76 2.524s-5.176 2.775-6.648 2.806a2.665 2.665 0 1 1-.112-5.33z" style="fill:#fff;stroke:#263238;stroke-width:.75;stroke-linecap:round;stroke-linejoin:round;stroke-miterlimit:10"/><path d="M396.528 349.59a3.157 3.157 0 1 1-6.312.134 3.157 3.157 0 0 1 6.312-.134z" style="fill:#aeb68e"/><path d="M378.947 423.433h18.305a7.736 7.736 0 0 0 7.707-7.063l2.821-32.298h-39.361l2.821 32.298a7.736 7.736 0 0 0 7.707 7.063z" style="fill:#263238;stroke:#263238;stroke-linecap:round;stroke-linejoin:round;stroke-miterlimit:10"/><defs><path id="ae" d="M269.508 231.829s-2.329-6.022-7.407-6.525c-5.078-.504-7.214-1.639-7.214-1.639s3.178 9.374 14.621 8.164z"/></defs><use xlink:href="#ae" style="overflow:visible;fill:#aeb68e"/><clipPath id="af"><use xlink:href="#ae" style="overflow:visible"/></clipPath><path d="M269.508 231.829s-2.329-6.022-7.407-6.525c-5.078-.504-7.214-1.639-7.214-1.639s3.178 9.374 14.621 8.164z" style="opacity:.2;clip-path:url(#af)"/><path d="M268.068 230.724c-1.351-1.176-5.124-4.082-10.988-5.653" style="fill:none;stroke:#263238;stroke-width:.75;stroke-linecap:round;stroke-linejoin:round;stroke-miterlimit:10"/><defs><path id="ag" d="M270.114 237.825s-2.113-9.876 4.1-14.887c6.213-5.011 8.035-8.327 8.035-8.327s3.874 14.991-12.135 23.214z"/></defs><use xlink:href="#ag" style="overflow:visible;fill:#aeb68e"/><clipPath id="ah"><use xlink:href="#ag" style="overflow:visible"/></clipPath><path d="M270.114 237.825s-2.113-9.876 4.1-14.887c6.213-5.011 8.035-8.327 8.035-8.327s3.874 14.991-12.135 23.214z" style="opacity:.2;clip-path:url(#ah)"/><path d="M271.051 235.146c.759-2.697 3.206-9.732 9.533-16.813" style="fill:none;stroke:#263238;stroke-width:.75;stroke-linecap:round;stroke-linejoin:round;stroke-miterlimit:10"/><defs><path id="ai" d="M266.496 244.56s-4.581-9-12.563-8.978c-7.982.022-11.486-1.405-11.486-1.405s6.436 14.082 24.049 10.383z"/></defs><use xlink:href="#ai" style="overflow:visible;fill:#aeb68e"/><clipPath id="aj"><use xlink:href="#ai" style="overflow:visible"/></clipPath><path d="M266.496 244.56s-4.581-9-12.563-8.978c-7.982.022-11.486-1.405-11.486-1.405s6.436 14.082 24.049 10.383z" style="opacity:.2;clip-path:url(#aj)"/><path d="M264.081 243.069c-2.289-1.616-8.621-5.538-17.995-7.052" style="fill:none;stroke:#263238;stroke-width:.75;stroke-linecap:round;stroke-linejoin:round;stroke-miterlimit:10"/><defs><path id="ak" d="M275.345 245.283s4.581-9 12.563-8.978c7.982.022 11.486-1.405 11.486-1.405s-6.436 14.082-24.049 10.383z"/></defs><use xlink:href="#ak" style="overflow:visible;fill:#aeb68e"/><clipPath id="al"><use xlink:href="#ak" style="overflow:visible"/></clipPath><path d="M275.345 245.283s4.581-9 12.563-8.978c7.982.022 11.486-1.405 11.486-1.405s-6.436 14.082-24.049 10.383z" style="opacity:.2;clip-path:url(#al)"/><path d="M277.76 243.793c2.289-1.616 8.621-5.538 17.995-7.052M266.453 217.653s3.86 14.829 6.126 38.159M253.906 232.711s11.426 1.637 16.583 19.635M284.685 227.01s-9.905 7.339-10.739 25.337" style="fill:none;stroke:#263238;stroke-width:.75;stroke-linecap:round;stroke-linejoin:round;stroke-miterlimit:10"/><path d="M281.727 282.964h-15.562a6.576 6.576 0 0 1-6.552-6.005l-2.398-27.459h33.464l-2.398 27.459a6.58 6.58 0 0 1-6.554 6.005z" style="fill:#fff;stroke:#263238;stroke-linecap:round;stroke-linejoin:round;stroke-miterlimit:10"/><path d="M282.001 253.224h3.672M261.772 253.224h17.541" style="fill:none;stroke:#263238;stroke-linecap:round;stroke-linejoin:round;stroke-miterlimit:10"/><path d="M286.952 219.92c0 1.252-1.015 5.701-2.266 5.701-1.252 0-2.266-4.449-2.266-5.701a2.266 2.266 0 1 1 4.532 0zM282.419 234.1c0-1.252 1.015-5.701 2.266-5.701 1.252 0 2.266 4.449 2.266 5.701a2.267 2.267 0 0 1-4.532 0zM291.775 229.276c-1.252 0-5.701-1.015-5.701-2.266 0-1.252 4.449-2.266 5.701-2.266a2.266 2.266 0 1 1 0 4.532zM277.595 224.743c1.252 0 5.701 1.015 5.701 2.266 0 1.251-4.449 2.266-5.701 2.266a2.266 2.266 0 1 1 0-4.532z" style="fill:#fff;stroke:#263238;stroke-width:.75;stroke-linecap:round;stroke-linejoin:round;stroke-miterlimit:10"/><path d="M291.301 223.599c-.885.885-4.749 3.314-5.634 2.429s1.544-4.749 2.429-5.634a2.266 2.266 0 0 1 3.205 3.205zM278.069 230.421c.885-.885 4.749-3.314 5.634-2.429.885.885-1.544 4.749-2.429 5.634a2.266 2.266 0 0 1-3.205-3.205zM288.096 233.626c-.885-.885-3.314-4.749-2.429-5.634s4.749 1.544 5.634 2.429a2.266 2.266 0 0 1-3.205 3.205zM281.274 220.394c.885.885 3.314 4.749 2.429 5.634-.885.885-4.749-1.544-5.634-2.429a2.266 2.266 0 0 1 3.205-3.205z" style="fill:#fff;stroke:#263238;stroke-width:.75;stroke-linecap:round;stroke-linejoin:round;stroke-miterlimit:10"/><path d="M287.369 227.01a2.684 2.684 0 1 1-5.369 0 2.684 2.684 0 0 1 5.369 0z" style="fill:#aeb68e;stroke:#263238;stroke-width:.75;stroke-linecap:round;stroke-linejoin:round;stroke-miterlimit:10"/><path d="M268.719 206.457c0 1.252-1.015 5.701-2.266 5.701-1.252 0-2.266-4.449-2.266-5.701a2.267 2.267 0 0 1 4.532 0zM264.186 220.637c0-1.252 1.015-5.701 2.266-5.701 1.252 0 2.266 4.449 2.266 5.701a2.266 2.266 0 1 1-4.532 0zM273.543 215.813c-1.252 0-5.701-1.015-5.701-2.266 0-1.252 4.449-2.266 5.701-2.266a2.266 2.266 0 1 1 0 4.532zM259.363 211.281c1.252 0 5.701 1.015 5.701 2.266 0 1.252-4.449 2.266-5.701 2.266a2.267 2.267 0 0 1 0-4.532z" style="fill:#fff;stroke:#263238;stroke-width:.75;stroke-linecap:round;stroke-linejoin:round;stroke-miterlimit:10"/><path d="M273.069 210.136c-.885.885-4.749 3.314-5.634 2.429-.885-.885 1.544-4.749 2.429-5.634a2.266 2.266 0 0 1 3.205 3.205zM259.837 216.958c.885-.885 4.749-3.314 5.634-2.429.885.885-1.544 4.749-2.429 5.634a2.266 2.266 0 0 1-3.205-3.205zM269.864 220.163c-.885-.885-3.314-4.749-2.429-5.634.885-.885 4.749 1.544 5.634 2.429a2.266 2.266 0 0 1-3.205 3.205zM263.042 206.931c.885.885 3.314 4.749 2.429 5.634-.885.885-4.749-1.544-5.634-2.429a2.266 2.266 0 0 1 3.205-3.205z" style="fill:#fff;stroke:#263238;stroke-width:.75;stroke-linecap:round;stroke-linejoin:round;stroke-miterlimit:10"/><path d="M269.137 213.547a2.684 2.684 0 1 1-5.369 0 2.684 2.684 0 0 1 5.369 0z" style="fill:#aeb68e;stroke:#263238;stroke-width:.75;stroke-linecap:round;stroke-linejoin:round;stroke-miterlimit:10"/><path d="M255.527 228.632c0 .896-.726 4.08-1.622 4.08-.896 0-1.622-3.184-1.622-4.08a1.622 1.622 0 1 1 3.244 0zM252.284 238.779c0-.896.726-4.08 1.622-4.08.896 0 1.622 3.184 1.622 4.08a1.622 1.622 0 1 1-3.244 0zM258.98 235.327c-.896 0-4.08-.726-4.08-1.622 0-.896 3.184-1.622 4.08-1.622a1.622 1.622 0 1 1 0 3.244zM248.832 232.084c.896 0 4.08.726 4.08 1.622 0 .896-3.184 1.622-4.08 1.622a1.622 1.622 0 1 1 0-3.244z" style="fill:#fff;stroke:#263238;stroke-width:.75;stroke-linecap:round;stroke-linejoin:round;stroke-miterlimit:10"/><path d="M258.641 231.264c-.634.633-3.399 2.371-4.032 1.738s1.105-3.398 1.738-4.032a1.623 1.623 0 0 1 2.294 2.294zM249.171 236.146c.633-.633 3.398-2.372 4.032-1.738.633.633-1.105 3.398-1.738 4.032a1.623 1.623 0 0 1-2.294-2.294zM256.347 238.44c-.633-.633-2.371-3.398-1.738-4.032.633-.633 3.398 1.105 4.032 1.738a1.623 1.623 0 0 1-2.294 2.294zM251.465 228.971c.633.633 2.371 3.398 1.738 4.032-.633.633-3.398-1.105-4.032-1.738a1.623 1.623 0 0 1 2.294-2.294z" style="fill:#fff;stroke:#263238;stroke-width:.75;stroke-linecap:round;stroke-linejoin:round;stroke-miterlimit:10"/><path d="M255.826 233.706a1.92 1.92 0 1 1-3.842 0 1.92 1.92 0 0 1 3.842 0z" style="fill:#aeb68e;stroke:#263238;stroke-width:.75;stroke-linecap:round;stroke-linejoin:round;stroke-miterlimit:10"/><path d="M243.234 345.59s26.997.156 30.064 55.365" style="fill:none;stroke:#263238;stroke-linecap:round;stroke-linejoin:round;stroke-miterlimit:10"/><path d="M301.354 370.897s-32.35-32.512-33.577 42.02" style="fill:none;stroke:#263238;stroke-linecap:round;stroke-linejoin:round;stroke-miterlimit:10"/><defs><path id="am" d="M322.299 379.07a1.663 1.663 0 0 1-.906 2.083c-7.848 3.399-45.753 18.952-44.111 1.481 1.363-14.502 11.478-15.771 16.561-15.471 1.051.062 1.712-1.119 1.112-1.983-3.339-4.814-9.284-15.572 1.241-19.195 12.125-4.174 23.6 26.011 26.103 33.085z"/></defs><use xlink:href="#am" style="overflow:visible;fill:#aeb68e"/><clipPath id="an"><use xlink:href="#am" style="overflow:visible"/></clipPath><path d="M322.299 379.07a1.663 1.663 0 0 1-.906 2.083c-7.848 3.399-45.753 18.952-44.111 1.481 1.363-14.502 11.478-15.771 16.561-15.471 1.051.062 1.712-1.119 1.112-1.983-3.339-4.814-9.284-15.572 1.241-19.195 12.125-4.174 23.6 26.011 26.103 33.085z" style="opacity:.2;clip-path:url(#an)"/><path d="M295.146 372.003c-3.193 2.177-13.064 8.577-10.296 10.1 2.768 1.523 11.466-7.505 13.93-7.108 2.465.397-3.457 9.968-.221 9.363 3.237-.604 3.636-7.568 5.343-8.722 1.707-1.154 11.384 2.924 12.352 1.181.968-1.743-9.196-4.459-8.564-6.132.632-1.673 5.5-6.891 3.471-8.22-2.028-1.329-5.651 4.474-6.945 4.321-1.294-.153.507-13.699-4.293-11.858-4.657 1.788 6.384 9.466-4.777 17.075z" style="opacity:.5;fill:#fff"/><path d="M279.628 315.382s-24.426 13.189-14.611 83.733" style="fill:none;stroke:#263238;stroke-linecap:round;stroke-linejoin:round;stroke-miterlimit:10"/><path d="M294.726 293.974a1.998 1.998 0 0 1 2.213 1.595c1.984 10.078 10.552 58.538-9.533 52.147-16.671-5.305-15.576-17.499-13.925-23.389.341-1.217-.876-2.294-2.044-1.812-6.502 2.689-20.648 6.917-22.21-6.361-1.8-15.295 36.558-21.049 45.499-22.18z" style="fill:#aeb68e"/><path d="M271.181 320.129c-4.056.386-16.641-.894-14.915-6.568 1.726-5.674 15.857 2.147 18.146.613 2.289-1.534-3.554-9.832.134-11.434 3.688-1.602 4.455 7.672 5.835 7.559 1.38-.113 7.975-11.921 10.735-10.388 2.761 1.534-6.748 10.888-7.361 13.649-.613 2.76 10.888.307 11.655 2.914.767 2.607-12.115.423-12.729 2.282-.613 1.859 11.809 12.287 8.588 16.735-3.218 4.447-10.492-16.277-20.088-15.362z" style="opacity:.7;fill:#fff"/><path d="M222.384 333.387a1.664 1.664 0 0 0-1.072 2.002c2.201 8.264 13.513 47.644 26.199 35.519 10.53-10.064 5.251-18.785 1.863-22.587-.7-.786-.184-2.037.866-2.102 5.847-.367 17.973-2.377 14.286-12.879-4.246-12.099-35.041-2.376-42.142.047z" style="fill:#aeb68e"/><path d="M244.77 350.302c.273 3.855 1.376 15.568-1.536 14.341-2.912-1.227-1.225-13.649-3.065-15.336-1.84-1.687-5.674 8.895-7.208 5.981-1.534-2.914 3.681-7.546 3.527-9.601-.153-2.054-9.355-7.115-8.588-8.956s9.201 4.447 10.121 2.914c.92-1.534 1.994-8.588 4.294-7.821 2.3.767-.004 7.208.918 8.128.922.92 10.431-8.895 11.964-3.987 1.489 4.761-11.382.863-10.427 14.337z" style="opacity:.5;fill:#fff"/><path d="M300.434 336.004s-20.342 8.208-29.26 63.11" style="fill:none;stroke:#263238;stroke-linecap:round;stroke-linejoin:round;stroke-miterlimit:10"/><path d="M307.62 322.448a1.43 1.43 0 0 1 1.583 1.141c1.419 7.21 7.549 41.876-6.819 37.304-11.926-3.795-11.142-12.519-9.962-16.732.244-.871-.626-1.642-1.462-1.296-4.651 1.923-14.771 4.948-15.888-4.551-1.288-10.941 26.152-15.057 32.548-15.866z" style="fill:#aeb68e"/><path d="M294.599 338.824c-2.964.436-12.568 2.014-11.955-.832.614-2.846 12.882-.822 13.496-1.988.613-1.166-5.981-4.19-4.908-5.898 1.074-1.708 6.134 4.577 7.208 3.888 1.074-.689 4.601-9.086 6.595-7.188 1.993 1.898-4.754 7.296-4.601 9.198.153 1.902 6.594 1.44 7.361 3.511.767 2.071-7.515-1.921-7.975-.692-.46 1.229 8.281 11.504 5.521 13.038-2.76 1.534-8.202-13.41-10.742-13.037z" style="opacity:.2"/><defs><path id="ao" d="M276.536 432.173h-13.333a9.748 9.748 0 0 1-9.735-9.244l-1.362-26.282h35.526l-1.362 26.282a9.746 9.746 0 0 1-9.734 9.244z"/></defs><use xlink:href="#ao" style="overflow:visible;fill:#fff"/><use xlink:href="#ao" style="overflow:visible;fill:none;stroke:#263238;stroke-width:.75;stroke-linecap:round;stroke-linejoin:round;stroke-miterlimit:10"/><path d="M278.57 400.955h3.672M258.34 400.955h17.541" style="fill:none;stroke:#263238;stroke-linecap:round;stroke-linejoin:round;stroke-miterlimit:10"/><path d="M236.673 212.243s23.447-11.162 21.349-18.205c-2.303-7.73-8.601 7.851-11.046 7.12-5.052-1.511 17.886-23.677 14.33-30.072-2.326-4.182-8.244 15.438-11.875 13.94-4.269-1.761 12.251-26.845 5.101-29.612-6.02-2.33-6.653 27.47-10.696 26.037-2.322-.823 2.03-21.616-2.647-19.501-5.081 2.297-1.03 30.245-5.953 30.245-3.654 0 1.615-16.699-2.89-14.328-4.75 2.5-4.294 32.324 4.327 34.376z" style="fill:#aeb68e"/><path d="M237.031 209.978s10.791-5.137 9.825-8.379c-1.06-3.557-3.958 3.613-5.083 3.277-2.325-.695 8.232-10.897 6.595-13.84-1.07-1.925-3.794 7.105-5.465 6.416-1.965-.81 5.638-12.355 2.347-13.628-2.771-1.072-3.062 12.643-4.923 11.983-1.069-.379.934-9.948-1.218-8.975-2.338 1.057-.474 13.92-2.74 13.92-1.682 0 .743-7.686-1.33-6.594-2.186 1.15-1.976 14.875 1.992 15.82z" style="opacity:.2;fill:#263238"/><defs><path id="ap" d="M228.133 212.243s-23.447-11.162-21.349-18.205c2.303-7.73 8.601 7.851 11.046 7.12 5.052-1.511-17.886-23.677-14.33-30.072 2.325-4.182 8.244 15.438 11.875 13.94 4.269-1.761-12.251-26.845-5.101-29.612 6.02-2.33 6.653 27.47 10.696 26.037 2.322-.823-2.03-21.616 2.647-19.501 5.081 2.297 1.03 30.245 5.953 30.245 3.654 0-1.615-16.699 2.89-14.328 4.751 2.5 4.295 32.324-4.327 34.376z"/></defs><use xlink:href="#ap" style="overflow:visible;fill:#aeb68e"/><clipPath id="aq"><use xlink:href="#ap" style="overflow:visible"/></clipPath><path d="M228.133 212.243s-23.447-11.162-21.349-18.205c2.303-7.73 8.601 7.851 11.046 7.12 5.052-1.511-17.886-23.677-14.33-30.072 2.325-4.182 8.244 15.438 11.875 13.94 4.269-1.761-12.251-26.845-5.101-29.612 6.02-2.33 6.653 27.47 10.696 26.037 2.322-.823-2.03-21.616 2.647-19.501 5.081 2.297 1.03 30.245 5.953 30.245 3.654 0-1.615-16.699 2.89-14.328 4.751 2.5 4.295 32.324-4.327 34.376z" style="opacity:.4;clip-path:url(#aq);fill:#fff"/><path d="M227.776 209.978s-10.791-5.137-9.825-8.379c1.06-3.557 3.958 3.613 5.084 3.277 2.325-.695-8.232-10.897-6.595-13.84 1.07-1.925 3.794 7.105 5.465 6.416 1.965-.81-5.638-12.355-2.348-13.628 2.771-1.072 3.062 12.643 4.923 11.983 1.069-.379-.934-9.948 1.218-8.975 2.338 1.057.474 13.92 2.74 13.92 1.682 0-.743-7.686 1.33-6.594 2.186 1.15 1.976 14.875-1.992 15.82z" style="opacity:.2;fill:#263238"/><path d="M217.134 208.773c-.754 0-1.366.611-1.366 1.365 0 1.202.8 2.205 1.893 2.537l2.015 21.408a5.49 5.49 0 0 0 5.465 4.975h14.917c2.833 0 5.2-2.155 5.465-4.975l2.015-21.408a2.655 2.655 0 0 0 1.893-2.537c0-.754-.611-1.365-1.366-1.365h-30.931z" style="fill:#263238;stroke:#263238;stroke-miterlimit:10"/><path d="M249.432 210.139c0-.754-.611-1.365-1.366-1.365h-30.933c-.754 0-1.366.611-1.366 1.365 0 1.201.8 2.205 1.893 2.537l.338 3.592a2.19 2.19 0 0 0 1.884-.613l1.761-1.761a2.199 2.199 0 0 1 3.11 0l1.761 1.761a2.199 2.199 0 0 0 3.11 0l1.761-1.761a2.199 2.199 0 0 1 3.11 0l1.761 1.761a2.199 2.199 0 0 0 3.11 0l1.761-1.761a2.199 2.199 0 0 1 3.11 0l1.761 1.761c.338.338.76.538 1.198.61l.338-3.589a2.654 2.654 0 0 0 1.898-2.537z" style="fill:#aeb68e;stroke:#263238;stroke-miterlimit:10"/><path d="M224.759 269.462s-.8-16.265 6.666-14.931c7.466 1.333 1.182 22.779 5.599 23.997 4.417 1.217 5.333 19.997 0 26.93s2.4 11.324 2.4 11.324" style="fill:none;stroke:#263238;stroke-linecap:round;stroke-linejoin:round;stroke-miterlimit:10"/><defs><path id="ar" d="M239.391 285.623c-.822 0-1.652.108-2.445.299-.642-.216-1.412-.341-2.291-.341-3.126 0-6.375 1.533-7.257 3.424a3.503 3.503 0 0 0 3.379 4.892c.822 0 1.651-.108 2.445-.299.641.216 1.412.341 2.291.341 3.126 0 7.06-3.001 7.942-4.892.882-1.891-.938-3.424-4.064-3.424z"/></defs><use xlink:href="#ar" style="overflow:visible;fill:#aeb68e"/><clipPath id="as"><use xlink:href="#ar" style="overflow:visible"/></clipPath><path d="M239.391 285.623c-.822 0-1.652.108-2.445.299-.642-.216-1.412-.341-2.291-.341-3.126 0-6.375 1.533-7.257 3.424a3.503 3.503 0 0 0 3.379 4.892c.822 0 1.651-.108 2.445-.299.641.216 1.412.341 2.291.341 3.126 0 7.06-3.001 7.942-4.892.882-1.891-.938-3.424-4.064-3.424z" style="opacity:.3;clip-path:url(#as)"/><use xlink:href="#ar" style="overflow:visible;fill:none;stroke:#263238;stroke-width:.75;stroke-linecap:round;stroke-linejoin:round;stroke-miterlimit:10"/><path d="M236.501 287.172s-2.826.623-3.31 4.636" style="fill:none;stroke:#263238;stroke-width:.75;stroke-linecap:round;stroke-linejoin:round;stroke-miterlimit:10"/><path d="M234.889 282.297h-15.563c-3.411 0-6.256-1.108-6.552-2.552l-2.398-11.669h33.464l-2.399 11.669c-.297 1.444-3.141 2.552-6.552 2.552z" style="fill:#fff;stroke:#263238;stroke-linecap:round;stroke-linejoin:round;stroke-miterlimit:10"/><path d="M241.115 268.078c.305-3.829 1.483-10.421 6.094-7.476 6.348 4.063 3.646 23.789 7.263 34.728 3.616 10.929 9.71 24.794 6.125 37.857" style="fill:none;stroke:#263238;stroke-linecap:round;stroke-linejoin:round;stroke-miterlimit:10"/><defs><path id="at" d="M248.24 261.931c.64 0 1.286.084 1.904.233a5.618 5.618 0 0 1 1.784-.266c2.434 0 4.964 1.194 5.651 2.666a2.727 2.727 0 0 1-2.631 3.809c-.64 0-1.286-.084-1.904-.233-.499.168-1.1.266-1.784.266-2.434 0-5.497-2.337-6.183-3.809-.687-1.472.729-2.666 3.163-2.666z"/></defs><use xlink:href="#at" style="overflow:visible;fill:#aeb68e"/><clipPath id="au"><use xlink:href="#at" style="overflow:visible"/></clipPath><path d="M248.24 261.931c.64 0 1.286.084 1.904.233a5.618 5.618 0 0 1 1.784-.266c2.434 0 4.964 1.194 5.651 2.666a2.727 2.727 0 0 1-2.631 3.809c-.64 0-1.286-.084-1.904-.233-.499.168-1.1.266-1.784.266-2.434 0-5.497-2.337-6.183-3.809-.687-1.472.729-2.666 3.163-2.666z" style="opacity:.3;clip-path:url(#au)"/><use xlink:href="#at" style="overflow:visible;fill:none;stroke:#263238;stroke-width:.75;stroke-linecap:round;stroke-linejoin:round;stroke-miterlimit:10"/><path d="M250.49 263.138s2.2.485 2.577 3.61" style="fill:none;stroke:#263238;stroke-width:.75;stroke-linecap:round;stroke-linejoin:round;stroke-miterlimit:10"/><defs><path id="av" d="M250.958 285.854c.723 0 1.451.095 2.149.263.564-.19 1.241-.3 2.014-.3 2.748 0 5.604 1.348 6.379 3.01a3.079 3.079 0 0 1-2.97 4.3 9.234 9.234 0 0 1-2.149-.263c-.564.19-1.241.3-2.014.3-2.748 0-6.205-2.638-6.98-4.3-.776-1.662.823-3.01 3.571-3.01z"/></defs><use xlink:href="#av" style="overflow:visible;fill:#aeb68e"/><clipPath id="aw"><use xlink:href="#av" style="overflow:visible"/></clipPath><path d="M250.958 285.854c.723 0 1.451.095 2.149.263.564-.19 1.241-.3 2.014-.3 2.748 0 5.604 1.348 6.379 3.01a3.079 3.079 0 0 1-2.97 4.3 9.234 9.234 0 0 1-2.149-.263c-.564.19-1.241.3-2.014.3-2.748 0-6.205-2.638-6.98-4.3-.776-1.662.823-3.01 3.571-3.01z" style="opacity:.3;clip-path:url(#aw)"/><use xlink:href="#av" style="overflow:visible;fill:none;stroke:#263238;stroke-width:.75;stroke-linecap:round;stroke-linejoin:round;stroke-miterlimit:10"/><path d="M253.497 287.216s2.484.547 2.909 4.075" style="fill:none;stroke:#263238;stroke-width:.75;stroke-linecap:round;stroke-linejoin:round;stroke-miterlimit:10"/><defs><path id="ax" d="M258.682 306.855c.723 0 1.452.095 2.149.263.564-.19 1.241-.3 2.014-.3 2.748 0 5.604 1.347 6.379 3.01a3.079 3.079 0 0 1-2.97 4.3 9.24 9.24 0 0 1-2.149-.263c-.564.19-1.241.3-2.014.3-2.747 0-6.205-2.638-6.98-4.3-.775-1.663.824-3.01 3.571-3.01z"/></defs><use xlink:href="#ax" style="overflow:visible;fill:#aeb68e"/><clipPath id="ay"><use xlink:href="#ax" style="overflow:visible"/></clipPath><path d="M258.682 306.855c.723 0 1.452.095 2.149.263.564-.19 1.241-.3 2.014-.3 2.748 0 5.604 1.347 6.379 3.01a3.079 3.079 0 0 1-2.97 4.3 9.24 9.24 0 0 1-2.149-.263c-.564.19-1.241.3-2.014.3-2.747 0-6.205-2.638-6.98-4.3-.775-1.663.824-3.01 3.571-3.01z" style="opacity:.3;clip-path:url(#ay)"/><use xlink:href="#ax" style="overflow:visible;fill:none;stroke:#263238;stroke-width:.75;stroke-linecap:round;stroke-linejoin:round;stroke-miterlimit:10"/><path d="M261.222 308.216s2.483.547 2.909 4.075" style="fill:none;stroke:#263238;stroke-width:.75;stroke-linecap:round;stroke-linejoin:round;stroke-miterlimit:10"/><defs><path id="az" d="M260.617 329.637c.723 0 1.452.095 2.149.263.564-.19 1.241-.3 2.014-.3 2.748 0 5.603 1.348 6.379 3.01a3.079 3.079 0 0 1-2.97 4.3 9.227 9.227 0 0 1-2.149-.263c-.564.19-1.241.3-2.014.3-2.748 0-6.205-2.638-6.98-4.3-.776-1.662.823-3.01 3.571-3.01z"/></defs><use xlink:href="#az" style="overflow:visible;fill:#aeb68e"/><clipPath id="aA"><use xlink:href="#az" style="overflow:visible"/></clipPath><path d="M260.617 329.637c.723 0 1.452.095 2.149.263.564-.19 1.241-.3 2.014-.3 2.748 0 5.603 1.348 6.379 3.01a3.079 3.079 0 0 1-2.97 4.3 9.227 9.227 0 0 1-2.149-.263c-.564.19-1.241.3-2.014.3-2.748 0-6.205-2.638-6.98-4.3-.776-1.662.823-3.01 3.571-3.01z" style="opacity:.3;clip-path:url(#aA)"/><use xlink:href="#az" style="overflow:visible;fill:none;stroke:#263238;stroke-width:.75;stroke-linecap:round;stroke-linejoin:round;stroke-miterlimit:10"/><path d="M263.157 330.999s2.483.547 2.909 4.075" style="fill:none;stroke:#263238;stroke-width:.75;stroke-linecap:round;stroke-linejoin:round;stroke-miterlimit:10"/><defs><path id="aB" d="M261.079 316.922c-.822 0-1.651.108-2.445.299-.641-.216-1.412-.341-2.291-.341-3.126 0-6.376 1.533-7.257 3.424a3.503 3.503 0 0 0 3.379 4.892c.822 0 1.651-.108 2.445-.299.641.216 1.412.341 2.291.341 3.126 0 7.06-3.001 7.942-4.892.882-1.89-.938-3.424-4.064-3.424z"/></defs><use xlink:href="#aB" style="overflow:visible;fill:#aeb68e"/><clipPath id="aC"><use xlink:href="#aB" style="overflow:visible"/></clipPath><path d="M261.079 316.922c-.822 0-1.651.108-2.445.299-.641-.216-1.412-.341-2.291-.341-3.126 0-6.376 1.533-7.257 3.424a3.503 3.503 0 0 0 3.379 4.892c.822 0 1.651-.108 2.445-.299.641.216 1.412.341 2.291.341 3.126 0 7.06-3.001 7.942-4.892.882-1.89-.938-3.424-4.064-3.424z" style="opacity:.3;clip-path:url(#aC)"/><use xlink:href="#aB" style="overflow:visible;fill:none;stroke:#263238;stroke-width:.75;stroke-linecap:round;stroke-linejoin:round;stroke-miterlimit:10"/><path d="M258.189 318.472s-2.826.623-3.31 4.636" style="fill:none;stroke:#263238;stroke-width:.75;stroke-linecap:round;stroke-linejoin:round;stroke-miterlimit:10"/><defs><path id="aD" d="M258.898 295.785c-.822 0-1.652.108-2.445.299-.641-.216-1.412-.341-2.291-.341-3.126 0-6.376 1.533-7.257 3.424a3.503 3.503 0 0 0 3.379 4.892c.822 0 1.652-.108 2.445-.299.641.216 1.412.341 2.291.341 3.126 0 7.06-3.001 7.942-4.892.882-1.891-.937-3.424-4.064-3.424z"/></defs><use xlink:href="#aD" style="overflow:visible;fill:#aeb68e"/><clipPath id="aE"><use xlink:href="#aD" style="overflow:visible"/></clipPath><path d="M258.898 295.785c-.822 0-1.652.108-2.445.299-.641-.216-1.412-.341-2.291-.341-3.126 0-6.376 1.533-7.257 3.424a3.503 3.503 0 0 0 3.379 4.892c.822 0 1.652-.108 2.445-.299.641.216 1.412.341 2.291.341 3.126 0 7.06-3.001 7.942-4.892.882-1.891-.937-3.424-4.064-3.424z" style="opacity:.3;clip-path:url(#aE)"/><use xlink:href="#aD" style="overflow:visible;fill:none;stroke:#263238;stroke-width:.75;stroke-linecap:round;stroke-linejoin:round;stroke-miterlimit:10"/><path d="M256.009 297.334s-2.826.623-3.31 4.636" style="fill:none;stroke:#263238;stroke-width:.75;stroke-linecap:round;stroke-linejoin:round;stroke-miterlimit:10"/><defs><path id="aF" d="M254.125 268.585c-.822 0-1.651.108-2.445.299-.642-.216-1.412-.341-2.292-.341-3.126 0-6.375 1.533-7.257 3.424a3.503 3.503 0 0 0 3.379 4.892c.822 0 1.652-.108 2.445-.299.641.216 1.412.341 2.291.341 3.126 0 7.06-3.001 7.942-4.892s-.936-3.424-4.063-3.424z"/></defs><use xlink:href="#aF" style="overflow:visible;fill:#aeb68e"/><clipPath id="aG"><use xlink:href="#aF" style="overflow:visible"/></clipPath><path d="M254.125 268.585c-.822 0-1.651.108-2.445.299-.642-.216-1.412-.341-2.292-.341-3.126 0-6.375 1.533-7.257 3.424a3.503 3.503 0 0 0 3.379 4.892c.822 0 1.652-.108 2.445-.299.641.216 1.412.341 2.291.341 3.126 0 7.06-3.001 7.942-4.892s-.936-3.424-4.063-3.424z" style="opacity:.3;clip-path:url(#aG)"/><use xlink:href="#aF" style="overflow:visible;fill:none;stroke:#263238;stroke-width:.75;stroke-linecap:round;stroke-linejoin:round;stroke-miterlimit:10"/><path d="M251.236 270.134s-2.826.623-3.31 4.636" style="fill:none;stroke:#263238;stroke-width:.75;stroke-linecap:round;stroke-linejoin:round;stroke-miterlimit:10"/><defs><path id="aH" d="M231.106 251.675c-.822 0-1.651.108-2.445.299-.641-.216-1.412-.341-2.291-.341-3.126 0-6.375 1.533-7.257 3.424a3.503 3.503 0 0 0 3.379 4.892c.822 0 1.652-.108 2.445-.299.641.216 1.412.341 2.291.341 3.126 0 7.06-3.001 7.942-4.893.882-1.89-.938-3.423-4.064-3.423z"/></defs><use xlink:href="#aH" style="overflow:visible;fill:#aeb68e"/><clipPath id="aI"><use xlink:href="#aH" style="overflow:visible"/></clipPath><path d="M231.106 251.675c-.822 0-1.651.108-2.445.299-.641-.216-1.412-.341-2.291-.341-3.126 0-6.375 1.533-7.257 3.424a3.503 3.503 0 0 0 3.379 4.892c.822 0 1.652-.108 2.445-.299.641.216 1.412.341 2.291.341 3.126 0 7.06-3.001 7.942-4.893.882-1.89-.938-3.423-4.064-3.423z" style="opacity:.3;clip-path:url(#aI)"/><use xlink:href="#aH" style="overflow:visible;fill:none;stroke:#263238;stroke-width:.75;stroke-linecap:round;stroke-linejoin:round;stroke-miterlimit:10"/><path d="M228.217 253.224s-2.826.623-3.31 4.636" style="fill:none;stroke:#263238;stroke-width:.75;stroke-linecap:round;stroke-linejoin:round;stroke-miterlimit:10"/><defs><path id="aJ" d="M237.029 257.383c.64 0 1.286.084 1.904.233.499-.168 1.1-.265 1.784-.265 2.434 0 4.964 1.194 5.65 2.666a2.727 2.727 0 0 1-2.631 3.809c-.64 0-1.286-.085-1.904-.233-.499.168-1.1.266-1.784.266-2.434 0-5.497-2.337-6.184-3.809-.686-1.473.731-2.667 3.165-2.667z"/></defs><use xlink:href="#aJ" style="overflow:visible;fill:#aeb68e"/><clipPath id="aK"><use xlink:href="#aJ" style="overflow:visible"/></clipPath><path d="M237.029 257.383c.64 0 1.286.084 1.904.233.499-.168 1.1-.265 1.784-.265 2.434 0 4.964 1.194 5.65 2.666a2.727 2.727 0 0 1-2.631 3.809c-.64 0-1.286-.085-1.904-.233-.499.168-1.1.266-1.784.266-2.434 0-5.497-2.337-6.184-3.809-.686-1.473.731-2.667 3.165-2.667z" style="opacity:.3;clip-path:url(#aK)"/><use xlink:href="#aJ" style="overflow:visible;fill:none;stroke:#263238;stroke-width:.75;stroke-linecap:round;stroke-linejoin:round;stroke-miterlimit:10"/><path d="M239.279 258.59s2.2.485 2.577 3.61" style="fill:none;stroke:#263238;stroke-width:.75;stroke-linecap:round;stroke-linejoin:round;stroke-miterlimit:10"/><defs><path id="aL" d="M240.726 278.02c.64 0 1.286.084 1.904.233.499-.169 1.1-.266 1.784-.266 2.434 0 4.964 1.194 5.651 2.666a2.727 2.727 0 0 1-2.631 3.809c-.64 0-1.286-.084-1.904-.233-.499.168-1.1.266-1.784.266-2.434 0-5.497-2.337-6.184-3.809-.686-1.472.73-2.666 3.164-2.666z"/></defs><use xlink:href="#aL" style="overflow:visible;fill:#aeb68e"/><clipPath id="aM"><use xlink:href="#aL" style="overflow:visible"/></clipPath><path d="M240.726 278.02c.64 0 1.286.084 1.904.233.499-.169 1.1-.266 1.784-.266 2.434 0 4.964 1.194 5.651 2.666a2.727 2.727 0 0 1-2.631 3.809c-.64 0-1.286-.084-1.904-.233-.499.168-1.1.266-1.784.266-2.434 0-5.497-2.337-6.184-3.809-.686-1.472.73-2.666 3.164-2.666z" style="opacity:.3;clip-path:url(#aM)"/><use xlink:href="#aL" style="overflow:visible;fill:none;stroke:#263238;stroke-width:.75;stroke-linecap:round;stroke-linejoin:round;stroke-miterlimit:10"/><path d="M242.976 279.226s2.2.485 2.577 3.61" style="fill:none;stroke:#263238;stroke-width:.75;stroke-linecap:round;stroke-linejoin:round;stroke-miterlimit:10"/><defs><path id="aN" d="M237.904 298.749c.64 0 1.286.084 1.904.233a5.618 5.618 0 0 1 1.784-.266c2.434 0 4.964 1.194 5.651 2.666a2.727 2.727 0 0 1-2.631 3.809c-.64 0-1.286-.084-1.904-.233-.499.168-1.1.266-1.784.266-2.434 0-5.497-2.337-6.184-3.809-.686-1.472.73-2.666 3.164-2.666z"/></defs><use xlink:href="#aN" style="overflow:visible;fill:#aeb68e"/><clipPath id="aO"><use xlink:href="#aN" style="overflow:visible"/></clipPath><path d="M237.904 298.749c.64 0 1.286.084 1.904.233a5.618 5.618 0 0 1 1.784-.266c2.434 0 4.964 1.194 5.651 2.666a2.727 2.727 0 0 1-2.631 3.809c-.64 0-1.286-.084-1.904-.233-.499.168-1.1.266-1.784.266-2.434 0-5.497-2.337-6.184-3.809-.686-1.472.73-2.666 3.164-2.666z" style="opacity:.3;clip-path:url(#aO)"/><use xlink:href="#aN" style="overflow:visible;fill:none;stroke:#263238;stroke-width:.75;stroke-linecap:round;stroke-linejoin:round;stroke-miterlimit:10"/><path d="M240.154 299.956s2.2.485 2.577 3.61" style="fill:none;stroke:#263238;stroke-width:.75;stroke-linecap:round;stroke-linejoin:round;stroke-miterlimit:10"/><defs><path id="aP" d="M237.904 315.79c.64 0 1.286.084 1.904.233a5.618 5.618 0 0 1 1.784-.266c2.434 0 4.964 1.194 5.651 2.666a2.727 2.727 0 0 1-2.631 3.809c-.64 0-1.286-.084-1.904-.233-.499.169-1.1.266-1.784.266-2.434 0-5.497-2.337-6.184-3.809-.686-1.472.73-2.666 3.164-2.666z"/></defs><use xlink:href="#aP" style="overflow:visible;fill:#aeb68e"/><clipPath id="aQ"><use xlink:href="#aP" style="overflow:visible"/></clipPath><path d="M237.904 315.79c.64 0 1.286.084 1.904.233a5.618 5.618 0 0 1 1.784-.266c2.434 0 4.964 1.194 5.651 2.666a2.727 2.727 0 0 1-2.631 3.809c-.64 0-1.286-.084-1.904-.233-.499.169-1.1.266-1.784.266-2.434 0-5.497-2.337-6.184-3.809-.686-1.472.73-2.666 3.164-2.666z" style="opacity:.3;clip-path:url(#aQ)"/><use xlink:href="#aP" style="overflow:visible;fill:none;stroke:#263238;stroke-width:.75;stroke-linecap:round;stroke-linejoin:round;stroke-miterlimit:10"/><path d="M240.154 316.996s2.2.485 2.577 3.61" style="fill:none;stroke:#263238;stroke-width:.75;stroke-linecap:round;stroke-linejoin:round;stroke-miterlimit:10"/><defs><path id="aR" d="M236.402 307.869c-.822 0-1.651.108-2.445.299-.642-.216-1.412-.341-2.291-.341-3.126 0-6.375 1.533-7.257 3.424a3.503 3.503 0 0 0 3.379 4.892c.822 0 1.652-.108 2.445-.299.641.216 1.412.341 2.291.341 3.126 0 7.06-3.001 7.942-4.892.882-1.891-.938-3.424-4.064-3.424z"/></defs><use xlink:href="#aR" style="overflow:visible;fill:#aeb68e"/><clipPath id="aS"><use xlink:href="#aR" style="overflow:visible"/></clipPath><path d="M236.402 307.869c-.822 0-1.651.108-2.445.299-.642-.216-1.412-.341-2.291-.341-3.126 0-6.375 1.533-7.257 3.424a3.503 3.503 0 0 0 3.379 4.892c.822 0 1.652-.108 2.445-.299.641.216 1.412.341 2.291.341 3.126 0 7.06-3.001 7.942-4.892.882-1.891-.938-3.424-4.064-3.424z" style="opacity:.3;clip-path:url(#aS)"/><use xlink:href="#aR" style="overflow:visible;fill:none;stroke:#263238;stroke-width:.75;stroke-linecap:round;stroke-linejoin:round;stroke-miterlimit:10"/><path d="M233.512 309.418s-2.826.623-3.31 4.636" style="fill:none;stroke:#263238;stroke-width:.75;stroke-linecap:round;stroke-linejoin:round;stroke-miterlimit:10"/><defs><path id="aT" d="M235.856 261.015c-.822 0-1.652.108-2.445.299-.641-.216-1.412-.341-2.291-.341-3.126 0-6.375 1.533-7.257 3.424a3.503 3.503 0 0 0 3.379 4.892c.822 0 1.652-.108 2.445-.299.641.217 1.412.341 2.291.341 3.126 0 7.06-3.001 7.942-4.892.882-1.89-.938-3.424-4.064-3.424z"/></defs><use xlink:href="#aT" style="overflow:visible;fill:#aeb68e"/><clipPath id="aU"><use xlink:href="#aT" style="overflow:visible"/></clipPath><path d="M235.856 261.015c-.822 0-1.652.108-2.445.299-.641-.216-1.412-.341-2.291-.341-3.126 0-6.375 1.533-7.257 3.424a3.503 3.503 0 0 0 3.379 4.892c.822 0 1.652-.108 2.445-.299.641.217 1.412.341 2.291.341 3.126 0 7.06-3.001 7.942-4.892.882-1.89-.938-3.424-4.064-3.424z" style="opacity:.3;clip-path:url(#aU)"/><use xlink:href="#aT" style="overflow:visible;fill:none;stroke:#263238;stroke-width:.75;stroke-linecap:round;stroke-linejoin:round;stroke-miterlimit:10"/><path d="M232.966 262.565s-2.826.623-3.31 4.637" style="fill:none;stroke:#263238;stroke-width:.75;stroke-linecap:round;stroke-linejoin:round;stroke-miterlimit:10"/><path d="M201.298 337.453s-6.399-18.131.264-25.058c6.663-6.938-12.27-47.202-1.331-50.828 8.776-2.915 15.317 3.758 17.552 6.511" style="fill:none;stroke:#263238;stroke-linecap:round;stroke-linejoin:round;stroke-miterlimit:10"/><defs><path id="aV" d="M198.647 266.537c-.822 0-1.651.108-2.445.299-.642-.216-1.412-.341-2.291-.341-3.126 0-6.375 1.533-7.257 3.424a3.503 3.503 0 0 0 3.379 4.892c.822 0 1.652-.108 2.445-.299.641.216 1.412.341 2.291.341 3.126 0 7.06-3.001 7.942-4.892.881-1.891-.938-3.424-4.064-3.424z"/></defs><use xlink:href="#aV" style="overflow:visible;fill:#aeb68e"/><clipPath id="aW"><use xlink:href="#aV" style="overflow:visible"/></clipPath><path d="M198.647 266.537c-.822 0-1.651.108-2.445.299-.642-.216-1.412-.341-2.291-.341-3.126 0-6.375 1.533-7.257 3.424a3.503 3.503 0 0 0 3.379 4.892c.822 0 1.652-.108 2.445-.299.641.216 1.412.341 2.291.341 3.126 0 7.06-3.001 7.942-4.892.881-1.891-.938-3.424-4.064-3.424z" style="opacity:.3;clip-path:url(#aW)"/><use xlink:href="#aV" style="overflow:visible;fill:none;stroke:#263238;stroke-width:.75;stroke-linecap:round;stroke-linejoin:round;stroke-miterlimit:10"/><path d="M195.757 268.086s-2.826.623-3.31 4.636" style="fill:none;stroke:#263238;stroke-width:.75;stroke-linecap:round;stroke-linejoin:round;stroke-miterlimit:10"/><defs><path id="aX" d="M206.377 257.428c.822 0 1.651.108 2.445.299.641-.216 1.412-.341 2.291-.341 3.126 0 6.375 1.533 7.257 3.424a3.503 3.503 0 0 1-3.379 4.892 10.51 10.51 0 0 1-2.445-.299c-.641.216-1.412.341-2.291.341-3.126 0-7.06-3.001-7.942-4.892-.882-1.89.938-3.424 4.064-3.424z"/></defs><use xlink:href="#aX" style="overflow:visible;fill:#aeb68e"/><clipPath id="aY"><use xlink:href="#aX" style="overflow:visible"/></clipPath><path d="M206.377 257.428c.822 0 1.651.108 2.445.299.641-.216 1.412-.341 2.291-.341 3.126 0 6.375 1.533 7.257 3.424a3.503 3.503 0 0 1-3.379 4.892 10.51 10.51 0 0 1-2.445-.299c-.641.216-1.412.341-2.291.341-3.126 0-7.06-3.001-7.942-4.892-.882-1.89.938-3.424 4.064-3.424z" style="opacity:.3;clip-path:url(#aY)"/><use xlink:href="#aX" style="overflow:visible;fill:none;stroke:#263238;stroke-width:.75;stroke-linecap:round;stroke-linejoin:round;stroke-miterlimit:10"/><path d="M209.266 258.978s2.826.623 3.31 4.636" style="fill:none;stroke:#263238;stroke-width:.75;stroke-linecap:round;stroke-linejoin:round;stroke-miterlimit:10"/><defs><path id="aZ" d="M197.985 278.818c.64 0 1.286.084 1.904.233.5-.168 1.1-.266 1.784-.266 2.434 0 4.964 1.194 5.65 2.666a2.727 2.727 0 0 1-2.631 3.809c-.64 0-1.286-.084-1.904-.233-.499.169-1.1.266-1.784.266-2.434 0-5.497-2.337-6.183-3.809-.686-1.473.73-2.666 3.164-2.666z"/></defs><use xlink:href="#aZ" style="overflow:visible;fill:#aeb68e"/><clipPath id="ba"><use xlink:href="#aZ" style="overflow:visible"/></clipPath><path d="M197.985 278.818c.64 0 1.286.084 1.904.233.5-.168 1.1-.266 1.784-.266 2.434 0 4.964 1.194 5.65 2.666a2.727 2.727 0 0 1-2.631 3.809c-.64 0-1.286-.084-1.904-.233-.499.169-1.1.266-1.784.266-2.434 0-5.497-2.337-6.183-3.809-.686-1.473.73-2.666 3.164-2.666z" style="opacity:.3;clip-path:url(#ba)"/><use xlink:href="#aZ" style="overflow:visible;fill:none;stroke:#263238;stroke-width:.75;stroke-linecap:round;stroke-linejoin:round;stroke-miterlimit:10"/><path d="M200.235 280.024s2.2.485 2.577 3.61" style="fill:none;stroke:#263238;stroke-width:.75;stroke-linecap:round;stroke-linejoin:round;stroke-miterlimit:10"/><defs><path id="bb" d="M203.298 304.61a9.24 9.24 0 0 1 2.149.263c.564-.19 1.241-.3 2.014-.3 2.748 0 5.603 1.347 6.378 3.01a3.079 3.079 0 0 1-2.97 4.3 9.234 9.234 0 0 1-2.149-.263c-.564.19-1.241.3-2.014.3-2.748 0-6.205-2.638-6.98-4.3-.775-1.663.824-3.01 3.572-3.01z"/></defs><use xlink:href="#bb" style="overflow:visible;fill:#aeb68e"/><clipPath id="bc"><use xlink:href="#bb" style="overflow:visible"/></clipPath><path d="M203.298 304.61a9.24 9.24 0 0 1 2.149.263c.564-.19 1.241-.3 2.014-.3 2.748 0 5.603 1.347 6.378 3.01a3.079 3.079 0 0 1-2.97 4.3 9.234 9.234 0 0 1-2.149-.263c-.564.19-1.241.3-2.014.3-2.748 0-6.205-2.638-6.98-4.3-.775-1.663.824-3.01 3.572-3.01z" style="opacity:.3;clip-path:url(#bc)"/><use xlink:href="#bb" style="overflow:visible;fill:none;stroke:#263238;stroke-width:.75;stroke-linecap:round;stroke-linejoin:round;stroke-miterlimit:10"/><path d="M205.837 305.972s2.483.547 2.909 4.075" style="fill:none;stroke:#263238;stroke-width:.75;stroke-linecap:round;stroke-linejoin:round;stroke-miterlimit:10"/><defs><path id="bd" d="M199.881 325.989c.562 0 1.13.074 1.673.204a4.928 4.928 0 0 1 1.568-.233c2.139 0 4.363 1.049 4.966 2.343a2.397 2.397 0 0 1-2.312 3.348 7.18 7.18 0 0 1-1.673-.205 4.928 4.928 0 0 1-1.568.233c-2.139 0-4.831-2.054-5.435-3.348-.603-1.293.642-2.342 2.781-2.342z"/></defs><use xlink:href="#bd" style="overflow:visible;fill:#aeb68e"/><clipPath id="be"><use xlink:href="#bd" style="overflow:visible"/></clipPath><path d="M199.881 325.989c.562 0 1.13.074 1.673.204a4.928 4.928 0 0 1 1.568-.233c2.139 0 4.363 1.049 4.966 2.343a2.397 2.397 0 0 1-2.312 3.348 7.18 7.18 0 0 1-1.673-.205 4.928 4.928 0 0 1-1.568.233c-2.139 0-4.831-2.054-5.435-3.348-.603-1.293.642-2.342 2.781-2.342z" style="opacity:.3;clip-path:url(#be)"/><use xlink:href="#bd" style="overflow:visible;fill:none;stroke:#263238;stroke-width:.75;stroke-linecap:round;stroke-linejoin:round;stroke-miterlimit:10"/><path d="M201.859 327.049s1.934.426 2.265 3.173" style="fill:none;stroke:#263238;stroke-width:.75;stroke-linecap:round;stroke-linejoin:round;stroke-miterlimit:10"/><defs><path id="bf" d="M200.748 288.211c-.822 0-1.652.108-2.445.299-.641-.216-1.412-.341-2.291-.341-3.126 0-6.376 1.533-7.257 3.424a3.504 3.504 0 0 0 3.379 4.893c.822 0 1.652-.108 2.445-.299.642.216 1.412.341 2.291.341 3.126 0 7.06-3.001 7.942-4.892.882-1.892-.938-3.425-4.064-3.425z"/></defs><use xlink:href="#bf" style="overflow:visible;fill:#aeb68e"/><clipPath id="bg"><use xlink:href="#bf" style="overflow:visible"/></clipPath><path d="M200.748 288.211c-.822 0-1.652.108-2.445.299-.641-.216-1.412-.341-2.291-.341-3.126 0-6.376 1.533-7.257 3.424a3.504 3.504 0 0 0 3.379 4.893c.822 0 1.652-.108 2.445-.299.642.216 1.412.341 2.291.341 3.126 0 7.06-3.001 7.942-4.892.882-1.892-.938-3.425-4.064-3.425z" style="opacity:.3;clip-path:url(#bg)"/><use xlink:href="#bf" style="overflow:visible;fill:none;stroke:#263238;stroke-width:.75;stroke-linecap:round;stroke-linejoin:round;stroke-miterlimit:10"/><path d="M197.858 289.76s-2.826.623-3.31 4.636" style="fill:none;stroke:#263238;stroke-width:.75;stroke-linecap:round;stroke-linejoin:round;stroke-miterlimit:10"/><defs><path id="bh" d="M199.756 314.874c-.822 0-1.651.108-2.445.299-.641-.216-1.412-.341-2.291-.341-3.126 0-6.376 1.533-7.257 3.424a3.504 3.504 0 0 0 3.379 4.893c.822 0 1.652-.108 2.445-.299.641.216 1.412.341 2.291.341 3.126 0 7.06-3.001 7.942-4.892.881-1.892-.938-3.425-4.064-3.425z"/></defs><use xlink:href="#bh" style="overflow:visible;fill:#aeb68e"/><clipPath id="bi"><use xlink:href="#bh" style="overflow:visible"/></clipPath><path d="M199.756 314.874c-.822 0-1.651.108-2.445.299-.641-.216-1.412-.341-2.291-.341-3.126 0-6.376 1.533-7.257 3.424a3.504 3.504 0 0 0 3.379 4.893c.822 0 1.652-.108 2.445-.299.641.216 1.412.341 2.291.341 3.126 0 7.06-3.001 7.942-4.892.881-1.892-.938-3.425-4.064-3.425z" style="opacity:.3;clip-path:url(#bi)"/><use xlink:href="#bh" style="overflow:visible;fill:none;stroke:#263238;stroke-width:.75;stroke-linecap:round;stroke-linejoin:round;stroke-miterlimit:10"/><path d="M196.866 316.423s-2.826.623-3.31 4.636" style="fill:none;stroke:#263238;stroke-width:.75;stroke-linecap:round;stroke-linejoin:round;stroke-miterlimit:10"/><defs><path id="bj" d="M200.202 333.316c-.822 0-1.651.108-2.445.299-.641-.216-1.412-.341-2.291-.341-3.126 0-6.376 1.533-7.257 3.424a3.503 3.503 0 0 0 3.379 4.892c.822 0 1.652-.108 2.445-.299.641.216 1.412.341 2.291.341 3.126 0 7.06-3.001 7.942-4.892.882-1.891-.938-3.424-4.064-3.424z"/></defs><use xlink:href="#bj" style="overflow:visible;fill:#aeb68e"/><clipPath id="bk"><use xlink:href="#bj" style="overflow:visible"/></clipPath><path d="M200.202 333.316c-.822 0-1.651.108-2.445.299-.641-.216-1.412-.341-2.291-.341-3.126 0-6.376 1.533-7.257 3.424a3.503 3.503 0 0 0 3.379 4.892c.822 0 1.652-.108 2.445-.299.641.216 1.412.341 2.291.341 3.126 0 7.06-3.001 7.942-4.892.882-1.891-.938-3.424-4.064-3.424z" style="opacity:.3;clip-path:url(#bk)"/><use xlink:href="#bj" style="overflow:visible;fill:none;stroke:#263238;stroke-width:.75;stroke-linecap:round;stroke-linejoin:round;stroke-miterlimit:10"/><path d="M197.313 334.865s-2.826.623-3.31 4.636M203.763 360.972s-22.382 11.369-30.54 45.448" style="fill:none;stroke:#263238;stroke-width:.75;stroke-linecap:round;stroke-linejoin:round;stroke-miterlimit:10"/><path d="M175.023 395.285c.07 1.665 2.201 2.29 3.149.919 4.354-6.295 14.734-17.831 35.619-24.917 19.693-6.682 6.138-29.832-9.228-24.189-16.56 6.082-30.476 26.067-29.54 48.187z" style="fill:#aeb68e"/><path d="M177.977 391.799s1.519-3.529 5.319-7.05c5.49-5.086 13.146-10.478 6.1-7.892 0 0 7.561-4.514 15.516-6.758 7.954-2.243-6.52-3.698-6.52-3.698s18.137-8.204 15.906-11.699c-1.83-2.866-12.986 4.042-12.986 4.042s2.719-6.934.914-7.36c-1.804-.426-9.774 13.329-9.774 13.329s1.299-4.469-1.018-4.26c-2.317.211-14.758 20.681-13.457 31.346z" style="opacity:.2"/><path d="M182.718 336.091s-21.505 27.712-11.498 75.642" style="fill:none;stroke:#263238;stroke-width:.75;stroke-linecap:round;stroke-linejoin:round;stroke-miterlimit:10"/><path d="M166.857 396.587c1.082 2.062 4.147 1.581 4.527-.716 1.749-10.552 7.99-31.318 30.157-52.725 20.902-20.185-10.03-41.359-26.083-25.066-17.301 17.558-22.973 51.112-8.601 78.507z" style="fill:#aeb68e"/><path d="M169.125 392.369s-.093-5.626 2.866-12.613c4.274-10.093 11.259-21.897 3.402-14.207 0 0 7.385-10.574 16.66-18.352 9.275-7.778-10.93-1.02-10.93-1.02s19.291-21.861 14.211-25.186c-4.167-2.727-14.914 13.205-14.914 13.205s-.537-10.895-3.203-10.379c-2.666.515-5.042 23.677-5.042 23.677s-.951-6.75-3.919-5.078c-2.97 1.673-7.28 36.491.869 49.953z" style="opacity:.2;fill:#263238"/><path d="M134.453 353.936s23.84 15.394 29.039 54.665" style="fill:none;stroke:#263238;stroke-width:.75;stroke-linecap:round;stroke-linejoin:round;stroke-miterlimit:10"/><path d="M162.766 395.87c-.273 1.864-2.742 2.318-3.648.666-4.161-7.586-14.488-21.768-37.144-32.172-21.363-9.81-3.421-34.26 13.197-26.122 17.911 8.77 31.228 32.865 27.595 57.628z" style="fill:#aeb68e"/><path d="M160.04 393.304s-1.251-4.303-5.143-8.925c-5.623-6.677-13.709-14.018-5.925-10.012 0 0-8.103-6.312-16.986-10.053-8.884-3.741 8.077-3.343 8.077-3.343s-19.813-12.104-16.728-15.828c2.53-3.054 14.449 6.546 14.449 6.546s-2.149-8.416 0-8.65c2.15-.234 9.397 16.832 9.397 16.832s-.861-5.36 1.79-4.784c2.653.578 14.108 26.06 11.069 38.217z" style="opacity:.2;fill:#263238"/><path d="M155.853 422.835h25.425a5.578 5.578 0 0 0 5.542-4.946l1.347-11.819a1.856 1.856 0 0 0-1.844-2.066h-35.515c-1.108 0-1.97.965-1.844 2.066l1.347 11.819a5.578 5.578 0 0 0 5.542 4.946z" style="fill:#263238;stroke:#263238;stroke-miterlimit:10"/></svg>