<svg xmlns="http://www.w3.org/2000/svg" xml:space="preserve" style="enable-background:new 0 0 500 500" viewBox="0 0 500 500"><path d="M426.528 388.051s29.627-69.624 16.295-158.506c-4.558-30.385-13.939-63.24-36.284-86.066-31.029-31.697-83.423-47.336-126.28-34.704-38.165 11.249-64.763 41.268-96.676 62.996-34.812 23.702-68.143 5.925-108.881 40.738-40.738 34.812-32.59 97.03-23.702 119.25 8.888 22.221 21.046 44.817 56.445 54.628l319.083 1.664z" style="fill:#ccd6a6"/><path d="M426.528 388.051s29.627-69.624 16.295-158.506c-4.558-30.385-13.939-63.24-36.284-86.066-31.029-31.697-83.423-47.336-126.28-34.704-38.165 11.249-64.763 41.268-96.676 62.996-34.812 23.702-68.143 5.925-108.881 40.738-40.738 34.812-32.59 97.03-23.702 119.25 8.888 22.221 21.046 44.817 56.445 54.628l319.083 1.664z" style="opacity:.7;fill:#fff"/><path d="M107.446 188.338H399.95v198.05H107.446z" style="fill:#fff;stroke:#263238;stroke-linecap:round;stroke-linejoin:round;stroke-miterlimit:10"/><path d="M298.119 194.065h98.764v162.291h-98.764zM110.619 194.065h98.764v162.291h-98.764z" style="fill:#fff;stroke:#263238;stroke-linecap:round;stroke-linejoin:round;stroke-miterlimit:10"/><path d="M396.883 246.5 298.119 281v-86.935h98.764zM209.383 246.5l-98.764 41v-93.435h98.764z" style="fill:#263238;stroke:#263238;stroke-linecap:round;stroke-linejoin:round;stroke-miterlimit:10"/><path d="M213.327 188.338h80.743v198.05h-80.743z" style="fill:#ccd6a6;stroke:#263238;stroke-linecap:round;stroke-linejoin:round;stroke-miterlimit:10"/><path d="M217.897 296.503H289.5v82.411h-71.603v-82.411zm0-100.692v82.411H289.5v-82.411h-71.603z" style="fill:#fff;stroke:#263238;stroke-linecap:round;stroke-linejoin:round;stroke-miterlimit:10"/><path d="M289.5 369.511v-10.147l-50.298 19.55h25.704zM217.897 254.275l71.603-31.24v-27.224h-71.603zM260.72 278.222l28.78-11.004v-9.099l-51.722 20.103zM217.897 366.766l71.603-29.367v-40.896h-71.603z" style="fill:#263238"/><path d="M405 192.107H103.371l30.163-53.41h241.303z" style="fill:#ccd6a6;stroke:#263238;stroke-linecap:round;stroke-linejoin:round;stroke-miterlimit:10"/><path d="M103.37 192.253c-.024.368-.056.735-.056 1.109 0 9.231 7.483 16.714 16.714 16.714 9.231 0 16.714-7.483 16.714-16.714 0-.374-.032-.741-.056-1.109H103.37z" style="fill:#fff;stroke:#263238;stroke-linecap:round;stroke-linejoin:round;stroke-miterlimit:10"/><path d="M136.87 192.253c-.024.368-.056.735-.056 1.109 0 9.231 7.483 16.714 16.714 16.714 9.231 0 16.714-7.483 16.714-16.714 0-.374-.032-.741-.056-1.109H136.87z" style="fill:#ccd6a6;stroke:#263238;stroke-linecap:round;stroke-linejoin:round;stroke-miterlimit:10"/><path d="M170.37 192.253c-.024.368-.056.735-.056 1.109 0 9.231 7.483 16.714 16.714 16.714 9.231 0 16.714-7.483 16.714-16.714 0-.374-.032-.741-.056-1.109H170.37z" style="fill:#fff;stroke:#263238;stroke-linecap:round;stroke-linejoin:round;stroke-miterlimit:10"/><path d="M203.87 192.253c-.024.368-.056.735-.056 1.109 0 9.231 7.483 16.714 16.714 16.714 9.231 0 16.714-7.483 16.714-16.714 0-.374-.032-.741-.056-1.109H203.87z" style="fill:#ccd6a6;stroke:#263238;stroke-linecap:round;stroke-linejoin:round;stroke-miterlimit:10"/><path d="M237.37 192.253c-.024.368-.056.735-.056 1.109 0 9.231 7.483 16.714 16.714 16.714 9.231 0 16.714-7.483 16.714-16.714 0-.374-.032-.741-.056-1.109H237.37z" style="fill:#fff;stroke:#263238;stroke-linecap:round;stroke-linejoin:round;stroke-miterlimit:10"/><path d="M270.87 192.253c-.024.368-.056.735-.056 1.109 0 9.231 7.483 16.714 16.714 16.714 9.231 0 16.714-7.483 16.714-16.714 0-.374-.032-.741-.056-1.109H270.87z" style="fill:#ccd6a6;stroke:#263238;stroke-linecap:round;stroke-linejoin:round;stroke-miterlimit:10"/><path d="M304.37 192.253c-.024.368-.056.735-.056 1.109 0 9.231 7.483 16.714 16.714 16.714 9.231 0 16.714-7.483 16.714-16.714 0-.374-.032-.741-.056-1.109H304.37z" style="fill:#fff;stroke:#263238;stroke-linecap:round;stroke-linejoin:round;stroke-miterlimit:10"/><path d="M337.87 192.253c-.024.368-.056.735-.056 1.109 0 9.231 7.483 16.714 16.714 16.714 9.231 0 16.714-7.483 16.714-16.714 0-.374-.032-.741-.056-1.109H337.87z" style="fill:#ccd6a6;stroke:#263238;stroke-linecap:round;stroke-linejoin:round;stroke-miterlimit:10"/><path d="M371.37 192.253c-.024.368-.056.735-.056 1.109 0 9.231 7.483 16.714 16.714 16.714 9.231 0 16.714-7.483 16.714-16.714 0-.374-.032-.741-.056-1.109H371.37z" style="fill:#fff;stroke:#263238;stroke-linecap:round;stroke-linejoin:round;stroke-miterlimit:10"/><path d="m229.628 232.777 24.153-12.995 23.988 12.995" style="fill:none;stroke:#fff;stroke-linecap:round;stroke-linejoin:round;stroke-miterlimit:10"/><path d="M256.136 219.782a2.355 2.355 0 1 0-4.71 0 2.355 2.355 0 0 0 4.71 0z" style="fill:#fff;stroke:#263238;stroke-linecap:round;stroke-linejoin:round;stroke-miterlimit:10"/><path d="M229.628 232.777h48.141V256.6h-48.141z" style="fill:#ccd6a6;stroke:#263238;stroke-linecap:round;stroke-linejoin:round;stroke-miterlimit:10"/><text style="fill:#263238;font-family:&quot;ChunkFive-Roman&quot;;font-size:10.2274px" transform="translate(235.653 248.098)">OPENED</text><circle cx="286.581" cy="288.481" r="4.898" style="fill:#fff;stroke:#263238;stroke-linecap:round;stroke-linejoin:round;stroke-miterlimit:10"/><circle cx="286.581" cy="288.481" r="1.249" style="fill:#fff;stroke:#263238;stroke-linecap:round;stroke-linejoin:round;stroke-miterlimit:10"/><path d="M435.032 391.667H72.365a3.333 3.333 0 1 1 0-6.666h362.667a3.333 3.333 0 0 1 0 6.666z" style="fill:#263238"/><path d="M127.424 232.571v6.739h-2.111v-7.389a3.167 3.167 0 0 0-6.334 0v9.176h-1.949v-4.872a2.274 2.274 0 1 0-4.547 0v7.47c0 .807.654 1.462 1.462 1.462h5.034v5.522h6.334v-7.146h4.385c.987 0 1.786-.8 1.786-1.786v-9.175a2.03 2.03 0 0 0-2.03-2.03 2.029 2.029 0 0 0-2.03 2.029z" style="fill:#ccd6a6"/><path d="M116.646 250.235h11.129v10.319h-11.129z" style="fill:#fff;stroke:#263238;stroke-linecap:round;stroke-linejoin:round;stroke-miterlimit:10"/><path d="M115.984 247.79h12.454v3.322h-12.454z" style="fill:#fff;stroke:#263238;stroke-linecap:round;stroke-linejoin:round;stroke-miterlimit:10"/><path d="m124.285 288.572-4.061-6.496 2.707.27-.271-3.789 2.978 3.789.27-11.638 2.166 7.578 2.706-9.743.812 11.367 5.414-5.683-3.79 8.931 3.79-1.353-7.308 8.12z" style="fill:#ccd6a6"/><path d="M122.21 289.454h11.129v10.319H122.21z" style="fill:#fff;stroke:#263238;stroke-linecap:round;stroke-linejoin:round;stroke-miterlimit:10"/><path d="M121.548 287.009h12.454v3.322h-12.454z" style="fill:#fff;stroke:#263238;stroke-linecap:round;stroke-linejoin:round;stroke-miterlimit:10"/><path d="m181.936 288.572-4.06-6.496 2.707.27-.271-3.789 2.977 3.789.271-11.638 2.165 7.578 2.707-9.743.812 11.367 5.413-5.683-3.789 8.931 3.789-1.353-7.307 8.12z" style="fill:#ccd6a6"/><path d="M179.862 289.454h11.129v10.319h-11.129z" style="fill:#fff;stroke:#263238;stroke-linecap:round;stroke-linejoin:round;stroke-miterlimit:10"/><path d="M179.2 287.009h12.454v3.322H179.2z" style="fill:#fff;stroke:#263238;stroke-linecap:round;stroke-linejoin:round;stroke-miterlimit:10"/><path d="M153.787 287.218s-2.707 0-5.684-.541c-2.977-.541-3.519-2.436-2.165-2.977 1.353-.541 5.955.271 5.955.271s-5.955 0-6.767-3.519c-.812-3.519 2.165-3.248 2.977-2.436.812.812 2.977 2.436 2.977 2.436s-4.601-4.601-4.601-7.308 2.977-2.436 3.789-.812c.812 1.624 2.707 6.496 2.707 6.496s-2.977-8.661.812-7.308c3.789 1.353 2.977 5.413 2.977 6.225v3.519s3.789-7.308 5.143-5.684c1.353 1.624-1.895 4.601-1.895 4.601s1.895-7.037 6.496-6.767c4.601.271.271 3.519-.541 4.872-.812 1.353-4.331 4.331-4.331 4.331s7.849-3.519 11.639-3.519c3.789 0 .271 4.331-1.895 4.601-2.165.271-6.225.812-6.225.812s5.413 2.436 3.248 2.977-7.579-.541-7.579-.541l-7.037.271z" style="fill:#ccd6a6"/><path d="M151.442 289.454h11.129v10.319h-11.129z" style="fill:#fff;stroke:#263238;stroke-linecap:round;stroke-linejoin:round;stroke-miterlimit:10"/><path d="M150.78 287.009h12.454v3.322H150.78z" style="fill:#fff;stroke:#263238;stroke-linecap:round;stroke-linejoin:round;stroke-miterlimit:10"/><path d="M170.538 237.266v4.992h1.564v-5.473a2.346 2.346 0 1 1 4.692 0v6.797h1.444v-3.609a1.684 1.684 0 0 1 3.368 0v5.534c0 .598-.485 1.083-1.083 1.083h-3.729v4.09h-4.691v-5.293h-3.248a1.323 1.323 0 0 1-1.323-1.323v-6.796c0-.83.673-1.504 1.504-1.504a1.5 1.5 0 0 1 1.502 1.502z" style="fill:#ccd6a6"/><path d="M168.367 250.235h11.129v10.319h-11.129z" style="fill:#fff;stroke:#263238;stroke-linecap:round;stroke-linejoin:round;stroke-miterlimit:10"/><path d="M167.705 247.79h12.454v3.322h-12.454z" style="fill:#fff;stroke:#263238;stroke-linecap:round;stroke-linejoin:round;stroke-miterlimit:10"/><path d="M127.565 315.814v4.992h1.564v-5.474a2.346 2.346 0 1 1 4.692 0v6.797h1.443v-3.609a1.684 1.684 0 0 1 3.368 0v5.534c0 .598-.485 1.083-1.083 1.083h-3.729v4.09h-4.692v-5.293h-3.248a1.323 1.323 0 0 1-1.323-1.323v-6.796a1.503 1.503 0 1 1 3.008-.001z" style="fill:#ccd6a6"/><path d="M125.394 328.784h11.129v10.319h-11.129z" style="fill:#fff;stroke:#263238;stroke-linecap:round;stroke-linejoin:round;stroke-miterlimit:10"/><path d="M124.732 326.338h12.454v3.322h-12.454z" style="fill:#fff;stroke:#263238;stroke-linecap:round;stroke-linejoin:round;stroke-miterlimit:10"/><path d="M182.764 315.814v4.992h1.564v-5.474a2.346 2.346 0 1 1 4.692 0v6.797h1.443v-3.609a1.684 1.684 0 0 1 3.368 0v5.534c0 .598-.485 1.083-1.083 1.083h-3.729v4.09h-4.692v-5.293h-3.248a1.323 1.323 0 0 1-1.323-1.323v-6.796a1.503 1.503 0 1 1 3.008-.001z" style="fill:#ccd6a6"/><path d="M180.593 328.784h11.129v10.319h-11.129z" style="fill:#fff;stroke:#263238;stroke-linecap:round;stroke-linejoin:round;stroke-miterlimit:10"/><path d="M179.931 326.338h12.454v3.322h-12.454z" style="fill:#fff;stroke:#263238;stroke-linecap:round;stroke-linejoin:round;stroke-miterlimit:10"/><path d="M154.456 328.566s-1.409-2.466-3.875-4.579c-2.466-2.113-3.17-7.045-3.17-7.045s1.057-.352 3.17 1.761c2.114 2.113 3.522 4.931 3.522 4.931s-1.409-5.988-1.409-8.102c0-2.113 3.522-7.397 3.522-7.397s1.057 3.875 1.057 5.636v8.101s2.113-4.227 4.931-6.693c2.818-2.466 7.045-3.522 7.045-3.522s.352 4.227-1.057 5.636c-1.409 1.409-7.397 6.34-7.397 6.34l8.101-1.409-8.101 4.931s-1.511 1.975-2.818 1.409-3.521.002-3.521.002z" style="fill:#ccd6a6"/><path d="M151.108 328.784h11.129v10.319h-11.129z" style="fill:#fff;stroke:#263238;stroke-linecap:round;stroke-linejoin:round;stroke-miterlimit:10"/><path d="M150.445 326.338h12.454v3.322h-12.454z" style="fill:#fff;stroke:#263238;stroke-linecap:round;stroke-linejoin:round;stroke-miterlimit:10"/><path d="M189.244 247.972s-3.519-2.977-4.601-4.06c-1.083-1.083-3.789-4.06-1.624-2.977 2.165 1.083 4.601 2.977 4.601 2.977s-1.895-5.684-1.895-7.308c0-1.624 2.707-.541 4.06 2.165 1.353 2.707 2.165 4.601 2.165 4.601s-2.436-10.827-.271-11.368c2.165-.541 2.707 7.037 2.707 7.037s1.895-13.263 4.601-10.285c2.707 2.977-1.895 10.827-1.895 10.827s5.413-3.789 4.331-.812c-1.083 2.977-4.06 4.06-4.06 4.06s7.849-1.895 5.684 1.083c-2.165 2.977-9.203 5.413-9.203 5.413l-4.6-1.353z" style="fill:#ccd6a6"/><path d="M187.56 250.235h11.129v10.319H187.56z" style="fill:#fff;stroke:#263238;stroke-linecap:round;stroke-linejoin:round;stroke-miterlimit:10"/><path d="M186.898 247.79h12.454v3.322h-12.454z" style="fill:#fff;stroke:#263238;stroke-linecap:round;stroke-linejoin:round;stroke-miterlimit:10"/><path d="M145.938 247.972s-3.519-2.977-4.601-4.06c-1.083-1.083-3.789-4.06-1.624-2.977 2.165 1.083 4.601 2.977 4.601 2.977s-1.895-5.684-1.895-7.308c0-1.624 2.707-.541 4.06 2.165 1.353 2.707 2.165 4.601 2.165 4.601s-2.436-10.827-.271-11.368c2.165-.541 2.707 7.037 2.707 7.037s1.895-13.263 4.601-10.285c2.707 2.977-1.895 10.827-1.895 10.827s5.413-3.789 4.331-.812c-1.083 2.977-4.06 4.06-4.06 4.06s7.849-1.895 5.684 1.083c-2.165 2.977-9.203 5.413-9.203 5.413l-4.6-1.353z" style="fill:#ccd6a6"/><path d="M144.254 250.235h11.129v10.319h-11.129z" style="fill:#fff;stroke:#263238;stroke-linecap:round;stroke-linejoin:round;stroke-miterlimit:10"/><path d="M143.591 247.79h12.454v3.322h-12.454z" style="fill:#fff;stroke:#263238;stroke-linecap:round;stroke-linejoin:round;stroke-miterlimit:10"/><path d="M111 260h99v5h-99zM111 299.418h99v5h-99zM111 338.836h99v5h-99z" style="fill:#ccd6a6;stroke:#263238;stroke-linecap:round;stroke-linejoin:round;stroke-miterlimit:10"/><path d="M111 260h3.495v126.485H111zM206.505 260H210v126.485h-3.495z" style="fill:#ccd6a6;stroke:#263238;stroke-linecap:round;stroke-linejoin:round;stroke-miterlimit:10"/><path d="M352.274 358.328s-3.272-4.605-4.635-11.36c-1.363-6.755-1.636-9.825-2.181-14.738-.545-4.912-1.636-12.895-1.636-12.895s5.453 7.369 6.271 10.746c.818 3.377 2.181 7.062 2.727 11.36.545 4.298 1.363 7.062 1.636 8.904.273 1.842.273 6.448.273 6.448s.273-13.816-.545-20.264c-.818-6.448-1.636-11.667-1.363-16.58.273-4.913.273-5.834.545-8.904.273-3.07.545-8.904.545-8.904s3.272 10.132 4.635 16.58c1.363 6.448.818 8.597 1.363 14.123.545 5.527.818 6.755.273 9.518-.545 2.763-.273 3.07-1.09 6.755-.818 3.684-1.363 4.605-1.363 4.605s3.817-9.825 4.908-15.045c1.091-5.219 2.727-9.518 3.817-11.974 1.091-2.456 1.091-2.456 2.727-5.22l4.362-7.369s.273 11.053-1.091 15.045-1.909 7.062-3.544 10.746c-1.636 3.684-1.909 5.527-2.181 7.983-.273 2.456-.273 4.605-1.363 6.141-1.091 1.535-1.363 3.684-2.181 4.605-.818.921-2.181 1.842-2.181 1.842s6.543-10.132 8.179-12.588c1.636-2.456 1.636-3.07 4.09-4.605 2.454-1.535 3.817-2.456 3.817-2.456s-4.908 11.053-6.271 13.202-2.181 4.912-4.09 6.448c-1.909 1.535-2.999 2.763-2.999 2.763h-16.086s-3.272-4.298-3.817-8.29-.818-7.983-.818-7.983 2.999 2.456 4.362 3.991c1.36 1.536 4.905 7.37 4.905 7.37z" style="fill:#ccd6a6"/><path d="M343.859 363.023h27.773v23.365h-27.773z" style="fill:#fff;stroke:#263238;stroke-linecap:round;stroke-linejoin:round;stroke-miterlimit:10"/><path d="M342.206 359.937h31.079v5.07h-31.079z" style="fill:#fff;stroke:#263238;stroke-linecap:round;stroke-linejoin:round;stroke-miterlimit:10"/><path d="M384.246 284.027c1.096-.318 5.063-1.716 7.275-5.817 2.583-4.788 1.478-8.908 1.478-8.908s-6.717 2.854-8.436 6.77c-.777 1.77-.975 3.577-.961 5.031-2.59-4.897-13.273-8.129-13.273-8.129s1.535 8.597 4.912 11.36c2.515 2.058 5.708 4.283 7.176 5.287v7.614c-.603-.905-2.641-3.646-5.948-4.918-3.992-1.535-10.746 1.228-10.746 1.228s2.149 3.684 7.369 5.219c4.572 1.345 8.437-.608 9.325-1.114v11.865c-.603-.905-2.641-3.646-5.948-4.918-3.992-1.535-10.746 1.228-10.746 1.228s2.149 3.684 7.369 5.22c4.572 1.345 8.437-.608 9.325-1.114v8.795c-.603-.905-2.641-3.646-5.948-4.918-3.992-1.535-10.746 1.228-10.746 1.228s2.149 3.684 7.369 5.22c4.572 1.345 8.437-.608 9.325-1.114v13.4c-.603-.905-2.641-3.646-5.948-4.918-3.992-1.535-10.746 1.228-10.746 1.228s2.149 3.684 7.369 5.219c4.572 1.345 8.437-.608 9.325-1.114v11.865c-.603-.905-2.641-3.646-5.948-4.918-3.992-1.535-10.746 1.228-10.746 1.228s2.149 3.684 7.369 5.22c4.572 1.345 8.437-.608 9.325-1.114v19.843a.5.5 0 0 0 1 0v-75.187c.354-.579 1.048-2.22.829-5.867z" style="fill:#ccd6a6"/><path d="M389.672 292.316c-3.991 1.535-6.141 5.22-6.141 5.22s4.298 2.763 9.518 1.228c5.22-1.535 7.369-5.219 7.369-5.219s-6.754-2.764-10.746-1.229zM389.672 304.29c-3.991 1.535-6.141 5.219-6.141 5.219s4.298 2.763 9.518 1.228c5.22-1.535 7.369-5.22 7.369-5.22s-6.754-2.762-10.746-1.227zM389.672 313.501c-3.991 1.535-6.141 5.22-6.141 5.22s4.298 2.763 9.518 1.228c5.22-1.535 7.369-5.22 7.369-5.22s-6.754-2.763-10.746-1.228zM389.672 327.625c-3.991 1.535-6.141 5.22-6.141 5.22s4.298 2.763 9.518 1.228c5.22-1.535 7.369-5.219 7.369-5.219s-6.754-2.764-10.746-1.229zM389.672 339.906c-3.991 1.535-6.141 5.219-6.141 5.219s4.298 2.763 9.518 1.228c5.22-1.535 7.369-5.22 7.369-5.22s-6.754-2.762-10.746-1.227z" style="fill:#ccd6a6"/><g style="opacity:.5"><path d="M384.246 284.027c1.096-.318 5.063-1.716 7.275-5.817 2.583-4.788 1.478-8.908 1.478-8.908s-6.717 2.854-8.436 6.77c-.777 1.77-.975 3.577-.961 5.031-2.59-4.897-13.273-8.129-13.273-8.129s1.535 8.597 4.912 11.36c2.515 2.058 5.708 4.283 7.176 5.287v7.614c-.603-.905-2.641-3.646-5.948-4.918-3.992-1.535-10.746 1.228-10.746 1.228s2.149 3.684 7.369 5.219c4.572 1.345 8.437-.608 9.325-1.114v11.865c-.603-.905-2.641-3.646-5.948-4.918-3.992-1.535-10.746 1.228-10.746 1.228s2.149 3.684 7.369 5.22c4.572 1.345 8.437-.608 9.325-1.114v8.795c-.603-.905-2.641-3.646-5.948-4.918-3.992-1.535-10.746 1.228-10.746 1.228s2.149 3.684 7.369 5.22c4.572 1.345 8.437-.608 9.325-1.114v13.4c-.603-.905-2.641-3.646-5.948-4.918-3.992-1.535-10.746 1.228-10.746 1.228s2.149 3.684 7.369 5.219c4.572 1.345 8.437-.608 9.325-1.114v11.865c-.603-.905-2.641-3.646-5.948-4.918-3.992-1.535-10.746 1.228-10.746 1.228s2.149 3.684 7.369 5.22c4.572 1.345 8.437-.608 9.325-1.114v19.843a.5.5 0 0 0 1 0v-75.187c.354-.579 1.048-2.22.829-5.867z"/><path d="M389.672 292.316c-3.991 1.535-6.141 5.22-6.141 5.22s4.298 2.763 9.518 1.228c5.22-1.535 7.369-5.219 7.369-5.219s-6.754-2.764-10.746-1.229zM389.672 304.29c-3.991 1.535-6.141 5.219-6.141 5.219s4.298 2.763 9.518 1.228c5.22-1.535 7.369-5.22 7.369-5.22s-6.754-2.762-10.746-1.227zM389.672 313.501c-3.991 1.535-6.141 5.22-6.141 5.22s4.298 2.763 9.518 1.228c5.22-1.535 7.369-5.22 7.369-5.22s-6.754-2.763-10.746-1.228zM389.672 327.625c-3.991 1.535-6.141 5.22-6.141 5.22s4.298 2.763 9.518 1.228c5.22-1.535 7.369-5.219 7.369-5.219s-6.754-2.764-10.746-1.229zM389.672 339.906c-3.991 1.535-6.141 5.219-6.141 5.219s4.298 2.763 9.518 1.228c5.22-1.535 7.369-5.22 7.369-5.22s-6.754-2.762-10.746-1.227z"/></g><path d="M378.191 363.023h11.129v23.365h-11.129z" style="fill:#fff;stroke:#263238;stroke-linecap:round;stroke-linejoin:round;stroke-miterlimit:10"/><path d="M377.529 359.937h12.454v5.07h-12.454zM301.759 363.023h27.773v23.365h-27.773z" style="fill:#fff;stroke:#263238;stroke-linecap:round;stroke-linejoin:round;stroke-miterlimit:10"/><path d="M300.106 359.937h31.079v5.07h-31.079z" style="fill:#fff;stroke:#263238;stroke-linecap:round;stroke-linejoin:round;stroke-miterlimit:10"/><path d="M306.467 319.028s-.614-2.763-3.991-4.913c-3.377-2.149-10.132-4.605-10.132-4.605s-.307 1.842 2.456 5.219c2.763 3.377 8.597 7.676 8.597 7.676s-2.149.307-6.141.307c-3.991 0-7.676 5.219-7.676 5.219s5.526.921 7.369.921c1.842 0 8.597-2.149 8.597-2.149s-2.149 3.377-2.149 5.834c0 2.456 1.228 9.518 1.228 9.518s3.684-1.535 4.605-4.605c.921-3.07 1.535-9.518 1.535-9.518s.614 1.228 3.07 3.07c2.456 1.842 9.211 4.298 9.211 4.298s-.614-3.684-3.377-7.676c-2.763-3.991-7.676-5.219-7.676-5.219s2.149 0 3.684-1.842c1.535-1.842 3.991-8.29 3.991-8.29s-3.07-.921-6.141.614c-3.069 1.535-7.06 6.141-7.06 6.141z" style="fill:#ccd6a6"/><path d="M306.467 319.028s-.614-2.763-3.991-4.913c-3.377-2.149-10.132-4.605-10.132-4.605s-.307 1.842 2.456 5.219c2.763 3.377 8.597 7.676 8.597 7.676s-2.149.307-6.141.307c-3.991 0-7.676 5.219-7.676 5.219s5.526.921 7.369.921c1.842 0 8.597-2.149 8.597-2.149s-2.149 3.377-2.149 5.834c0 2.456 1.228 9.518 1.228 9.518s3.684-1.535 4.605-4.605c.921-3.07 1.535-9.518 1.535-9.518s.614 1.228 3.07 3.07c2.456 1.842 9.211 4.298 9.211 4.298s-.614-3.684-3.377-7.676c-2.763-3.991-7.676-5.219-7.676-5.219s2.149 0 3.684-1.842c1.535-1.842 3.991-8.29 3.991-8.29s-3.07-.921-6.141.614c-3.069 1.535-7.06 6.141-7.06 6.141z" style="opacity:.5"/><path d="M321.045 343.255s-.373-1.68-2.426-2.986c-2.053-1.306-6.159-2.8-6.159-2.8s-.187 1.12 1.493 3.173c1.68 2.053 5.226 4.666 5.226 4.666s-1.306.187-3.733.187-4.666 3.173-4.666 3.173 3.359.56 4.479.56 5.226-1.307 5.226-1.307-1.306 2.053-1.306 3.546.747 5.786.747 5.786 2.24-.933 2.799-2.8c.56-1.866.933-5.786.933-5.786s.373.746 1.866 1.866 5.599 2.613 5.599 2.613-.373-2.24-2.053-4.666-4.666-3.173-4.666-3.173 1.306 0 2.24-1.12c.933-1.12 2.426-5.039 2.426-5.039s-1.866-.56-3.733.373c-1.865.935-4.292 3.734-4.292 3.734z" style="fill:#ccd6a6"/><path d="M321.045 343.255s-.373-1.68-2.426-2.986c-2.053-1.306-6.159-2.8-6.159-2.8s-.187 1.12 1.493 3.173c1.68 2.053 5.226 4.666 5.226 4.666s-1.306.187-3.733.187-4.666 3.173-4.666 3.173 3.359.56 4.479.56 5.226-1.307 5.226-1.307-1.306 2.053-1.306 3.546.747 5.786.747 5.786 2.24-.933 2.799-2.8c.56-1.866.933-5.786.933-5.786s.373.746 1.866 1.866 5.599 2.613 5.599 2.613-.373-2.24-2.053-4.666-4.666-3.173-4.666-3.173 1.306 0 2.24-1.12c.933-1.12 2.426-5.039 2.426-5.039s-1.866-.56-3.733.373c-1.865.935-4.292 3.734-4.292 3.734z" style="opacity:.5"/><path d="M312.138 354.893s-.452-2.033-2.937-3.615-7.456-3.389-7.456-3.389-.226 1.355 1.807 3.841c2.033 2.485 6.326 5.648 6.326 5.648s-1.581.226-4.519.226c-2.937 0-5.648 3.841-5.648 3.841s4.067.678 5.422.678c1.356 0 6.326-1.582 6.326-1.582s-1.582 2.485-1.582 4.293.904 7.004.904 7.004 2.711-1.13 3.389-3.389c.678-2.259 1.13-7.004 1.13-7.004s.452.904 2.259 2.259c1.807 1.356 6.778 3.163 6.778 3.163s-.452-2.711-2.485-5.648-5.648-3.841-5.648-3.841 1.582 0 2.711-1.356c1.13-1.356 2.937-6.1 2.937-6.1s-2.259-.678-4.519.452c-2.258 1.13-5.195 4.519-5.195 4.519z" style="fill:#ccd6a6"/><path d="M303.704 341.748s-.452-2.033-2.937-3.615c-2.485-1.581-7.456-3.389-7.456-3.389s-.226 1.355 1.807 3.841c2.033 2.485 6.326 5.648 6.326 5.648s-1.582.226-4.518.226c-2.937 0-5.648 3.841-5.648 3.841s4.067.678 5.422.678c1.356 0 6.326-1.582 6.326-1.582s-1.581 2.485-1.581 4.293c0 1.807.904 7.004.904 7.004s2.711-1.13 3.389-3.389c.678-2.259 1.13-7.004 1.13-7.004s.452.904 2.259 2.259c1.807 1.356 6.778 3.163 6.778 3.163s-.452-2.711-2.485-5.648-5.648-3.841-5.648-3.841 1.582 0 2.711-1.355c1.13-1.356 2.937-6.1 2.937-6.1s-2.259-.678-4.518.452c-2.261 1.129-5.198 4.518-5.198 4.518z" style="fill:#ccd6a6"/><path d="M318.391 330.914s-1.984-.634-4.602.715c-2.618 1.35-6.684 4.732-6.684 4.732s1.057.878 4.228.375c3.171-.504 8.066-2.618 8.066-2.618s-.602 1.48-2.082 4.017c-1.48 2.537.471 6.814.471 6.814s2.635-3.171 3.318-4.342c.683-1.171 1.822-6.261 1.822-6.261s1.35 2.618 2.911 3.529 6.505 2.749 6.505 2.749.391-2.911-1.219-4.635c-1.61-1.724-5.48-4.505-5.48-4.505s1.008.065 3.09-.813 6.148-4.26 6.148-4.26-2.569-.976-6.131-.7c-3.562.276-6.164 2.943-6.164 2.943s.797-1.366.195-3.025c-.602-1.659-3.789-5.611-3.789-5.611s-1.724 1.61-1.887 4.13c-.164 2.521 1.284 6.766 1.284 6.766z" style="fill:#ccd6a6"/><path d="M321.571 370.422h37.523v15.966h-37.523z" style="fill:#fff;stroke:#263238;stroke-linecap:round;stroke-linejoin:round;stroke-miterlimit:10"/><path d="M319.338 368.313h41.99v3.464h-41.99z" style="fill:#fff;stroke:#263238;stroke-linecap:round;stroke-linejoin:round;stroke-miterlimit:10"/><path d="M335.635 361.705s1.842-.921-1.228-3.07c-3.07-2.149-3.991-2.149-3.991-2.149l3.07 5.22s-3.684-1.228-6.141-1.228c-2.456 0-4.298.921-4.298.921l6.296 3.302s-6.603-.538-7.832-.538c-1.228 0-4.605 1.228-4.605 1.228l4.605.921-7.062 2.149 7.369.614v3.07l4.606-2.763s.307.921.921 1.842c.614.921 2.763 3.377 2.763 3.377l2.763-4.298s.921 2.763 1.842 2.763 3.07.614 3.07.614l.706-3.941 4.513 3.327v-2.763l2.456 2.763 2.149-3.377.307 2.763 3.991-1.842 1.842 3.684.921-4.605 2.581.427.489-1.348 1.228.614c1.842.921 4.913 1.228 4.913 1.228s-1.535-2.149-2.456-3.07c-.921-.921-3.377-1.842-3.377-1.842l2.149-.921s-4.298-1.535-5.526-1.535c-1.228 0-3.377 1.228-3.377 1.228s1.842-1.228 2.456-2.456c.614-1.228 1.228-3.377 1.228-3.377s-4.605 0-5.22 1.535c-.614 1.535-1.842 3.991-1.842 3.991l-2.149-4.605s-1.228 1.228-1.535 2.149c-.307.921-.614 2.456-.614 2.456l-1.842-3.684c-.614-1.228-2.149-2.456-2.149-2.456s-.307 2.149-.307 3.377v2.149l-1.535-3.684v3.07l-2.148-1.23z" style="fill:#ccd6a6"/><path d="M335.635 361.705s1.842-.921-1.228-3.07c-3.07-2.149-3.991-2.149-3.991-2.149l3.07 5.22s-3.684-1.228-6.141-1.228c-2.456 0-4.298.921-4.298.921l6.296 3.302s-6.603-.538-7.832-.538c-1.228 0-4.605 1.228-4.605 1.228l4.605.921-7.062 2.149 7.369.614v3.07l4.606-2.763s.307.921.921 1.842c.614.921 2.763 3.377 2.763 3.377l2.763-4.298s.921 2.763 1.842 2.763 3.07.614 3.07.614l.706-3.941 4.513 3.327v-2.763l2.456 2.763 2.149-3.377.307 2.763 3.991-1.842 1.842 3.684.921-4.605 2.581.427.489-1.348 1.228.614c1.842.921 4.913 1.228 4.913 1.228s-1.535-2.149-2.456-3.07c-.921-.921-3.377-1.842-3.377-1.842l2.149-.921s-4.298-1.535-5.526-1.535c-1.228 0-3.377 1.228-3.377 1.228s1.842-1.228 2.456-2.456c.614-1.228 1.228-3.377 1.228-3.377s-4.605 0-5.22 1.535c-.614 1.535-1.842 3.991-1.842 3.991l-2.149-4.605s-1.228 1.228-1.535 2.149c-.307.921-.614 2.456-.614 2.456l-1.842-3.684c-.614-1.228-2.149-2.456-2.149-2.456s-.307 2.149-.307 3.377v2.149l-1.535-3.684v3.07l-2.148-1.23z" style="opacity:.3"/></svg>