<svg xmlns="http://www.w3.org/2000/svg" xml:space="preserve" style="enable-background:new 0 0 500 500" viewBox="0 0 500 500"><ellipse cx="250" cy="357.442" rx="239.421" ry="125.966" style="fill:#f0f0f0"/><ellipse cx="366.737" cy="383.111" rx="70.718" ry="40.829" style="fill:#e0e0e0"/><path d="m41.984 388.371 4.04 2.333c1.273.735 3.338.735 4.611 0l241.94-139.684c1.273-.735 1.273-1.927 0-2.662l-4.04-2.332c-1.273-.735-3.338-.735-4.611 0L41.984 385.709c-1.274.735-1.274 1.927 0 2.662z" style="fill:#e0e0e0"/><path d="M398.289 347.198s.15-17.614 5.439-31.848c5.29-14.233 14.596-24.423 24.684-27.467 10.088-3.044 20.775 7.341 11.202 16.215-9.573 8.874-27.647 19.736-31.351 45.945l-9.974-2.845z" style="fill:#ccd6a6"/><path d="M398.289 347.198s.15-17.614 5.439-31.848c5.29-14.233 14.596-24.423 24.684-27.467 10.088-3.044 20.775 7.341 11.202 16.215-9.573 8.874-27.647 19.736-31.351 45.945l-9.974-2.845z" style="opacity:.15"/><path d="M402.481 344.534a.584.584 0 0 1-.621-.663c4.167-30.427 22.547-47.373 31.684-52.082a.584.584 0 1 1 .536 1.04c-8.95 4.613-26.959 21.252-31.061 51.201a.585.585 0 0 1-.538.504z" style="fill:#fff"/><path d="M397.457 364.085c.254-2.549.046-4.662-.533-7.136-.583-2.489-2.087-4.868-2.204-7.456-.095-2.081 1.204-4.435 2.678-5.842 1.521-1.451 3.536-2.464 4.561-4.299 1.05-1.878.824-4.185 1.317-6.279a9.28 9.28 0 0 1 3.995-5.629 9.278 9.278 0 0 1 6.788-1.251c2.173.448 4.097 1.66 6.087 2.64 2.072 1.021 4.175 1.631 6.488 1.261 2.472-.396 4.899-.794 7.414-.787 4.232.012 9.565 1.44 11.017 5.921.358 1.106.505 2.334.115 3.424-.017.046-.034.092-.053.138-1.227 3.035-5.09 3.652-7.579 5.139-.68.406-1.812.984-2.073 1.809-.261.828.453 1.947.806 2.71.905 1.958 2.211 3.845 2.329 6.065.169 3.172-2.485 6.225-5.155 7.572-2.559 1.292-5.516 1.579-8.381 1.459-1.422-.06-2.973-.181-4.141.632-1.016.707-1.496 1.976-1.648 3.204-.153 1.228-.037 2.476-.154 3.708-.37 3.898-3.197 7.378-6.831 8.834-3.011 1.206-6.46 1.068-9.456-.11-2.481-.976-4.614-3.966-5.095-6.567-.537-2.913-.584-6.225-.292-9.16z" style="fill:#ccd6a6"/><path d="m398.482 371.336-.038-.004a.469.469 0 0 1-.399-.531c4.099-29.267 33.466-37.005 40.515-37.352a.476.476 0 0 1 .493.446.47.47 0 0 1-.446.493c-6.895.34-35.62 7.909-39.632 36.544a.47.47 0 0 1-.493.404z" style="fill:#fff"/><path d="M429.915 352.927a.475.475 0 0 1-.262-.1c-.084-.067-8.616-6.648-21.023-3.247a.47.47 0 0 1-.249-.907c12.886-3.528 21.766 3.347 21.855 3.417a.47.47 0 0 1-.321.837z" style="fill:#fff"/><path d="m93.929 77.672-3.441 1.987v-9.218c-.041-9.548-4.966-13.031-11.234-9.5-6.268 3.531-11.748 10.647-12.24 20.234l-.09 1.756c-1.328-1.038-3.107-1.116-5.115.015-7.023 3.644-8.454 10.193-8.808 17.091l-.041.798-5.778 3.336c-2.97 1.673-5.567 6.632-5.8 11.174-.233 4.543 1.986 7.197 4.956 5.524L93.085 93.88c2.97-1.673 5.567-6.385 5.8-10.928.233-4.543-1.986-6.953-4.956-5.28zM149.148 91.316l-6.621 3.822c.052-.385.093-.862.113-1.243l.13-2.541c.232-4.521-1.976-6.836-4.932-5.171-1.197.674-2.33 1.903-3.273 3.421-.173-5.782-3.3-8.578-7.39-6.274-4.423 2.491-8.289 9.994-8.636 16.758l.003 3.697c0 1.114.005 3.022.228 4.643l-5.499 3.175c-1.64.924-3.073 3.628-3.202 6.136s1.096 4.044 2.736 3.12l35.878-20.714c1.64-.924 3.073-3.454 3.202-5.962.128-2.506-1.097-3.79-2.737-2.867z" style="fill:#ebebeb"/><path d="M36.659 195.294v154.043c0 1.185.261 2.309.702 3.233.222.482.502.904.824 1.245.301.361.555.529 1.044.843.113.073 7.597 4.373 7.818 4.513-.06-.04-.327-.164-.809-.606-.482-.442-.844-.984-1.125-1.606-.361-.863-.582-1.887-.642-3.092V199.731c0-1.807.609-3.792 1.58-5.604l-7.786-4.496c-.989 1.826-1.606 3.834-1.606 5.663z" style="opacity:.9;fill:#ccd6a6"/><path d="M36.659 195.294v154.043c0 1.185.261 2.309.702 3.233.222.482.502.904.824 1.245.301.361.555.529 1.044.843.113.073 7.597 4.373 7.818 4.513-.06-.04-.327-.164-.809-.606-.482-.442-.844-.984-1.125-1.606-.361-.863-.582-1.887-.642-3.092V199.731c0-1.807.609-3.792 1.58-5.604l-7.786-4.496c-.989 1.826-1.606 3.834-1.606 5.663z" style="opacity:.9;fill:#ccd6a6"/><path d="M295.197 55.07v155.621c0 3.915-2.751 8.654-6.125 10.602L50.594 358.988c-.703.402-1.405.602-2.028.582a3.5 3.5 0 0 1-.783-.1c-.181-.04-.362-.1-.523-.181a4.23 4.23 0 0 1-.321-.181l-.361-.241c-.12-.1-.241-.181-.341-.301-.482-.442-.844-.984-1.125-1.606a7.659 7.659 0 0 1-.643-3.092V199.732c0-3.896 2.751-8.655 6.125-10.602L289.072 51.536c1.587-.904 3.012-1.044 4.117-.522.18.08.361.181.522.301l.04.04c.16.121.281.241.402.402.08.06.121.14.18.221.08.1.161.201.201.321.161.241.281.502.361.783.06.161.121.341.141.542.02.04.04.08.02.121.06.181.08.361.1.562.021.241.041.502.041.763z" style="fill:#ccd6a6"/><g style="opacity:.7"><path d="M295.197 55.07v155.621c0 3.915-2.751 8.654-6.125 10.602L50.594 358.988c-.703.402-1.405.602-2.028.582a3.5 3.5 0 0 1-.783-.1c-.181-.04-.362-.1-.523-.181a4.23 4.23 0 0 1-.321-.181l-.361-.241c-.12-.1-.241-.181-.341-.301-.482-.442-.844-.984-1.125-1.606a7.659 7.659 0 0 1-.643-3.092V199.732c0-3.896 2.751-8.655 6.125-10.602L289.072 51.536c1.587-.904 3.012-1.044 4.117-.522.18.08.361.181.522.301l.04.04c.16.121.281.241.402.402.08.06.121.14.18.221.08.1.161.201.201.321.161.241.281.502.361.783.06.161.121.341.141.542.02.04.04.08.02.121.06.181.08.361.1.562.021.241.041.502.041.763z" style="fill:#fff"/></g><path d="M285.699 46.757c-1.125-.683-2.691-.663-4.437.361L42.763 184.712a9.34 9.34 0 0 0-1.28.9c-.066.055-.126.123-.192.179-.35.305-.694.626-1.017.982-.027.03-.051.064-.078.094a14.727 14.727 0 0 0-1.933 2.765v.001l7.786 4.496a14.6 14.6 0 0 1 1.939-2.798c.033-.037.062-.078.096-.115.323-.355.663-.678 1.013-.983.071-.062.136-.135.208-.195a9.525 9.525 0 0 1 1.281-.903l.008-.006L289.072 51.536c1.587-.903 3.012-1.044 4.117-.522-1.306-.683-6.386-3.595-7.49-4.257z" style="fill:#ccd6a6"/><g style="opacity:.8"><path d="M285.699 46.757c-1.125-.683-2.691-.663-4.437.361L42.763 184.712a9.34 9.34 0 0 0-1.28.9c-.066.055-.126.123-.192.179-.35.305-.694.626-1.017.982-.027.03-.051.064-.078.094a14.727 14.727 0 0 0-1.933 2.765v.001l7.786 4.496a14.6 14.6 0 0 1 1.939-2.798c.033-.037.062-.078.096-.115.323-.355.663-.678 1.013-.983.071-.062.136-.135.208-.195a9.525 9.525 0 0 1 1.281-.903l.008-.006L289.072 51.536c1.587-.903 3.012-1.044 4.117-.522-1.306-.683-6.386-3.595-7.49-4.257z" style="fill:#fff"/></g><path d="M38.264 189.633v-.001z" style="opacity:.2;fill:#ccd6a6"/><path d="M59.635 195.035c0-.001-.001-.001 0 0l-.047-.028c-.707-.397-1.651-.344-2.688.254-1.564.904-2.918 2.803-3.558 4.795-.254.789-.362 1.207-.362 1.971v.613c0 2.071 2.31 4.857 3.389 5.852a.427.427 0 0 0 .079.059c.002.003.004.003.007.003a.53.53 0 0 0 .755-.219c.931-1.907 3.645-7.651 3.645-9.877v-.613c0-1.38-.467-2.358-1.22-2.81zm-4.227 6.608a2.002 2.002 0 0 1-.058-.49c0-1.154.81-2.559 1.811-3.136.113-.064.223-.117.33-.156.093-.034.183-.058.27-.073.706-.121 1.211.363 1.211 1.274 0 1.154-.81 2.559-1.811 3.136-.844.488-1.552.232-1.753-.555z" style="fill:#455a64"/><path d="M64.792 195.657c0 1.046.783 1.442 1.749.885l16.19-9.347c.966-.558 1.749-1.858 1.749-2.904 0-1.046-.783-1.442-1.749-.885l-16.19 9.347c-.966.557-1.749 1.857-1.749 2.904z" style="opacity:.8;fill:#ccd6a6"/><path d="M64.792 195.657c0 1.046.783 1.442 1.749.885l16.19-9.347c.966-.558 1.749-1.858 1.749-2.904 0-1.046-.783-1.442-1.749-.885l-16.19 9.347c-.966.557-1.749 1.857-1.749 2.904z" style="opacity:.2"/><path d="m65.841 200.13 12.36-7.2c.579-.335 1.049-.097 1.049.531s-.47 1.408-1.049 1.743l-12.36 7.199c-.58.335-1.049.097-1.05-.531s.471-1.407 1.05-1.742z" style="fill:#ccd6a6"/><path d="m136.055 245.103-2.459 1.366v-5.827c0-4.294-3.425-5.31-7.144-3.149-3.719 2.162-6.733 7.395-6.733 11.689v.786c-.844-.333-1.933-.199-3.125.494-2.676 1.555-4.845 5.321-4.845 8.411v.357l-3.428 1.993c-1.762 1.024-3.191 3.504-3.191 5.539 0 2.035 1.429 2.854 3.191 1.83l27.735-16.121c1.762-1.024 3.191-3.504 3.191-5.539-.001-2.034-1.43-2.853-3.192-1.829z" style="fill:#fafafa"/><path d="M121.573 240.331c-1.785 2.475-2.94 5.523-2.998 8.288-.839-.042-1.785.241-2.716.781-1.752 1.013-3.272 2.84-4.219 4.867-1.877-.257-3.122-1.927-3.122-4.659 0-4.185 2.973-9.293 6.644-11.41 3.147-1.812 5.755-.832 6.411 2.133z" style="fill:#ffbda7"/><text style="fill:#455a64;font-family:&quot;Rubik-Bold&quot;;font-size:51.5244px" transform="matrix(.6495 -.375 0 1 56.745 256.696)">24°C</text><path d="M52.979 268.218a.533.533 0 0 1-.267-.993l90.835-52.444a.531.531 0 1 1 .533.921l-90.835 52.444a.527.527 0 0 1-.266.072z" style="fill:#ccd6a6"/><text style="fill:#455a64;font-family:&quot;Rubik-Bold&quot;;font-size:8.5188px" transform="matrix(.6495 -.375 0 1 78.979 267.7)">27°C</text><text style="fill:#455a64;font-family:&quot;Rubik-Bold&quot;;font-size:8.5188px" transform="matrix(.6495 -.375 0 1 78.98 282.682)">11°C</text><text style="fill:#455a64;font-family:&quot;Rubik-Bold&quot;;font-size:9.2255px" transform="matrix(.6495 -.375 0 1 80.417 300.62)">75%</text><text style="fill:#455a64;font-family:&quot;Rubik-Bold&quot;;font-size:9.2255px" transform="matrix(.6495 -.375 0 1 112.456 282.062)">15 km/h</text><text style="fill:#455a64;font-family:&quot;Rubik-Bold&quot;;font-size:8.5188px" transform="matrix(.6495 -.375 0 1 61.677 277.69)">MAX</text><text style="fill:#455a64;font-family:&quot;Rubik-Bold&quot;;font-size:8.5188px" transform="matrix(.6495 -.375 0 1 61.677 292.672)">MIN</text><path d="m74.369 299.9-1.013.563v-2.4c0-1.769-1.411-2.188-2.943-1.297-1.532.891-2.774 3.046-2.774 4.815v.324c-.348-.137-.796-.082-1.287.203-1.102.641-1.996 2.192-1.996 3.465v.147l-1.412.821c-.726.422-1.314 1.444-1.314 2.282 0 .838.589 1.176 1.314.754l11.425-6.641c.726-.422 1.314-1.444 1.314-2.282.001-.839-.588-1.176-1.314-.754zM65.602 311.768l.007.007c.107.1.249.117.406.027.236-.136.44-.479.537-.861a1.34 1.34 0 0 0 .055-.386v-.123c0-.417-.349-1.044-.511-1.276a.087.087 0 0 0-.012-.014l-.001-.001c-.039-.04-.093-.032-.114.022-.14.357-.55 1.433-.55 1.881v.123c-.001.278.069.488.183.601zM69.147 309.721l.007.007c.107.1.249.117.406.027.236-.137.44-.479.537-.861a1.34 1.34 0 0 0 .055-.386v-.123c0-.417-.348-1.044-.511-1.276a.174.174 0 0 0-.012-.014l-.001-.001c-.039-.04-.093-.032-.114.022-.141.357-.55 1.433-.55 1.881v.123c-.001.278.07.488.183.601zM72.692 307.674l.007.007c.107.1.249.117.406.027.236-.137.44-.479.537-.861a1.34 1.34 0 0 0 .055-.386v-.123c0-.417-.349-1.044-.511-1.276a.174.174 0 0 0-.012-.014l-.001-.001c-.039-.04-.093-.032-.114.022-.141.357-.55 1.433-.55 1.881v.123c-.001.278.07.488.183.601z" style="fill:#ccd6a6"/><g style="opacity:.1"><path d="m74.369 299.9-1.013.563v-2.4c0-1.769-1.411-2.188-2.943-1.297-1.532.891-2.774 3.046-2.774 4.815v.324c-.348-.137-.796-.082-1.287.203-1.102.641-1.996 2.192-1.996 3.465v.147l-1.412.821c-.726.422-1.314 1.444-1.314 2.282 0 .838.589 1.176 1.314.754l11.425-6.641c.726-.422 1.314-1.444 1.314-2.282.001-.839-.588-1.176-1.314-.754zM65.602 311.768l.007.007c.107.1.249.117.406.027.236-.136.44-.479.537-.861a1.34 1.34 0 0 0 .055-.386v-.123c0-.417-.349-1.044-.511-1.276a.087.087 0 0 0-.012-.014l-.001-.001c-.039-.04-.093-.032-.114.022-.14.357-.55 1.433-.55 1.881v.123c-.001.278.069.488.183.601zM69.147 309.721l.007.007c.107.1.249.117.406.027.236-.137.44-.479.537-.861a1.34 1.34 0 0 0 .055-.386v-.123c0-.417-.348-1.044-.511-1.276a.174.174 0 0 0-.012-.014l-.001-.001c-.039-.04-.093-.032-.114.022-.141.357-.55 1.433-.55 1.881v.123c-.001.278.07.488.183.601zM72.692 307.674l.007.007c.107.1.249.117.406.027.236-.137.44-.479.537-.861a1.34 1.34 0 0 0 .055-.386v-.123c0-.417-.349-1.044-.511-1.276a.174.174 0 0 0-.012-.014l-.001-.001c-.039-.04-.093-.032-.114.022-.141.357-.55 1.433-.55 1.881v.123c-.001.278.07.488.183.601z"/></g><path d="M102.177 288.461c-.407 0-.787-.097-1.124-.292-.801-.462-1.242-1.406-1.242-2.657 0-2.415 1.701-5.362 3.793-6.568 1.082-.627 2.12-.714 2.921-.253.801.462 1.242 1.406 1.242 2.657 0 2.415-1.701 5.362-3.792 6.568-.627.363-1.238.545-1.798.545zm3.221-9.317c-.427 0-.913.149-1.423.444-1.887 1.089-3.421 3.747-3.421 5.925 0 .974.309 1.689.871 2.013.559.322 1.334.235 2.179-.252 1.886-1.089 3.421-3.747 3.421-5.925 0-.975-.309-1.689-.871-2.013a1.481 1.481 0 0 0-.756-.192zm-1.608.122h.008-.008z" style="fill:#ccd6a6"/><path d="m101.311 284.649 3.702-4.258c.175-.201.501-.027.431.23l-1.607 5.938-.534-2.348-1.992.438zM103.79 278.192a.37.37 0 0 1-.371-.371v-1.387a.37.37 0 1 1 .742 0v1.387a.37.37 0 0 1-.371.371zM103.79 290.739a.37.37 0 0 1-.371-.371v-1.387a.37.37 0 1 1 .742 0v1.387a.37.37 0 0 1-.371.371zM108.619 280.988a.372.372 0 0 1-.186-.693l1.207-.697a.37.37 0 1 1 .371.643l-1.207.697a.375.375 0 0 1-.185.05zM97.754 287.262a.372.372 0 0 1-.186-.693l1.207-.698a.37.37 0 0 1 .507.136.37.37 0 0 1-.136.507l-1.207.698a.362.362 0 0 1-.185.05z" style="fill:#ccd6a6"/><g style="opacity:.1"><path d="M102.177 288.461c-.407 0-.787-.097-1.124-.292-.801-.462-1.242-1.406-1.242-2.657 0-2.415 1.701-5.362 3.793-6.568 1.082-.627 2.12-.714 2.921-.253.801.462 1.242 1.406 1.242 2.657 0 2.415-1.701 5.362-3.792 6.568-.627.363-1.238.545-1.798.545zm3.221-9.317c-.427 0-.913.149-1.423.444-1.887 1.089-3.421 3.747-3.421 5.925 0 .974.309 1.689.871 2.013.559.322 1.334.235 2.179-.252 1.886-1.089 3.421-3.747 3.421-5.925 0-.975-.309-1.689-.871-2.013a1.481 1.481 0 0 0-.756-.192zm-1.608.122h.008-.008z"/><path d="m101.311 284.649 3.702-4.258c.175-.201.501-.027.431.23l-1.607 5.938-.534-2.348-1.992.438zM103.79 278.192a.37.37 0 0 1-.371-.371v-1.387a.37.37 0 1 1 .742 0v1.387a.37.37 0 0 1-.371.371zM103.79 290.739a.37.37 0 0 1-.371-.371v-1.387a.37.37 0 1 1 .742 0v1.387a.37.37 0 0 1-.371.371zM108.619 280.988a.372.372 0 0 1-.186-.693l1.207-.697a.37.37 0 1 1 .371.643l-1.207.697a.375.375 0 0 1-.185.05zM97.754 287.262a.372.372 0 0 1-.186-.693l1.207-.698a.37.37 0 0 1 .507.136.37.37 0 0 1-.136.507l-1.207.698a.362.362 0 0 1-.185.05z"/></g><text style="fill:#455a64;font-family:&quot;Rubik-Bold&quot;;font-size:21.3132px" transform="matrix(.4871 -.2812 0 1 57.353 340.121)">FRIDAY</text><path d="m157.076 287.513 29.708-17.145c2.546-1.47 4.611-5.046 4.611-7.986V123.191c0-2.941-2.064-4.132-4.611-2.662l-29.708 17.145c-2.546 1.47-4.611 5.046-4.611 7.986v139.191c0 2.94 2.064 4.132 4.611 2.662z" style="opacity:.8;fill:#ccd6a6"/><text style="fill:#455a64;font-family:&quot;Rubik-Bold&quot;;font-size:8.5188px" transform="matrix(.6495 -.375 0 1 172.793 238.507)">27°C</text><text style="fill:#455a64;font-family:&quot;Rubik-Bold&quot;;font-size:8.5188px" transform="matrix(.6495 -.375 0 1 172.794 253.49)">11°C</text><text style="fill:#455a64;font-family:&quot;Rubik-Bold&quot;;font-size:8.5188px" transform="matrix(.6495 -.375 0 1 158.184 246.944)">MAX</text><text style="fill:#455a64;font-family:&quot;Rubik-Bold&quot;;font-size:8.5188px" transform="matrix(.6495 -.375 0 1 158.184 261.928)">MIN</text><path d="m184.237 188.934-2.182 1.212v-5.171c0-3.811-3.04-4.713-6.34-2.794-3.3 1.918-5.976 6.563-5.976 10.374v.698c-.749-.296-1.716-.176-2.773.439-2.375 1.38-4.3 4.723-4.3 7.465v.317l-3.043 1.769c-1.564.909-2.832 3.11-2.832 4.916 0 1.806 1.268 2.533 2.832 1.624l24.614-14.307c1.564-.909 2.832-3.11 2.832-4.916 0-1.808-1.268-2.535-2.832-1.626zM165.348 214.502s.001 0 0 0l.015.015c.23.216.537.252.874.058.508-.294.949-1.032 1.157-1.856.083-.326.118-.501.118-.832v-.266c0-.898-.751-2.25-1.102-2.748a.203.203 0 0 0-.026-.031l-.002-.001c-.085-.086-.2-.069-.245.048-.303.768-1.185 3.088-1.185 4.053v.266c0 .597.152 1.051.396 1.294zM172.986 210.092l.015.015c.23.216.537.252.874.058.508-.294.948-1.032 1.157-1.856.083-.326.118-.501.118-.832v-.266c0-.898-.751-2.25-1.102-2.748a.203.203 0 0 0-.026-.031l-.002-.001c-.085-.086-.2-.069-.245.048-.303.768-1.185 3.088-1.185 4.053v.266c0 .597.152 1.051.396 1.294zM180.624 205.682l.015.015c.23.216.537.252.874.058.508-.294.948-1.032 1.157-1.856.083-.326.118-.501.118-.832v-.266c0-.898-.751-2.25-1.102-2.748a.203.203 0 0 0-.026-.031l-.002-.002c-.085-.086-.2-.069-.245.048-.303.768-1.185 3.088-1.185 4.053v.266c-.001.599.151 1.052.396 1.295z" style="fill:#fafafa"/><text style="fill:#455a64;font-family:&quot;Rubik-Bold&quot;;font-size:24.8263px" transform="matrix(.4871 -.2812 0 1 159.477 176.256)">SAT</text><path d="m204.656 260.035 29.708-17.145c2.547-1.47 4.611-5.046 4.611-7.986V95.713c0-2.94-2.064-4.132-4.611-2.662l-29.708 17.145c-2.547 1.47-4.611 5.046-4.611 7.986v139.191c0 2.94 2.065 4.132 4.611 2.662z" style="opacity:.8;fill:#ccd6a6"/><text style="fill:#455a64;font-family:&quot;Rubik-Bold&quot;;font-size:8.5188px" transform="matrix(.6495 -.375 0 1 220.374 211.029)">27°C</text><text style="fill:#455a64;font-family:&quot;Rubik-Bold&quot;;font-size:8.5188px" transform="matrix(.6495 -.375 0 1 220.375 226.013)">11°C</text><text style="fill:#455a64;font-family:&quot;Rubik-Bold&quot;;font-size:8.5188px" transform="matrix(.6495 -.375 0 1 205.766 219.465)">MAX</text><text style="fill:#455a64;font-family:&quot;Rubik-Bold&quot;;font-size:8.5188px" transform="matrix(.6495 -.375 0 1 205.766 234.45)">MIN</text><path d="m231.818 166.454-2.182 1.212v-5.171c0-3.811-3.04-4.713-6.34-2.794-3.3 1.918-5.976 6.563-5.976 10.374v.698c-.749-.296-1.716-.176-2.773.438-2.375 1.381-4.3 4.723-4.3 7.465v.317l-3.043 1.769c-1.564.909-2.832 3.11-2.832 4.916 0 1.806 1.268 2.533 2.832 1.624l24.614-14.307c1.564-.909 2.832-3.11 2.832-4.916-.001-1.807-1.268-2.533-2.832-1.625z" style="fill:#fafafa"/><text style="fill:#455a64;font-family:&quot;Rubik-Bold&quot;;font-size:24.8263px" transform="matrix(.4871 -.2812 0 1 205.747 149.512)">SUN</text><path d="M219.176 162.218c-1.612 2.234-2.654 4.986-2.707 7.483-.757-.037-1.612.217-2.452.705-1.582.915-2.954 2.564-3.809 4.394-1.695-.232-2.819-1.74-2.819-4.207 0-3.779 2.684-8.391 5.999-10.303 2.842-1.634 5.196-.749 5.788 1.928z" style="fill:#ffbda7"/><path d="m252.237 232.575 29.708-17.145c2.546-1.47 4.611-5.046 4.611-7.986V68.253c0-2.94-2.064-4.132-4.611-2.662l-29.708 17.145c-2.547 1.47-4.611 5.046-4.611 7.986v139.191c0 2.94 2.064 4.132 4.611 2.662z" style="opacity:.8;fill:#ccd6a6"/><text style="fill:#455a64;font-family:&quot;Rubik-Bold&quot;;font-size:8.5188px" transform="matrix(.6495 -.375 0 1 267.955 183.552)">27°C</text><text style="fill:#455a64;font-family:&quot;Rubik-Bold&quot;;font-size:8.5188px" transform="matrix(.6495 -.375 0 1 267.956 198.534)">11°C</text><text style="fill:#455a64;font-family:&quot;Rubik-Bold&quot;;font-size:8.5188px" transform="matrix(.6495 -.375 0 1 253.346 191.989)">MAX</text><text style="fill:#455a64;font-family:&quot;Rubik-Bold&quot;;font-size:8.5188px" transform="matrix(.6495 -.375 0 1 253.346 206.972)">MIN</text><text style="fill:#455a64;font-family:&quot;Rubik-Bold&quot;;font-size:24.8263px" transform="matrix(.4871 -.2812 0 1 252.445 122.654)">MON</text><path d="M267.091 132.844c4.778-2.758 8.651-.522 8.651 4.995s-3.873 12.225-8.651 14.984c-4.778 2.758-8.651.522-8.651-4.995s3.873-12.226 8.651-14.984z" style="fill:#ffbda7"/><path d="M316.484 87.643c8.588 1.638 16.81 8.891 21.339 16.578 17.536-.889 39.524 5.071 60.037 15.448l15.427-59.953c-33.509-6.308-66.076-.765-96.803 27.927z" style="fill:#ccd6a6"/><path d="M337.824 104.22c17.531-.886 39.525 5.072 60.036 15.448l15.425-59.948c-23.133-1.162-55.857 15.561-75.461 44.5z" style="opacity:.35"/><path d="M316.484 87.643c30.727-28.693 63.293-34.235 96.803-27.927-23.137-1.162-55.857 15.564-75.464 44.505-4.529-7.686-12.75-14.939-21.339-16.578z" style="opacity:.25"/><path d="M484.588 130.898c-8.313-2.71-19.014-.326-26.69 4.22-14.929-9.242-37.063-14.635-60.037-15.448l15.426-59.953c32.392 10.649 58.239 31.221 71.301 71.181z" style="fill:#ccd6a6"/><path d="M457.897 135.116c-14.926-9.238-37.065-14.635-60.036-15.448l15.425-59.948c20.822 10.148 41.41 40.589 44.611 75.396z" style="opacity:.45"/><path d="M484.588 130.898c-13.062-39.96-38.909-60.532-71.301-71.181 20.825 10.149 41.407 40.591 44.611 75.401 7.676-4.546 18.378-6.93 26.69-4.22z" style="opacity:.55"/><path d="m409.937 72.772.435.036.515.039c.141-.001.327.004.447-.014.667-.023.484-.356.622-.683l.701-2.829a193.157 193.157 0 0 0 1.875-8.651c.308-1.581.582-3.171.815-4.668.115-.749.247-1.467.334-2.158l.262-1.943c.085-.601.133-1.159.191-1.65.056-.491.101-.921.128-1.277.065-.71.087-1.119.087-1.119s-.178.369-.463 1.022a35.99 35.99 0 0 0-.505 1.18c-.186.458-.414.97-.63 1.537l-.709 1.828c-.258.647-.488 1.34-.749 2.051a123.428 123.428 0 0 0-1.539 4.482 192.977 192.977 0 0 0-2.533 8.481l-.751 2.816c-.037.354-.358.557.215.898.096.074.262.159.385.228l.47.214.397.18z" style="fill:#455a64"/><path d="M356.595 148.409c-6.837 2.271-8.509 2.773-13.245 10.138-4.545 7.07-9.228 20.139-13.297 30.624-7.52-2.137-20.434-9.087-25.523-12.432-3.971-2.61-4.72-4.58-6.876-7.138-2.169-2.573-6.168-8.23-7.092-4.74-.625 2.361 1.882 3.674 1.705 6.228-.139 1.361-8.344-3.793-11.587-6.061-2.152-1.505-7.138 3.211-5.137 8.329 1.772 4.534 4.606 7.405 9.689 9.555 5.373 2.273 8.176 3.409 14.92 6.437 7.046 3.163 32.858 19.536 35.727 17.741 6.544-3.234 12.531-23.461 16.49-32.203 3.958-8.742 1.352-17.741 4.226-26.478z" style="fill:#cf9a9a"/><path d="M358.246 147.568c-2.928 3.859-1.721 2.301-2.626 8.25-.73 4.8-10.812 50.972-19.94 52.887-4.006.84-29.684-15.895-36.691-19.757 2.366-3.495 4.733-7.805 5.541-12.209 4.212 2.307 19.652 10.039 24.855 11.653 2.405-6.71 5.346-13.6 8.106-20.369 5.255-12.888 8.225-22.053 20.755-20.455z" style="fill:#e0e0e0"/><path d="M387.218 356.722h11.346v21.189h-11.346z" style="fill:#cf9a9a" transform="matrix(1 -.0071 .0071 1 -2.593 2.793)"/><path d="m356.382 364.325-12.377.514-.177-21.442 14.022-.559z" style="fill:#cf9a9a"/><path d="M396.164 224.54c.073 10.326 1.21 70.364 1.21 70.364.273 2.97 3.171 8.232 3.469 18.934.432 15.519-2.282 52.112-2.282 52.112s-4.576 3.012-11.387.23c0 0-8.925-51.576-10.972-66.926-1.786-13.396-6.865-48.444-6.865-48.444l-6.982 45.622s1.31 7.292.721 16.485c-.455 7.11-6.083 42.48-6.083 42.48s-5.65 2.657-13.063.211c0 0-2.387-55.017-2.558-61.537-.195-7.432 2.594-71.397 2.594-71.397l52.198 1.866zM387.247 372.351s-.01-1.621-.012-1.621c-.608-.009-.981.598-1.203 2.06a33.292 33.292 0 0 1-.641 3.214c-.511 2.105-.975 3.393-1.94 5.821-1.576 3.964-2.912 5.445-6.552 10.091-.864 1.102-2.818 2.857-3.495 4.083s-.894 4.624.276 5.392c4.304 2.825 10.809 2.859 15.401 1.478 3.532-1.062 6.067-3.908 6.628-7.554.161-1.047.091-2.116.204-3.169.257-2.403 1.447-4.605 2.795-6.611.782-1.164 1.633-2.3 2.154-3.602.936-2.339.154-4.957-.471-7.275-.54-2.002-1.126-4.204-1.809-4.011 0 .245.009 1.237.009 1.237-.817.919-3.09 1.841-5.659 1.958-1.66.076-5.689-.225-5.685-1.491zM343.971 360.737c-.643.027-1.285 1.221-2.693 2.767-1.702 1.868-4.492 3.89-7.25 5.295-4.622 2.355-13.615 5.991-17.683 7.858-2.542 1.166-2.4 4.245.248 5.979 2.648 1.734 9.02 2.952 16.649 1.189 4.155-.96 9.546-4.843 12.978-4.66 3.431.183 9.848.088 12.367-1.674 2.519-1.763 1.48-5.482.742-8.679-.805-3.489-1.475-9.354-2.631-9.108l-.204 1.725c-1.473 2.266-11.645 2.83-12.511.668l-.012-1.36z" style="fill:#263238"/><path d="M369.337 250.81s-9.67-3.078-16.129-9.232c0 0 2.944 5.42 11.621 10.422l-1.789 39.956 6.297-41.146z"/><path d="M377.558 147.387c2.279.548 9.133 1.122 13.164 2.277 2.971.851 2.864 4.576 3.484 7.304 1.984 8.735 2.328 27.058 2.328 27.058l.113 47.739c-7.39 5.383-37.759 8.116-53.311-3.241 0 0 1.902-55.886 1.902-63.797 0-7.911 4.395-17.414 16.532-18.119l15.788.779z" style="fill:#f0f0f0"/><path d="M374.959 113.348c0 7.866-6.376 14.242-14.242 14.242-7.866 0-14.242-6.376-14.242-14.242 0-7.866 6.376-14.242 14.242-14.242 7.865 0 14.242 6.376 14.242 14.242zM385.335 123.474s-2.307 10.842-3.233 12.624c-.925 1.781-2.838 2.288-2.838 2.288l.161-7.627 5.91-7.285zM382.581 106.369s2.285-.144 4.222 1.838c1.9 1.943.897 9.312-1.468 15.267l-4.347.499 1.593-17.604z" style="fill:#263238"/><path d="M379.685 123.977c.872.521 2.115-1.154 3.19-2.279 1.075-1.125 4.584-2.662 6.335 1.027 1.784 3.759-1.545 8.726-4.308 9.593-4.761 1.495-5.476-1.559-5.476-1.559l-.352 17.7c-3.292 4.221-10.688 9.181-14.669 8.473-3.178-.565-3.871-5.934-.833-9.453l.013-5.227s-4.314.655-6.418.33c-3.501-.541-5.704-3.304-6.767-7.094-1.706-6.088-2.354-11.003-.906-22.976 1.586-13.123 16.85-13.259 25.092-8.071 8.242 5.187 5.099 19.536 5.099 19.536z" style="fill:#cf9a9a"/><path d="M348.259 106.671c1.21.93 2.578 1.652 4.004 2.188 4.553 1.713 9.701 2.087 14.431.945.31-.075 4.496-1.187 4.41-1.533.294 1.186.577 2.52 1.642 3.606 1.983 2.022 3.123 2.064 3.902 2.561.3 2.36.29 5.392.435 7.766.049.802.045 4.977 1.947 3.785.622-.39 1.204-1.337 1.658-1.86.709-.819 1.384-1.7 2.188-2.431.56-.51.525-1.698.555-2.378.063-1.421-.031-2.851-.145-4.266-.118-1.468-.367-2.927-.492-4.389-.073-.848.352-1.602.584-2.428.253-.905.421-1.84.371-2.783-.157-2.938-2.41-5.434-5.05-6.732-3.696-1.817-8.163-2.1-12.195-1.77-3.266.268-6.439.271-9.708.22-.826-.013-9.916-.432-9.902-.549a8.966 8.966 0 0 0 1.315 5.763l-2.874.127c-.417.019.72 1.962.794 2.058a11.568 11.568 0 0 0 1.777 1.817 9.1 9.1 0 0 0 .353.283z" style="fill:#263238"/><path d="m383.438 107.903 5.271-2.829c-.748-1.51-2.534-2.101-3.99-1.32-1.455.781-2.029 2.639-1.281 4.149z" style="fill:#263238"/><path d="M363.585 142.252s7.816-1.575 10.549-3.027c1.829-.972 3.335-2.657 3.777-3.737 0 0-.512 2.319-2.146 4.408-1.998 2.555-12.18 4.436-12.18 4.436v-2.08z" style="fill:#9a4a4d"/><path d="M364.379 121.203c0 .962.751 1.74 1.677 1.737.926-.002 1.676-.784 1.676-1.747 0-.962-.75-1.74-1.676-1.737-.927.004-1.677.786-1.677 1.747zM366.055 115.524l3.469 1.915c.512-.997.149-2.234-.809-2.762-.957-.53-2.149-.151-2.66.847z" style="fill:#263238"/><path d="m364.244 132.609-3.877 1.455c.384 1.111 1.563 1.687 2.633 1.285 1.071-.402 1.628-1.629 1.244-2.74z" style="fill:#9a4a4d"/><path d="m350.54 116.92 3.164-2.437a1.916 1.916 0 0 0-2.75-.422c-.874.673-1.06 1.953-.414 2.859zM351.254 120.888c0 .931.726 1.683 1.622 1.68.896-.003 1.622-.759 1.622-1.689 0-.931-.726-1.683-1.622-1.681-.896.003-1.622.759-1.622 1.69z" style="fill:#263238"/><path d="m359.937 119.554-.557 10.213-5.333-1.817z" style="fill:#9a4a4d"/><path d="M358.015 155.808c.995 2.364 2.83 3.328 6.158 3.701 3.328.373 7.371-1.275 9.205-3.203l-4.14-4.12-5.247 3.954-.447-4.405-5.529 4.073z" style="fill:#ccd6a6"/><path d="M358.015 155.808c.995 2.364 2.83 3.328 6.158 3.701 3.328.373 7.371-1.275 9.205-3.203l-4.14-4.12-5.247 3.954-.447-4.405-5.529 4.073z" style="opacity:.2"/><path d="M360.622 154.518s-.82 2.281-.547 4.429c.293 2.3 1.478 3.691 1.478 3.691s1.321 1.049 3.577.389c1.763-1.626 3.539-4.234 3.404-7.406l-4.543.519-3.369-1.622z" style="fill:#ccd6a6"/><path d="M361.544 162.638s-6.771 37.372-7.046 40.388c-.274 3.016 3.89 13.732 6.471 13.823 2.582.092 7.65-9.609 7.727-12.351.076-2.742-3.254-41.767-3.254-41.767l-3.898-.093z" style="fill:#ccd6a6"/><path d="M365.442 162.732s-1.709 1.537-3.899-.093l-.107.59s1.294 1.319 4.078.531l-.072-1.028z" style="opacity:.2"/><path d="m363.992 156.14 15.159-11.56.06-3.032s3.55.942 4.342 7.167c-2.161 5.022-6.079 9.308-11.832 12.587l-3.186-5.682-4.543.52z" style="fill:#e0e0e0"/><path d="M363.585 143.006s-3.563 1.654-5.084 4.163c-1.518 2.504-1.508 10.646-1.508 10.646l3.63-3.297 3.37 1.622c-.323-3.191-.42-8.661-.42-8.661l.012-4.473z" style="fill:#e0e0e0"/><path d="M426.377 197.973c-6.328-10.801-16.329-30.287-21.399-37.025-7.074-9.4-6.665-9.213-13.254-11.268-1.07 3.167-3.53 16.251 1.192 25.652l16.378 23.302c-6.656 1.588-18.558 4.699-22.586 3.871l-1.286 11.982c23.756-2.03 34.696-2.344 41.492-6.716 2.954-1.9 1.434-6.433-.537-9.798z" style="fill:#cf9a9a"/><path d="M393.831 176.997c-3.596-4.259-6.183-17.752-3.11-27.333 6.228.528 7.704 1.789 12.21 7.335 6.559 8.072 13.781 22.549 16.705 27.38 2.924 4.831 9.988 17.303 9.694 19.986-.294 2.684-2.53 5.275-8.317 6.873-5.788 1.598-31.203 3.274-31.203 3.274s-1.217-5.197-1.102-12.02c7.641-1.489 14.591-2.931 19.091-4.208 0 0-10.769-17.498-13.968-21.287z" style="fill:#e0e0e0"/><path d="M387.779 202.708c-1.582-.168-2.503-.797-3.15-1.239-1.052-.719-2.042-1.53-3.145-2.174-2.668-1.558-5.712-2.638-8.584-3.772-.284-.112-.588-.226-.888-.169-.339.065-.606.342-.749.656-.142.314-.18.664-.212 1.008-.068.726.105 1.456.018 2.18-.875 7.248 15.073 7.086 16.71 3.51z" style="fill:#cf9a9a"/><path d="m375.886 218.518.008.002 4.862-19.344-5.843-1.469-4.862 19.344c-.162.452 0 .995.525 1.504.977.947 2.829 1.412 4.137 1.04.702-.201 1.102-.602 1.173-1.077z" style="fill:#ccd6a6"/><path d="m375.886 218.518.008.002 4.862-19.344-5.843-1.469-4.862 19.344c-.162.452 0 .995.525 1.504.977.947 2.829 1.412 4.137 1.04.702-.201 1.102-.602 1.173-1.077z" style="opacity:.25"/><path d="M376.062 196.726c1.308-.372 3.16.093 4.137 1.04.977.947.708 2.016-.6 2.389s-3.16-.093-4.137-1.04c-.977-.948-.708-2.017.6-2.389z" style="fill:#ccd6a6"/><path d="M376.062 196.726c1.308-.372 3.16.093 4.137 1.04.977.947.708 2.016-.6 2.389s-3.16-.093-4.137-1.04c-.977-.948-.708-2.017.6-2.389z" style="opacity:.1"/><path d="m376.329 197.964 33.519-130.661a1.681 1.681 0 0 1 3.256.838l-33.519 130.661c-.846.682-3.021.085-3.256-.838z" style="fill:#263238"/><path d="M387.779 202.766c-1.606.665-4.714-.005-7.896-.226-2.574 1.812-5.782-.292-5.85-1.441l-.696-2.459s-2.663-.138-3.88 1.007-.501 2.796-1.002 3.474c-.501.678-1.074 1.895-1.289 2.754-.215.859-1.289 2.577-1.217 3.436.072.859-.003 2.805-.003 2.805s1.574 3.68 6.337 4.017 13.14-1.646 13.14-1.646l2.356-11.721z" style="fill:#cf9a9a"/><path d="M404.731 92.967c18.481 1.428 35.155 7.883 50.02 19.362 15.12 2.633 24.443 9.25 29.837 18.569-11.649-40.652-40.187-63.175-71.301-71.181s-66.979-2.055-96.803 27.927c9.221-5.558 20.581-6.853 35.094-1.862 18.56-2.879 36.277-.484 53.153 7.185z" style="fill:#ccd6a6"/><path d="M351.575 85.783c18.564-2.882 36.282-.482 53.156 7.185l8.555-33.247c-35.546-9.147-61.711 26.062-61.711 26.062z" style="opacity:.15"/><path d="M316.484 87.643c29.823-29.981 65.688-35.933 96.803-27.927-35.544-9.146-61.709 26.065-61.709 26.065-14.513-4.991-25.873-3.696-35.094 1.862z" style="opacity:.1"/><path d="M454.754 112.332c-14.868-11.484-31.543-17.934-50.022-19.364l8.555-33.248c35.545 9.146 41.467 52.612 41.467 52.612z" style="opacity:.2"/><path d="M484.588 130.898c-11.649-40.652-40.187-63.175-71.301-71.181 35.544 9.146 41.465 52.612 41.465 52.612 15.119 2.634 24.443 9.25 29.836 18.569z" style="opacity:.25"/></svg>